advent_pro_fmm_thn.ufo
<glyph name="quotedbl" format="1">
  <advance width="222"/>
  <unicode hex="0022"/>
  <outline>
    <contour>
      <point x="163" y="721" type="curve" smooth="yes"/>
      <point x="168" y="587" type="line"/>
      <point x="185" y="587" type="line"/>
      <point x="192" y="721" type="line"/>
      <point x="192" y="741"/>
      <point x="163" y="741"/>
    </contour>
    <contour>
      <point x="28" y="721" type="curve" smooth="yes"/>
      <point x="33" y="587" type="line"/>
      <point x="50" y="587" type="line"/>
      <point x="56" y="721" type="line" smooth="yes"/>
      <point x="56" y="741"/>
      <point x="28" y="741"/>
    </contour>
  </outline>
</glyph>
<glyph name="dollar" format="2">
  <advance width="527"/>
  <unicode hex="0024"/>
  <outline>
    <contour>
      <point x="430" y="651" type="curve"/>
      <point x="437" y="669" type="line"/>
      <point x="391" y="694"/>
      <point x="333" y="707"/>
      <point x="278" y="707" type="curve" smooth="yes"/>
      <point x="223" y="707"/>
      <point x="170" y="695"/>
      <point x="131" y="669" type="curve" smooth="yes"/>
      <point x="90" y="642"/>
      <point x="63" y="602"/>
      <point x="59" y="547" type="curve" smooth="yes"/>
      <point x="55" y="459"/>
      <point x="131" y="416"/>
      <point x="219" y="381" type="curve" smooth="yes"/>
      <point x="255" y="365"/>
      <point x="293" y="352"/>
      <point x="328" y="338" type="curve" smooth="yes"/>
      <point x="408" y="304"/>
      <point x="475" y="262"/>
      <point x="476" y="178" type="curve" smooth="yes"/>
      <point x="477" y="124"/>
      <point x="458" y="85"/>
      <point x="426" y="57" type="curve" smooth="yes"/>
      <point x="385" y="21"/>
      <point x="317" y="7"/>
      <point x="274" y="7" type="curve" smooth="yes"/>
      <point x="210" y="7"/>
      <point x="148" y="24"/>
      <point x="116" y="47" type="curve" smooth="yes"/>
      <point x="58" y="87"/>
      <point x="41" y="142"/>
      <point x="41" y="142" type="curve"/>
      <point x="27" y="132" type="line"/>
      <point x="27" y="132"/>
      <point x="45" y="75"/>
      <point x="106" y="32" type="curve" smooth="yes"/>
      <point x="141" y="7"/>
      <point x="206" y="-13"/>
      <point x="274" y="-13" type="curve" smooth="yes"/>
      <point x="335" y="-13"/>
      <point x="398" y="7"/>
      <point x="440" y="43" type="curve" smooth="yes"/>
      <point x="477" y="76"/>
      <point x="498" y="121"/>
      <point x="497" y="177" type="curve" smooth="yes"/>
      <point x="497" y="268"/>
      <point x="422" y="317"/>
      <point x="335" y="355" type="curve" smooth="yes"/>
      <point x="299" y="371"/>
      <point x="262" y="384"/>
      <point x="228" y="398" type="curve" smooth="yes"/>
      <point x="111" y="443"/>
      <point x="78" y="483"/>
      <point x="78" y="542" type="curve" smooth="yes"/>
      <point x="78" y="593"/>
      <point x="109" y="637"/>
      <point x="145" y="658" type="curve" smooth="yes"/>
      <point x="187" y="681"/>
      <point x="234" y="691"/>
      <point x="279" y="690" type="curve" smooth="yes"/>
      <point x="338" y="690"/>
      <point x="393" y="673"/>
    </contour>
    <contour>
      <point x="265" y="-113" type="line"/>
      <point x="284" y="-113" type="line"/>
      <point x="284" y="815" type="line"/>
      <point x="265" y="815" type="line"/>
    </contour>
  </outline>
</glyph>
<glyph name="percent" format="2">
  <advance width="707"/>
  <unicode hex="0025"/>
  <outline>
    <contour>
      <point x="68" y="0" type="line"/>
      <point x="94" y="0" type="line"/>
      <point x="631" y="698" type="line"/>
      <point x="605" y="698" type="line"/>
    </contour>
    <contour>
      <point x="173" y="712" type="curve" smooth="yes"/>
      <point x="92" y="712"/>
      <point x="27" y="647"/>
      <point x="27" y="566" type="curve" smooth="yes"/>
      <point x="27" y="486"/>
      <point x="92" y="421"/>
      <point x="173" y="421" type="curve" smooth="yes"/>
      <point x="253" y="421"/>
      <point x="318" y="486"/>
      <point x="318" y="566" type="curve" smooth="yes"/>
      <point x="318" y="647"/>
      <point x="253" y="712"/>
    </contour>
    <contour>
      <point x="173" y="692" type="curve" smooth="yes"/>
      <point x="242" y="692"/>
      <point x="298" y="636"/>
      <point x="298" y="566" type="curve" smooth="yes"/>
      <point x="298" y="497"/>
      <point x="242" y="441"/>
      <point x="173" y="441" type="curve" smooth="yes"/>
      <point x="103" y="441"/>
      <point x="47" y="497"/>
      <point x="47" y="566" type="curve" smooth="yes"/>
      <point x="47" y="636"/>
      <point x="103" y="692"/>
    </contour>
    <contour>
      <point x="532" y="276" type="curve" smooth="yes"/>
      <point x="453" y="276"/>
      <point x="388" y="211"/>
      <point x="388" y="131" type="curve" smooth="yes"/>
      <point x="388" y="51"/>
      <point x="453" y="-14"/>
      <point x="532" y="-14" type="curve" smooth="yes"/>
      <point x="613" y="-14"/>
      <point x="677" y="51"/>
      <point x="677" y="131" type="curve" smooth="yes"/>
      <point x="677" y="211"/>
      <point x="613" y="276"/>
    </contour>
    <contour>
      <point x="532" y="256" type="curve" smooth="yes"/>
      <point x="602" y="256"/>
      <point x="658" y="200"/>
      <point x="658" y="131" type="curve" smooth="yes"/>
      <point x="658" y="62"/>
      <point x="602" y="7"/>
      <point x="532" y="7" type="curve" smooth="yes"/>
      <point x="464" y="7"/>
      <point x="408" y="62"/>
      <point x="408" y="131" type="curve" smooth="yes"/>
      <point x="408" y="200"/>
      <point x="464" y="256"/>
    </contour>
  </outline>
</glyph>
<glyph name="ampersand" format="2">
  <advance width="527"/>
  <unicode hex="0026"/>
  <outline>
    <contour>
      <point x="392" y="681" type="curve"/>
      <point x="402" y="702" type="line"/>
      <point x="402" y="702"/>
      <point x="291" y="702"/>
      <point x="233" y="702" type="curve" smooth="yes"/>
      <point x="140" y="702"/>
      <point x="88" y="639"/>
      <point x="91" y="553" type="curve" smooth="yes"/>
      <point x="93" y="497"/>
      <point x="129" y="436"/>
      <point x="201" y="403" type="curve"/>
      <point x="197" y="403"/>
      <point x="188" y="403"/>
      <point x="183" y="403" type="curve" smooth="yes"/>
      <point x="48" y="403"/>
      <point x="29" y="318"/>
      <point x="29" y="254" type="curve"/>
      <point x="29" y="254"/>
      <point x="29" y="161"/>
      <point x="29" y="161" type="curve"/>
      <point x="29" y="4"/>
      <point x="150" y="-9"/>
      <point x="223" y="-4" type="curve" smooth="yes"/>
      <point x="285" y="0"/>
      <point x="357" y="36"/>
      <point x="381" y="108" type="curve"/>
      <point x="387" y="46"/>
      <point x="421" y="10"/>
      <point x="486" y="-9" type="curve"/>
      <point x="491" y="9" type="line"/>
      <point x="425" y="31"/>
      <point x="397" y="63"/>
      <point x="397" y="136" type="curve" smooth="yes"/>
      <point x="397" y="382" type="line"/>
      <point x="487" y="382" type="line"/>
      <point x="496" y="403" type="line"/>
      <point x="397" y="403" type="line"/>
      <point x="397" y="505" type="line"/>
      <point x="381" y="505" type="line"/>
      <point x="381" y="403" type="line"/>
      <point x="332" y="403"/>
      <point x="283" y="403"/>
      <point x="274" y="403" type="curve" smooth="yes"/>
      <point x="218" y="403"/>
      <point x="114" y="459"/>
      <point x="114" y="554" type="curve" smooth="yes"/>
      <point x="111" y="628"/>
      <point x="158" y="681"/>
      <point x="237" y="681" type="curve" smooth="yes"/>
      <point x="277" y="681"/>
      <point x="392" y="681"/>
    </contour>
    <contour>
      <point x="381" y="382" type="curve"/>
      <point x="381" y="173" type="line" smooth="yes"/>
      <point x="381" y="91"/>
      <point x="319" y="20"/>
      <point x="223" y="13" type="curve" smooth="yes"/>
      <point x="117" y="5"/>
      <point x="48" y="47"/>
      <point x="48" y="159" type="curve" smooth="yes"/>
      <point x="48" y="165"/>
      <point x="48" y="248"/>
      <point x="48" y="251" type="curve" smooth="yes"/>
      <point x="48" y="326"/>
      <point x="78" y="382"/>
      <point x="181" y="382" type="curve" smooth="yes"/>
      <point x="199" y="382"/>
      <point x="294" y="382"/>
    </contour>
  </outline>
</glyph>
<glyph name="quotesingle" format="2">
  <advance width="87"/>
  <unicode hex="0027"/>
  <outline>
    <contour>
      <point x="28" y="722" type="curve" smooth="yes"/>
      <point x="34" y="587" type="line"/>
      <point x="50" y="587" type="line"/>
      <point x="57" y="722" type="line"/>
      <point x="57" y="741"/>
      <point x="28" y="741"/>
    </contour>
  </outline>
</glyph>
<glyph name="parenleft" format="2">
  <advance width="169"/>
  <unicode hex="0028"/>
  <outline>
    <contour>
      <point x="153" y="798" type="curve"/>
      <point x="143" y="813" type="line"/>
      <point x="70" y="766"/>
      <point x="41" y="723"/>
      <point x="41" y="625" type="curve" smooth="yes"/>
      <point x="41" y="69" type="line" smooth="yes"/>
      <point x="41" y="-29"/>
      <point x="70" y="-72"/>
      <point x="143" y="-119" type="curve"/>
      <point x="154" y="-101" type="line"/>
      <point x="125" y="-80"/>
      <point x="60" y="-50"/>
      <point x="60" y="65" type="curve" smooth="yes"/>
      <point x="60" y="153"/>
      <point x="60" y="316"/>
      <point x="60" y="635" type="curve" smooth="yes"/>
      <point x="60" y="728"/>
      <point x="97" y="759"/>
    </contour>
  </outline>
</glyph>
<glyph name="plus" format="2">
  <advance width="376"/>
  <unicode hex="002B"/>
  <outline>
    <contour>
      <point x="196" y="528" type="line"/>
      <point x="177" y="528" type="line"/>
      <point x="177" y="378" type="line"/>
      <point x="27" y="378" type="line"/>
      <point x="27" y="361" type="line"/>
      <point x="177" y="361" type="line"/>
      <point x="177" y="209" type="line"/>
      <point x="196" y="209" type="line"/>
      <point x="196" y="361" type="line"/>
      <point x="346" y="361" type="line"/>
      <point x="346" y="378" type="line"/>
      <point x="196" y="378" type="line"/>
    </contour>
  </outline>
</glyph>
<glyph name="slash" format="2">
  <advance width="379"/>
  <unicode hex="002F"/>
  <outline>
    <contour>
      <point x="18" y="-113" type="line"/>
      <point x="39" y="-113" type="line"/>
      <point x="362" y="815" type="line"/>
      <point x="342" y="815" type="line"/>
    </contour>
  </outline>
</glyph>
<glyph name="one" format="1">
  <advance width="204"/>
  <unicode hex="0031"/>
  <outline>
    <contour>
      <point x="8" y="606" type="curve"/>
      <point x="13" y="590" type="line"/>
      <point x="63" y="602"/>
      <point x="107" y="630"/>
      <point x="141" y="664" type="curve"/>
      <point x="141" y="0" type="line"/>
      <point x="161" y="0" type="line"/>
      <point x="161" y="698" type="line"/>
      <point x="141" y="698" type="line"/>
      <point x="116" y="658"/>
      <point x="59" y="620"/>
    </contour>
  </outline>
</glyph>
<glyph name="three" format="2">
  <advance width="439"/>
  <unicode hex="0033"/>
  <outline>
    <contour>
      <point x="200" y="413" type="curve" smooth="yes"/>
      <point x="157" y="413" type="line"/>
      <point x="357" y="678" type="line"/>
      <point x="357" y="698" type="line"/>
      <point x="68" y="698" type="line"/>
      <point x="68" y="678" type="line"/>
      <point x="333" y="678" type="line"/>
      <point x="120" y="393" type="line"/>
      <point x="206" y="393" type="line" smooth="yes"/>
      <point x="252" y="393"/>
      <point x="295" y="373"/>
      <point x="335" y="338" type="curve" smooth="yes"/>
      <point x="373" y="304"/>
      <point x="393" y="261"/>
      <point x="393" y="207" type="curve" smooth="yes"/>
      <point x="393" y="154"/>
      <point x="376" y="107"/>
      <point x="340" y="67" type="curve" smooth="yes"/>
      <point x="305" y="26"/>
      <point x="257" y="7"/>
      <point x="194" y="7" type="curve" smooth="yes"/>
      <point x="131" y="7"/>
      <point x="80" y="36"/>
      <point x="41" y="94" type="curve"/>
      <point x="24" y="82" type="line"/>
      <point x="62" y="24"/>
      <point x="128" y="-12"/>
      <point x="200" y="-12" type="curve" smooth="yes"/>
      <point x="259" y="-12"/>
      <point x="310" y="9"/>
      <point x="350" y="50" type="curve" smooth="yes"/>
      <point x="391" y="90"/>
      <point x="412" y="141"/>
      <point x="412" y="199" type="curve" smooth="yes"/>
      <point x="412" y="258"/>
      <point x="391" y="309"/>
      <point x="350" y="350" type="curve" smooth="yes"/>
      <point x="310" y="391"/>
      <point x="259" y="413"/>
    </contour>
  </outline>
</glyph>
<glyph name="six" format="2">
  <advance width="480"/>
  <unicode hex="0036"/>
  <outline>
    <contour>
      <point x="270" y="679" type="curve" smooth="yes"/>
      <point x="308" y="679" type="line"/>
      <point x="308" y="697" type="line"/>
      <point x="274" y="697" type="line" smooth="yes"/>
      <point x="185" y="697"/>
      <point x="113" y="662"/>
      <point x="77" y="614" type="curve" smooth="yes"/>
      <point x="43" y="568"/>
      <point x="30" y="517"/>
      <point x="30" y="462" type="curve" smooth="yes"/>
      <point x="30" y="202" type="line" smooth="yes"/>
      <point x="30" y="143"/>
      <point x="51" y="92"/>
      <point x="93" y="52" type="curve" smooth="yes"/>
      <point x="134" y="11"/>
      <point x="184" y="-10"/>
      <point x="242" y="-10" type="curve" smooth="yes"/>
      <point x="302" y="-10"/>
      <point x="351" y="11"/>
      <point x="392" y="53" type="curve" smooth="yes"/>
      <point x="434" y="94"/>
      <point x="455" y="143"/>
      <point x="455" y="202" type="curve" smooth="yes"/>
      <point x="455" y="261"/>
      <point x="434" y="311"/>
      <point x="392" y="352" type="curve" smooth="yes"/>
      <point x="351" y="393"/>
      <point x="301" y="414"/>
      <point x="241" y="414" type="curve" smooth="yes"/>
      <point x="165" y="414"/>
      <point x="89" y="377"/>
      <point x="50" y="288" type="curve"/>
      <point x="50" y="450" type="line" smooth="yes"/>
      <point x="50" y="540"/>
      <point x="79" y="598"/>
      <point x="124" y="631" type="curve" smooth="yes"/>
      <point x="165" y="662"/>
      <point x="214" y="679"/>
    </contour>
    <contour>
      <point x="242" y="395" type="curve" smooth="yes"/>
      <point x="349" y="395"/>
      <point x="435" y="308"/>
      <point x="435" y="201" type="curve" smooth="yes"/>
      <point x="435" y="95"/>
      <point x="349" y="9"/>
      <point x="242" y="9" type="curve" smooth="yes"/>
      <point x="136" y="9"/>
      <point x="50" y="95"/>
      <point x="50" y="201" type="curve" smooth="yes"/>
      <point x="50" y="308"/>
      <point x="136" y="395"/>
    </contour>
  </outline>
</glyph>
<glyph name="nine" format="2">
  <advance width="479"/>
  <unicode hex="0039"/>
  <outline>
    <contour>
      <point x="234" y="706" type="curve" smooth="yes"/>
      <point x="174" y="706"/>
      <point x="125" y="685"/>
      <point x="84" y="643" type="curve" smooth="yes"/>
      <point x="43" y="603"/>
      <point x="22" y="553"/>
      <point x="22" y="494" type="curve" smooth="yes"/>
      <point x="22" y="436"/>
      <point x="43" y="385"/>
      <point x="84" y="344" type="curve" smooth="yes"/>
      <point x="125" y="304"/>
      <point x="175" y="283"/>
      <point x="235" y="283" type="curve" smooth="yes"/>
      <point x="312" y="283"/>
      <point x="387" y="319"/>
      <point x="427" y="408" type="curve"/>
      <point x="427" y="246" type="line" smooth="yes"/>
      <point x="427" y="162"/>
      <point x="398" y="98"/>
      <point x="353" y="65" type="curve" smooth="yes"/>
      <point x="312" y="34"/>
      <point x="262" y="20"/>
      <point x="206" y="20" type="curve" smooth="yes"/>
      <point x="168" y="20" type="line"/>
      <point x="168" y="-1" type="line"/>
      <point x="203" y="-1" type="line" smooth="yes"/>
      <point x="291" y="-1"/>
      <point x="360" y="33"/>
      <point x="395" y="82" type="curve" smooth="yes"/>
      <point x="429" y="129"/>
      <point x="446" y="180"/>
      <point x="446" y="234" type="curve" smooth="yes"/>
      <point x="446" y="494" type="line" smooth="yes"/>
      <point x="446" y="553"/>
      <point x="425" y="604"/>
      <point x="384" y="645" type="curve" smooth="yes"/>
      <point x="344" y="685"/>
      <point x="292" y="706"/>
    </contour>
    <contour>
      <point x="234" y="687" type="curve" smooth="yes"/>
      <point x="340" y="687"/>
      <point x="427" y="602"/>
      <point x="427" y="495" type="curve" smooth="yes"/>
      <point x="427" y="388"/>
      <point x="340" y="301"/>
      <point x="234" y="301" type="curve" smooth="yes"/>
      <point x="127" y="301"/>
      <point x="41" y="388"/>
      <point x="41" y="495" type="curve" smooth="yes"/>
      <point x="41" y="602"/>
      <point x="127" y="687"/>
    </contour>
  </outline>
</glyph>
<glyph name="colon" format="2">
  <advance width="110"/>
  <unicode hex="003A"/>
  <outline>
    <contour>
      <point x="70" y="143" type="curve" smooth="yes"/>
      <point x="70" y="153"/>
      <point x="62" y="159"/>
      <point x="53" y="159" type="curve" smooth="yes"/>
      <point x="44" y="159"/>
      <point x="36" y="153"/>
      <point x="36" y="143" type="curve" smooth="yes"/>
      <point x="36" y="134"/>
      <point x="44" y="127"/>
      <point x="53" y="127" type="curve" smooth="yes"/>
      <point x="62" y="127"/>
      <point x="70" y="134"/>
    </contour>
    <contour>
      <point x="70" y="384" type="curve" smooth="yes"/>
      <point x="70" y="393"/>
      <point x="62" y="400"/>
      <point x="53" y="400" type="curve" smooth="yes"/>
      <point x="44" y="400"/>
      <point x="36" y="393"/>
      <point x="36" y="384" type="curve" smooth="yes"/>
      <point x="36" y="374"/>
      <point x="44" y="367"/>
      <point x="53" y="367" type="curve" smooth="yes"/>
      <point x="62" y="367"/>
      <point x="70" y="374"/>
    </contour>
  </outline>
</glyph>
<glyph name="less" format="2">
  <advance width="349"/>
  <unicode hex="003C"/>
  <outline>
    <contour>
      <point x="25" y="358" type="line"/>
      <point x="302" y="79" type="line"/>
      <point x="316" y="94" type="line"/>
      <point x="49" y="356" type="line"/>
      <point x="316" y="623" type="line"/>
      <point x="302" y="635" type="line"/>
    </contour>
  </outline>
</glyph>
<glyph name="equal" format="2">
  <advance width="386"/>
  <unicode hex="003D"/>
  <outline>
    <contour>
      <point x="32" y="393" type="line"/>
      <point x="351" y="393" type="line"/>
      <point x="351" y="411" type="line"/>
      <point x="32" y="411" type="line"/>
    </contour>
    <contour>
      <point x="32" y="288" type="line"/>
      <point x="351" y="288" type="line"/>
      <point x="351" y="307" type="line"/>
      <point x="32" y="307" type="line"/>
    </contour>
  </outline>
</glyph>
<glyph name="greater" format="2">
  <advance width="350"/>
  <unicode hex="003E"/>
  <outline>
    <contour>
      <point x="30" y="623" type="line"/>
      <point x="298" y="356" type="line"/>
      <point x="30" y="94" type="line"/>
      <point x="44" y="79" type="line"/>
      <point x="321" y="358" type="line"/>
      <point x="44" y="635" type="line"/>
    </contour>
  </outline>
</glyph>
<glyph name="question" format="2">
  <advance width="407"/>
  <unicode hex="003F"/>
  <outline>
    <contour>
      <point x="25" y="530" type="curve"/>
      <point x="44" y="530" type="line"/>
      <point x="44" y="639"/>
      <point x="125" y="689"/>
      <point x="202" y="689" type="curve" smooth="yes"/>
      <point x="297" y="689"/>
      <point x="360" y="616"/>
      <point x="360" y="535" type="curve" smooth="yes"/>
      <point x="360" y="482"/>
      <point x="341" y="446"/>
      <point x="297" y="393" type="curve" smooth="yes"/>
      <point x="227" y="310"/>
      <point x="181" y="293"/>
      <point x="181" y="187" type="curve" smooth="yes"/>
      <point x="181" y="119" type="line"/>
      <point x="199" y="119" type="line"/>
      <point x="199" y="119"/>
      <point x="199" y="168"/>
      <point x="199" y="193" type="curve" smooth="yes"/>
      <point x="199" y="271"/>
      <point x="224" y="288"/>
      <point x="304" y="373" type="curve" smooth="yes"/>
      <point x="347" y="419"/>
      <point x="378" y="463"/>
      <point x="378" y="536" type="curve" smooth="yes"/>
      <point x="378" y="646"/>
      <point x="289" y="705"/>
      <point x="202" y="707" type="curve" smooth="yes"/>
      <point x="114" y="708"/>
      <point x="25" y="652"/>
    </contour>
    <contour>
      <point x="191" y="30" type="curve" smooth="yes"/>
      <point x="181" y="30"/>
      <point x="173" y="22"/>
      <point x="173" y="13" type="curve" smooth="yes"/>
      <point x="173" y="3"/>
      <point x="181" y="-4"/>
      <point x="191" y="-4" type="curve" smooth="yes"/>
      <point x="199" y="-4"/>
      <point x="207" y="3"/>
      <point x="207" y="13" type="curve" smooth="yes"/>
      <point x="207" y="22"/>
      <point x="199" y="30"/>
    </contour>
  </outline>
</glyph>
<glyph name="at" format="2">
  <advance width="717"/>
  <unicode hex="0040"/>
  <outline>
    <contour>
      <point x="688" y="472" type="curve"/>
      <point x="679" y="484" type="line"/>
      <point x="641" y="457"/>
      <point x="638" y="437"/>
      <point x="638" y="371" type="curve" smooth="yes"/>
      <point x="638" y="282"/>
      <point x="638" y="218"/>
      <point x="638" y="168" type="curve" smooth="yes"/>
      <point x="638" y="35"/>
      <point x="484" y="-48"/>
      <point x="341" y="-48" type="curve" smooth="yes"/>
      <point x="147" y="-48"/>
      <point x="49" y="53"/>
      <point x="49" y="198" type="curve" smooth="yes"/>
      <point x="49" y="239"/>
      <point x="49" y="283"/>
      <point x="49" y="338" type="curve" smooth="yes"/>
      <point x="49" y="501"/>
      <point x="171" y="561"/>
      <point x="291" y="561" type="curve" smooth="yes"/>
      <point x="412" y="561"/>
      <point x="474" y="508"/>
      <point x="492" y="442" type="curve"/>
      <point x="492" y="442"/>
      <point x="322" y="442"/>
      <point x="306" y="442" type="curve" smooth="yes"/>
      <point x="227" y="442"/>
      <point x="153" y="408"/>
      <point x="153" y="288" type="curve" smooth="yes"/>
      <point x="153" y="222" type="line" smooth="yes"/>
      <point x="153" y="140"/>
      <point x="194" y="61"/>
      <point x="328" y="61" type="curve" smooth="yes"/>
      <point x="401" y="61"/>
      <point x="511" y="69"/>
      <point x="511" y="69" type="curve"/>
      <point x="511" y="69"/>
      <point x="511" y="397"/>
      <point x="511" y="424" type="curve"/>
      <point x="567" y="424" type="line"/>
      <point x="577" y="442" type="line"/>
      <point x="508" y="442" type="line"/>
      <point x="488" y="535"/>
      <point x="394" y="579"/>
      <point x="291" y="579" type="curve" smooth="yes"/>
      <point x="119" y="579"/>
      <point x="30" y="471"/>
      <point x="30" y="333" type="curve" smooth="yes"/>
      <point x="30" y="295"/>
      <point x="30" y="246"/>
      <point x="30" y="201" type="curve" smooth="yes"/>
      <point x="30" y="31"/>
      <point x="153" y="-67"/>
      <point x="336" y="-67" type="curve" smooth="yes"/>
      <point x="495" y="-67"/>
      <point x="654" y="22"/>
      <point x="654" y="170" type="curve" smooth="yes"/>
      <point x="654" y="386" type="line" smooth="yes"/>
      <point x="654" y="442"/>
      <point x="663" y="451"/>
    </contour>
    <contour>
      <point x="301" y="424" type="curve" smooth="yes"/>
      <point x="302" y="424"/>
      <point x="472" y="424"/>
      <point x="495" y="424" type="curve"/>
      <point x="495" y="87" type="line"/>
      <point x="495" y="87"/>
      <point x="397" y="79"/>
      <point x="327" y="79" type="curve" smooth="yes"/>
      <point x="222" y="79"/>
      <point x="169" y="130"/>
      <point x="169" y="227" type="curve" smooth="yes"/>
      <point x="169" y="285" type="line" smooth="yes"/>
      <point x="169" y="372"/>
      <point x="213" y="424"/>
    </contour>
  </outline>
</glyph>
<glyph name="A" format="2">
  <advance width="542"/>
  <unicode hex="0041"/>
  <outline>
    <contour>
      <point x="524" y="0" type="line"/>
      <point x="279" y="698" type="line"/>
      <point x="265" y="698" type="line"/>
      <point x="20" y="0" type="line"/>
      <point x="40" y="0" type="line"/>
      <point x="138" y="280" type="line"/>
      <point x="405" y="280" type="line"/>
      <point x="503" y="0" type="line"/>
    </contour>
    <contour>
      <point x="146" y="299" type="line"/>
      <point x="272" y="658" type="line"/>
      <point x="399" y="299" type="line"/>
    </contour>
  </outline>
</glyph>
<glyph name="B" format="2">
  <advance width="502"/>
  <unicode hex="0042"/>
  <outline>
    <contour>
      <point x="261" y="698" type="curve" smooth="yes"/>
      <point x="41" y="698" type="line"/>
      <point x="41" y="0" type="line"/>
      <point x="271" y="0" type="line" smooth="yes"/>
      <point x="347" y="0"/>
      <point x="404" y="26"/>
      <point x="433" y="69" type="curve" smooth="yes"/>
      <point x="459" y="109"/>
      <point x="473" y="155"/>
      <point x="473" y="208" type="curve" smooth="yes"/>
      <point x="473" y="304"/>
      <point x="433" y="367"/>
      <point x="349" y="399" type="curve"/>
      <point x="349" y="400" type="line" smooth="yes"/>
      <point x="349" y="402"/>
      <point x="349" y="402"/>
      <point x="350" y="403" type="curve"/>
      <point x="402" y="422"/>
      <point x="437" y="480"/>
      <point x="437" y="538" type="curve" smooth="yes"/>
      <point x="437" y="588"/>
      <point x="422" y="627"/>
      <point x="393" y="654" type="curve" smooth="yes"/>
      <point x="362" y="683"/>
      <point x="317" y="698"/>
    </contour>
    <contour>
      <point x="297" y="411" type="curve" smooth="yes"/>
      <point x="60" y="411" type="line"/>
      <point x="60" y="679" type="line"/>
      <point x="253" y="679" type="line" smooth="yes"/>
      <point x="367" y="679"/>
      <point x="418" y="624"/>
      <point x="418" y="541" type="curve" smooth="yes"/>
      <point x="418" y="501"/>
      <point x="405" y="468"/>
      <point x="379" y="444" type="curve" smooth="yes"/>
      <point x="354" y="422"/>
      <point x="327" y="411"/>
    </contour>
    <contour>
      <point x="269" y="19" type="curve" smooth="yes"/>
      <point x="60" y="19" type="line"/>
      <point x="60" y="393" type="line"/>
      <point x="272" y="393" type="line" smooth="yes"/>
      <point x="386" y="393"/>
      <point x="454" y="319"/>
      <point x="454" y="205" type="curve" smooth="yes"/>
      <point x="454" y="90"/>
      <point x="389" y="19"/>
    </contour>
  </outline>
</glyph>
<glyph name="G" format="2">
  <advance width="475"/>
  <unicode hex="0047"/>
  <outline>
    <contour>
      <point x="362" y="657" type="curve"/>
      <point x="369" y="674" type="line"/>
      <point x="326" y="696"/>
      <point x="277" y="707"/>
      <point x="227" y="707" type="curve" smooth="yes"/>
      <point x="186" y="707"/>
      <point x="150" y="698"/>
      <point x="120" y="682" type="curve"/>
      <point x="63" y="647"/>
      <point x="33" y="586"/>
      <point x="33" y="502" type="curve" smooth="yes"/>
      <point x="33" y="188" type="line" smooth="yes"/>
      <point x="33" y="122"/>
      <point x="53" y="73"/>
      <point x="95" y="40" type="curve" smooth="yes"/>
      <point x="136" y="7"/>
      <point x="185" y="-10"/>
      <point x="245" y="-10" type="curve" smooth="yes"/>
      <point x="334" y="-10"/>
      <point x="394" y="23"/>
      <point x="425" y="88" type="curve"/>
      <point x="425" y="0" type="line"/>
      <point x="444" y="0" type="line"/>
      <point x="444" y="299" type="line"/>
      <point x="242" y="299" type="line"/>
      <point x="250" y="280" type="line"/>
      <point x="425" y="280" type="line"/>
      <point x="425" y="182" type="line" smooth="yes"/>
      <point x="425" y="133"/>
      <point x="411" y="91"/>
      <point x="383" y="58" type="curve" smooth="yes"/>
      <point x="354" y="26"/>
      <point x="309" y="9"/>
      <point x="248" y="9" type="curve" smooth="yes"/>
      <point x="126" y="9"/>
      <point x="53" y="82"/>
      <point x="53" y="186" type="curve" smooth="yes"/>
      <point x="53" y="495" type="line" smooth="yes"/>
      <point x="53" y="564"/>
      <point x="75" y="617"/>
      <point x="101" y="645" type="curve"/>
      <point x="132" y="674"/>
      <point x="175" y="689"/>
      <point x="230" y="689" type="curve" smooth="yes"/>
      <point x="269" y="689"/>
      <point x="313" y="678"/>
    </contour>
  </outline>
</glyph>
<glyph name="H" format="2">
  <advance width="513"/>
  <unicode hex="0048"/>
  <outline>
    <contour>
      <point x="451" y="411" type="line"/>
      <point x="60" y="411" type="line"/>
      <point x="60" y="698" type="line"/>
      <point x="41" y="698" type="line"/>
      <point x="41" y="0" type="line"/>
      <point x="60" y="0" type="line"/>
      <point x="60" y="393" type="line"/>
      <point x="451" y="393" type="line"/>
      <point x="451" y="0" type="line"/>
      <point x="470" y="0" type="line"/>
      <point x="470" y="698" type="line"/>
      <point x="451" y="698" type="line"/>
    </contour>
  </outline>
</glyph>
<glyph name="I" format="2">
  <advance width="162"/>
  <unicode hex="0049"/>
  <outline>
    <contour>
      <point x="15" y="679" type="line"/>
      <point x="101" y="676" type="line"/>
      <point x="101" y="0" type="line"/>
      <point x="119" y="0" type="line"/>
      <point x="119" y="698" type="line"/>
      <point x="15" y="698" type="line"/>
    </contour>
  </outline>
</glyph>
<glyph name="L" format="2">
  <advance width="419"/>
  <unicode hex="004C"/>
  <outline>
    <contour>
      <point x="41" y="0" type="line"/>
      <point x="401" y="0" type="line"/>
      <point x="401" y="20" type="line"/>
      <point x="60" y="20" type="line"/>
      <point x="60" y="698" type="line"/>
      <point x="41" y="698" type="line"/>
    </contour>
  </outline>
</glyph>
<glyph name="N" format="2">
  <advance width="575"/>
  <unicode hex="004E"/>
  <outline>
    <contour>
      <point x="532" y="698" type="line"/>
      <point x="515" y="698" type="line"/>
      <point x="515" y="32" type="line"/>
      <point x="59" y="698" type="line"/>
      <point x="41" y="698" type="line"/>
      <point x="41" y="0" type="line"/>
      <point x="59" y="0" type="line"/>
      <point x="59" y="668" type="line"/>
      <point x="515" y="0" type="line"/>
      <point x="532" y="0" type="line"/>
    </contour>
  </outline>
</glyph>
<glyph name="O" format="1">
  <advance width="486"/>
  <unicode hex="004F"/>
  <outline>
    <contour>
      <point x="33" y="506" type="curve" smooth="yes"/>
      <point x="33" y="185" type="line" smooth="yes"/>
      <point x="33" y="56"/>
      <point x="126" y="-11"/>
      <point x="243" y="-11" type="curve" smooth="yes"/>
      <point x="368" y="-11"/>
      <point x="451" y="63"/>
      <point x="451" y="185" type="curve" smooth="yes"/>
      <point x="451" y="505" type="line" smooth="yes"/>
      <point x="451" y="635"/>
      <point x="375" y="714"/>
      <point x="245" y="714" type="curve" smooth="yes"/>
      <point x="113" y="714"/>
      <point x="33" y="642"/>
    </contour>
    <contour>
      <point x="52" y="184" type="curve" smooth="yes"/>
      <point x="52" y="506" type="line" smooth="yes"/>
      <point x="52" y="621"/>
      <point x="116" y="693"/>
      <point x="242" y="693" type="curve" smooth="yes"/>
      <point x="369" y="693"/>
      <point x="433" y="624"/>
      <point x="433" y="508" type="curve" smooth="yes"/>
      <point x="433" y="184" type="line" smooth="yes"/>
      <point x="433" y="66"/>
      <point x="350" y="8"/>
      <point x="243" y="8" type="curve" smooth="yes"/>
      <point x="136" y="8"/>
      <point x="52" y="77"/>
    </contour>
    <contour>
      <point x="81" y="700" type="move" name="tonos"/>
    </contour>
    <contour>
      <point x="243" y="735" type="move" name="top"/>
    </contour>
  </outline>
</glyph>
<glyph name="P" format="2">
  <advance width="502"/>
  <unicode hex="0050"/>
  <outline>
    <contour>
      <point x="290" y="698" type="curve" smooth="yes"/>
      <point x="41" y="698" type="line"/>
      <point x="41" y="0" type="line"/>
      <point x="60" y="0" type="line"/>
      <point x="60" y="280" type="line"/>
      <point x="139" y="280"/>
      <point x="223" y="280"/>
      <point x="283" y="280" type="curve" smooth="yes"/>
      <point x="417" y="280"/>
      <point x="474" y="354"/>
      <point x="474" y="492" type="curve" smooth="yes"/>
      <point x="474" y="621"/>
      <point x="416" y="698"/>
    </contour>
    <contour>
      <point x="60" y="299" type="curve"/>
      <point x="60" y="678" type="line"/>
      <point x="291" y="678" type="line" smooth="yes"/>
      <point x="406" y="678"/>
      <point x="455" y="609"/>
      <point x="455" y="492" type="curve" smooth="yes"/>
      <point x="455" y="367"/>
      <point x="404" y="299"/>
      <point x="282" y="299" type="curve" smooth="yes"/>
      <point x="227" y="299"/>
      <point x="148" y="299"/>
    </contour>
  </outline>
</glyph>
<glyph name="S" format="2">
  <advance width="523"/>
  <unicode hex="0053"/>
  <outline>
    <contour>
      <point x="427" y="651" type="curve"/>
      <point x="434" y="670" type="line"/>
      <point x="389" y="694"/>
      <point x="332" y="707"/>
      <point x="276" y="707" type="curve" smooth="yes"/>
      <point x="222" y="707"/>
      <point x="168" y="695"/>
      <point x="128" y="669" type="curve" smooth="yes"/>
      <point x="87" y="643"/>
      <point x="60" y="603"/>
      <point x="58" y="547" type="curve" smooth="yes"/>
      <point x="53" y="460"/>
      <point x="128" y="417"/>
      <point x="216" y="381" type="curve" smooth="yes"/>
      <point x="253" y="366"/>
      <point x="290" y="353"/>
      <point x="325" y="338" type="curve" smooth="yes"/>
      <point x="407" y="304"/>
      <point x="473" y="263"/>
      <point x="474" y="178" type="curve" smooth="yes"/>
      <point x="475" y="124"/>
      <point x="455" y="85"/>
      <point x="424" y="57" type="curve" smooth="yes"/>
      <point x="382" y="22"/>
      <point x="321" y="7"/>
      <point x="257" y="7" type="curve" smooth="yes"/>
      <point x="192" y="7"/>
      <point x="146" y="25"/>
      <point x="113" y="48" type="curve" smooth="yes"/>
      <point x="56" y="88"/>
      <point x="39" y="142"/>
      <point x="39" y="142" type="curve"/>
      <point x="25" y="133" type="line"/>
      <point x="25" y="133"/>
      <point x="42" y="75"/>
      <point x="103" y="32" type="curve" smooth="yes"/>
      <point x="138" y="8"/>
      <point x="188" y="-12"/>
      <point x="257" y="-12" type="curve" smooth="yes"/>
      <point x="333" y="-12"/>
      <point x="396" y="8"/>
      <point x="437" y="44" type="curve" smooth="yes"/>
      <point x="475" y="76"/>
      <point x="496" y="121"/>
      <point x="495" y="177" type="curve" smooth="yes"/>
      <point x="496" y="268"/>
      <point x="420" y="318"/>
      <point x="333" y="355" type="curve" smooth="yes"/>
      <point x="298" y="371"/>
      <point x="260" y="385"/>
      <point x="225" y="398" type="curve" smooth="yes"/>
      <point x="108" y="444"/>
      <point x="77" y="483"/>
      <point x="77" y="543" type="curve" smooth="yes"/>
      <point x="77" y="594"/>
      <point x="106" y="637"/>
      <point x="143" y="658" type="curve" smooth="yes"/>
      <point x="184" y="682"/>
      <point x="232" y="691"/>
      <point x="277" y="691" type="curve" smooth="yes"/>
      <point x="335" y="690"/>
      <point x="391" y="673"/>
    </contour>
  </outline>
</glyph>
<glyph name="T" format="2">
  <advance width="408"/>
  <unicode hex="0054"/>
  <outline>
    <contour>
      <point x="210" y="678" type="line"/>
      <point x="404" y="678" type="line"/>
      <point x="404" y="698" type="line"/>
      <point x="2" y="698" type="line"/>
      <point x="2" y="678" type="line"/>
      <point x="191" y="678" type="line"/>
      <point x="192" y="0" type="line"/>
      <point x="210" y="0" type="line"/>
    </contour>
  </outline>
</glyph>
<glyph name="W" format="2">
  <advance width="727"/>
  <unicode hex="0057"/>
  <outline>
    <contour>
      <point x="373" y="698" type="line"/>
      <point x="352" y="698" type="line"/>
      <point x="207" y="36" type="line"/>
      <point x="36" y="698" type="line"/>
      <point x="15" y="698" type="line"/>
      <point x="197" y="0" type="line"/>
      <point x="218" y="0" type="line"/>
      <point x="363" y="651" type="line"/>
      <point x="508" y="0" type="line"/>
      <point x="529" y="0" type="line"/>
      <point x="709" y="698" type="line"/>
      <point x="687" y="698" type="line"/>
      <point x="519" y="35" type="line"/>
    </contour>
  </outline>
</glyph>
<glyph name="Z" format="2">
  <advance width="539"/>
  <unicode hex="005A"/>
  <outline>
    <contour>
      <point x="506" y="698" type="line"/>
      <point x="39" y="698" type="line"/>
      <point x="40" y="679" type="line"/>
      <point x="482" y="679" type="line"/>
      <point x="27" y="19" type="line"/>
      <point x="27" y="0" type="line"/>
      <point x="512" y="0" type="line"/>
      <point x="512" y="19" type="line"/>
      <point x="50" y="19" type="line"/>
      <point x="506" y="679" type="line"/>
    </contour>
  </outline>
</glyph>
<glyph name="bracketright" format="2">
  <advance width="219"/>
  <unicode hex="005D"/>
  <outline>
    <contour>
      <point x="15" y="-113" type="line"/>
      <point x="176" y="-113" type="line"/>
      <point x="176" y="815" type="line"/>
      <point x="15" y="815" type="line"/>
      <point x="15" y="798" type="line"/>
      <point x="157" y="796" type="line"/>
      <point x="157" y="-95" type="line"/>
      <point x="15" y="-96" type="line"/>
    </contour>
  </outline>
</glyph>
<glyph name="asciicircum" format="2">
  <advance width="266"/>
  <unicode hex="005E"/>
  <outline>
    <contour>
      <point x="254" y="779" type="line"/>
      <point x="134" y="897" type="line"/>
      <point x="11" y="778" type="line"/>
      <point x="26" y="763" type="line"/>
      <point x="134" y="867" type="line"/>
      <point x="239" y="763" type="line"/>
    </contour>
  </outline>
</glyph>
<glyph name="grave" format="2">
  <advance width="266"/>
  <unicode hex="0060"/>
  <outline>
    <contour>
      <point x="91" y="727" type="line" smooth="yes"/>
      <point x="88" y="736"/>
      <point x="78" y="741"/>
      <point x="70" y="737" type="curve" smooth="yes"/>
      <point x="62" y="732"/>
      <point x="62" y="722"/>
      <point x="66" y="714" type="curve"/>
      <point x="122" y="613" type="line"/>
      <point x="143" y="613" type="line"/>
    </contour>
  </outline>
</glyph>
<glyph name="c" format="2">
  <advance width="377"/>
  <unicode hex="0063"/>
  <outline>
    <contour>
      <point x="340" y="457" type="curve"/>
      <point x="347" y="476" type="line"/>
      <point x="289" y="504"/>
      <point x="223" y="516"/>
      <point x="165" y="504" type="curve" smooth="yes"/>
      <point x="120" y="494"/>
      <point x="82" y="470"/>
      <point x="55" y="426" type="curve" smooth="yes"/>
      <point x="37" y="394"/>
      <point x="30" y="362"/>
      <point x="28" y="318" type="curve"/>
      <point x="28" y="173" type="line" smooth="yes"/>
      <point x="28" y="75"/>
      <point x="72" y="23"/>
      <point x="140" y="1" type="curve" smooth="yes"/>
      <point x="200" y="-18"/>
      <point x="282" y="-13"/>
      <point x="349" y="5" type="curve"/>
      <point x="345" y="25" type="line"/>
      <point x="345" y="25"/>
      <point x="230" y="-8"/>
      <point x="141" y="21" type="curve" smooth="yes"/>
      <point x="70" y="45"/>
      <point x="47" y="99"/>
      <point x="47" y="175" type="curve" smooth="yes"/>
      <point x="47" y="313" type="line" smooth="yes"/>
      <point x="47" y="355"/>
      <point x="56" y="389"/>
      <point x="73" y="417" type="curve" smooth="yes"/>
      <point x="95" y="453"/>
      <point x="130" y="476"/>
      <point x="172" y="485" type="curve" smooth="yes"/>
      <point x="223" y="496"/>
      <point x="282" y="486"/>
    </contour>
  </outline>
</glyph>
<glyph name="d" format="2">
  <advance width="455"/>
  <unicode hex="0064"/>
  <outline>
    <contour>
      <point x="412" y="-1" type="curve"/>
      <point x="412" y="698" type="line"/>
      <point x="393" y="698" type="line"/>
      <point x="393" y="470" type="line"/>
      <point x="341" y="492"/>
      <point x="280" y="508"/>
      <point x="207" y="508" type="curve" smooth="yes"/>
      <point x="73" y="508"/>
      <point x="28" y="421"/>
      <point x="28" y="358" type="curve"/>
      <point x="28" y="358"/>
      <point x="28" y="169"/>
      <point x="28" y="168" type="curve" smooth="yes"/>
      <point x="28" y="50"/>
      <point x="87" y="-11"/>
      <point x="233" y="-11" type="curve" smooth="yes"/>
      <point x="273" y="-11"/>
      <point x="412" y="-1"/>
    </contour>
    <contour>
      <point x="393" y="450" type="curve"/>
      <point x="393" y="450"/>
      <point x="393" y="18"/>
      <point x="393" y="18" type="curve"/>
      <point x="393" y="18"/>
      <point x="280" y="8"/>
      <point x="234" y="7" type="curve" smooth="yes"/>
      <point x="77" y="4"/>
      <point x="48" y="89"/>
      <point x="48" y="161" type="curve" smooth="yes"/>
      <point x="48" y="182"/>
      <point x="48" y="330"/>
      <point x="48" y="354" type="curve" smooth="yes"/>
      <point x="48" y="429"/>
      <point x="102" y="491"/>
      <point x="205" y="491" type="curve" smooth="yes"/>
      <point x="279" y="491"/>
      <point x="341" y="474"/>
    </contour>
  </outline>
</glyph>
<glyph name="f" format="2">
  <advance width="246"/>
  <unicode hex="0066"/>
  <outline>
    <contour>
      <point x="219" y="687" type="curve"/>
      <point x="223" y="705" type="line"/>
      <point x="212" y="708"/>
      <point x="199" y="708"/>
      <point x="187" y="708" type="curve" smooth="yes"/>
      <point x="117" y="708"/>
      <point x="39" y="670"/>
      <point x="39" y="548" type="curve" smooth="yes"/>
      <point x="39" y="0" type="line"/>
      <point x="59" y="0" type="line"/>
      <point x="59" y="482" type="line"/>
      <point x="202" y="482" type="line"/>
      <point x="209" y="498" type="line"/>
      <point x="59" y="498" type="line"/>
      <point x="59" y="546"/>
      <point x="59" y="547"/>
      <point x="59" y="548" type="curve" smooth="yes"/>
      <point x="59" y="662"/>
      <point x="131" y="693"/>
      <point x="193" y="691" type="curve" smooth="yes"/>
      <point x="202" y="691"/>
      <point x="210" y="689"/>
    </contour>
  </outline>
</glyph>
<glyph name="g" format="2">
  <advance width="437"/>
  <unicode hex="0067"/>
  <outline>
    <contour>
      <point x="398" y="-64" type="curve" smooth="yes"/>
      <point x="398" y="498" type="line"/>
      <point x="378" y="498" type="line"/>
      <point x="378" y="451" type="line"/>
      <point x="328" y="487"/>
      <point x="251" y="506"/>
      <point x="204" y="508" type="curve" smooth="yes"/>
      <point x="94" y="513"/>
      <point x="29" y="450"/>
      <point x="29" y="344" type="curve" smooth="yes"/>
      <point x="29" y="175" type="line" smooth="yes"/>
      <point x="29" y="53"/>
      <point x="92" y="-12"/>
      <point x="203" y="-12" type="curve" smooth="yes"/>
      <point x="264" y="-12"/>
      <point x="355" y="22"/>
      <point x="378" y="80" type="curve"/>
      <point x="378" y="-63" type="line" smooth="yes"/>
      <point x="378" y="-163"/>
      <point x="315" y="-180"/>
      <point x="284" y="-193" type="curve"/>
      <point x="290" y="-210" type="line"/>
      <point x="366" y="-186"/>
      <point x="398" y="-144"/>
    </contour>
    <contour>
      <point x="378" y="426" type="curve"/>
      <point x="378" y="147" type="line" smooth="yes"/>
      <point x="378" y="50"/>
      <point x="276" y="2"/>
      <point x="188" y="8" type="curve" smooth="yes"/>
      <point x="103" y="12"/>
      <point x="49" y="67"/>
      <point x="49" y="168" type="curve" smooth="yes"/>
      <point x="49" y="346" type="line" smooth="yes"/>
      <point x="49" y="450"/>
      <point x="116" y="486"/>
      <point x="188" y="488" type="curve" smooth="yes"/>
      <point x="245" y="491"/>
      <point x="335" y="470"/>
    </contour>
  </outline>
</glyph>
<glyph name="h" format="2">
  <advance width="442"/>
  <unicode hex="0068"/>
  <outline>
    <contour>
      <point x="61" y="471" type="curve"/>
      <point x="61" y="698" type="line"/>
      <point x="41" y="698" type="line"/>
      <point x="41" y="0" type="line"/>
      <point x="61" y="0" type="line"/>
      <point x="61" y="453" type="line"/>
      <point x="97" y="471"/>
      <point x="161" y="490"/>
      <point x="219" y="493" type="curve" smooth="yes"/>
      <point x="327" y="498"/>
      <point x="391" y="459"/>
      <point x="391" y="346" type="curve" smooth="yes"/>
      <point x="391" y="0" type="line"/>
      <point x="410" y="0" type="line"/>
      <point x="410" y="345" type="line" smooth="yes"/>
      <point x="410" y="501"/>
      <point x="293" y="514"/>
      <point x="206" y="508" type="curve" smooth="yes"/>
      <point x="154" y="505"/>
      <point x="93" y="485"/>
    </contour>
  </outline>
</glyph>
<glyph name="i" format="2">
  <advance width="116"/>
  <unicode hex="0069"/>
  <outline>
    <contour>
      <point x="47" y="0" type="line"/>
      <point x="66" y="0" type="line"/>
      <point x="66" y="499" type="line"/>
      <point x="47" y="499" type="line"/>
    </contour>
    <contour>
      <point x="57" y="708" type="curve" smooth="yes"/>
      <point x="47" y="708"/>
      <point x="40" y="701"/>
      <point x="40" y="691" type="curve" smooth="yes"/>
      <point x="40" y="682"/>
      <point x="47" y="674"/>
      <point x="57" y="674" type="curve" smooth="yes"/>
      <point x="66" y="674"/>
      <point x="74" y="682"/>
      <point x="74" y="691" type="curve" smooth="yes"/>
      <point x="74" y="701"/>
      <point x="66" y="708"/>
    </contour>
  </outline>
</glyph>
<glyph name="j" format="2">
  <advance width="181"/>
  <unicode hex="006A"/>
  <outline>
    <contour>
      <point x="131" y="-68" type="curve" smooth="yes"/>
      <point x="131" y="499" type="line"/>
      <point x="29" y="499" type="line"/>
      <point x="29" y="481" type="line"/>
      <point x="114" y="481" type="line"/>
      <point x="114" y="-67" type="line" smooth="yes"/>
      <point x="114" y="-112"/>
      <point x="103" y="-143"/>
      <point x="82" y="-161" type="curve" smooth="yes"/>
      <point x="59" y="-179"/>
      <point x="50" y="-184"/>
      <point x="19" y="-196" type="curve"/>
      <point x="25" y="-213" type="line"/>
      <point x="55" y="-204"/>
      <point x="79" y="-191"/>
      <point x="96" y="-175" type="curve"/>
      <point x="120" y="-150"/>
      <point x="131" y="-116"/>
    </contour>
    <contour>
      <point x="139" y="691" type="curve" smooth="yes"/>
      <point x="139" y="701"/>
      <point x="133" y="707"/>
      <point x="123" y="707" type="curve" smooth="yes"/>
      <point x="114" y="707"/>
      <point x="106" y="701"/>
      <point x="106" y="691" type="curve" smooth="yes"/>
      <point x="106" y="682"/>
      <point x="114" y="674"/>
      <point x="123" y="674" type="curve" smooth="yes"/>
      <point x="133" y="674"/>
      <point x="139" y="682"/>
    </contour>
  </outline>
</glyph>
<glyph name="k" format="2">
  <advance width="424"/>
  <unicode hex="006B"/>
  <outline>
    <contour>
      <point x="173" y="378" type="curve"/>
      <point x="310" y="506" type="line"/>
      <point x="297" y="518" type="line"/>
      <point x="61" y="300" type="line"/>
      <point x="61" y="698" type="line"/>
      <point x="41" y="698" type="line"/>
      <point x="41" y="0" type="line"/>
      <point x="61" y="0" type="line"/>
      <point x="61" y="276" type="line"/>
      <point x="159" y="365" type="line"/>
      <point x="384" y="0" type="line"/>
      <point x="407" y="0" type="line"/>
      <point x="321" y="135"/>
      <point x="243" y="262"/>
    </contour>
  </outline>
</glyph>
<glyph name="l" format="2">
  <advance width="104"/>
  <unicode hex="006C"/>
  <outline>
    <contour>
      <point x="41" y="0" type="line"/>
      <point x="61" y="0" type="line"/>
      <point x="61" y="698" type="line"/>
      <point x="41" y="698" type="line"/>
    </contour>
  </outline>
</glyph>
<glyph name="n" format="1">
  <advance width="442"/>
  <unicode hex="006E"/>
  <outline>
    <contour>
      <point x="388" y="345" type="curve" smooth="yes"/>
      <point x="388" y="0" type="line"/>
      <point x="406" y="0" type="line"/>
      <point x="406" y="344" type="line" smooth="yes"/>
      <point x="406" y="501"/>
      <point x="290" y="514"/>
      <point x="203" y="508" type="curve" smooth="yes"/>
      <point x="151" y="505"/>
      <point x="89" y="485"/>
      <point x="57" y="471" type="curve"/>
      <point x="57" y="499" type="line"/>
      <point x="38" y="499" type="line"/>
      <point x="38" y="0" type="line"/>
      <point x="57" y="0" type="line"/>
      <point x="57" y="452" type="line"/>
      <point x="94" y="471"/>
      <point x="158" y="490"/>
      <point x="216" y="493" type="curve" smooth="yes"/>
      <point x="324" y="498"/>
      <point x="388" y="459"/>
    </contour>
    <contour>
      <point x="221" y="545" type="move" name="top"/>
    </contour>
    <contour>
      <point x="221" y="0" type="move" name="bottom"/>
    </contour>
  </outline>
</glyph>
<glyph name="o" format="2">
  <advance width="426"/>
  <unicode hex="006F"/>
  <outline>
    <contour>
      <point x="396" y="184" type="curve" smooth="yes"/>
      <point x="396" y="315" type="line" smooth="yes"/>
      <point x="396" y="436"/>
      <point x="333" y="510"/>
      <point x="214" y="510" type="curve" smooth="yes"/>
      <point x="95" y="510"/>
      <point x="27" y="442"/>
      <point x="27" y="315" type="curve" smooth="yes"/>
      <point x="27" y="184" type="line" smooth="yes"/>
      <point x="27" y="77"/>
      <point x="86" y="-10"/>
      <point x="214" y="-10" type="curve" smooth="yes"/>
      <point x="337" y="-10"/>
      <point x="396" y="71"/>
    </contour>
    <contour>
      <point x="377" y="319" type="curve" smooth="yes"/>
      <point x="377" y="184" type="line" smooth="yes"/>
      <point x="377" y="84"/>
      <point x="328" y="8"/>
      <point x="214" y="8" type="curve" smooth="yes"/>
      <point x="103" y="8"/>
      <point x="47" y="85"/>
      <point x="47" y="184" type="curve" smooth="yes"/>
      <point x="47" y="319" type="line" smooth="yes"/>
      <point x="47" y="442"/>
      <point x="118" y="492"/>
      <point x="214" y="492" type="curve" smooth="yes"/>
      <point x="309" y="492"/>
      <point x="377" y="433"/>
    </contour>
  </outline>
</glyph>
<glyph name="q" format="2">
  <advance width="436"/>
  <unicode hex="0071"/>
  <outline>
    <contour>
      <point x="378" y="81" type="curve"/>
      <point x="378" y="-207" type="line"/>
      <point x="397" y="-211" type="line"/>
      <point x="397" y="498" type="line"/>
      <point x="378" y="498" type="line"/>
      <point x="378" y="451" type="line"/>
      <point x="328" y="488"/>
      <point x="251" y="507"/>
      <point x="204" y="509" type="curve" smooth="yes"/>
      <point x="94" y="514"/>
      <point x="29" y="450"/>
      <point x="29" y="345" type="curve" smooth="yes"/>
      <point x="29" y="176" type="line" smooth="yes"/>
      <point x="29" y="54"/>
      <point x="92" y="-11"/>
      <point x="203" y="-11" type="curve" smooth="yes"/>
      <point x="264" y="-11"/>
      <point x="341" y="14"/>
    </contour>
    <contour>
      <point x="378" y="427" type="curve"/>
      <point x="378" y="148" type="line" smooth="yes"/>
      <point x="378" y="51"/>
      <point x="267" y="0"/>
      <point x="188" y="4" type="curve" smooth="yes"/>
      <point x="103" y="11"/>
      <point x="49" y="68"/>
      <point x="49" y="169" type="curve" smooth="yes"/>
      <point x="49" y="348" type="line" smooth="yes"/>
      <point x="49" y="451"/>
      <point x="116" y="491"/>
      <point x="188" y="493" type="curve" smooth="yes"/>
      <point x="245" y="495"/>
      <point x="345" y="459"/>
    </contour>
  </outline>
</glyph>
<glyph name="r" format="1">
  <advance width="329"/>
  <unicode hex="0072"/>
  <outline>
    <contour>
      <point x="308" y="490" type="curve"/>
      <point x="309" y="506" type="line"/>
      <point x="295" y="510"/>
      <point x="280" y="513"/>
      <point x="264" y="513" type="curve" smooth="yes"/>
      <point x="207" y="513"/>
      <point x="139" y="488"/>
      <point x="57" y="453" type="curve"/>
      <point x="57" y="499" type="line"/>
      <point x="38" y="499" type="line"/>
      <point x="38" y="0" type="line"/>
      <point x="57" y="0" type="line"/>
      <point x="57" y="432" type="line"/>
      <point x="155" y="476"/>
      <point x="212" y="494"/>
      <point x="262" y="494" type="curve" smooth="yes"/>
      <point x="277" y="494"/>
      <point x="293" y="493"/>
    </contour>
    <contour>
      <point x="164" y="545" type="move" name="top"/>
    </contour>
    <contour>
      <point x="164" y="0" type="move" name="bottom"/>
    </contour>
  </outline>
</glyph>
<glyph name="s" format="2">
  <advance width="405"/>
  <unicode hex="0073"/>
  <outline>
    <contour>
      <point x="323" y="460" type="curve"/>
      <point x="334" y="474" type="line"/>
      <point x="332" y="475"/>
      <point x="283" y="510"/>
      <point x="208" y="510" type="curve" smooth="yes"/>
      <point x="173" y="510"/>
      <point x="134" y="502"/>
      <point x="103" y="483" type="curve" smooth="yes"/>
      <point x="74" y="464"/>
      <point x="53" y="436"/>
      <point x="50" y="395" type="curve" smooth="yes"/>
      <point x="48" y="352"/>
      <point x="67" y="323"/>
      <point x="98" y="300" type="curve"/>
      <point x="128" y="280"/>
      <point x="168" y="265"/>
      <point x="215" y="249" type="curve" smooth="yes"/>
      <point x="267" y="230"/>
      <point x="302" y="212"/>
      <point x="324" y="194" type="curve"/>
      <point x="352" y="168"/>
      <point x="360" y="143"/>
      <point x="358" y="114" type="curve" smooth="yes"/>
      <point x="357" y="90"/>
      <point x="347" y="64"/>
      <point x="325" y="43" type="curve" smooth="yes"/>
      <point x="301" y="20"/>
      <point x="261" y="2"/>
      <point x="202" y="2" type="curve" smooth="yes"/>
      <point x="164" y="2"/>
      <point x="134" y="10"/>
      <point x="108" y="22" type="curve" smooth="yes"/>
      <point x="76" y="37"/>
      <point x="54" y="59"/>
      <point x="38" y="81" type="curve"/>
      <point x="25" y="68" type="line"/>
      <point x="43" y="44"/>
      <point x="68" y="21"/>
      <point x="103" y="4" type="curve" smooth="yes"/>
      <point x="129" y="-8"/>
      <point x="162" y="-15"/>
      <point x="202" y="-15" type="curve" smooth="yes"/>
      <point x="263" y="-15"/>
      <point x="306" y="1"/>
      <point x="335" y="26" type="curve"/>
      <point x="362" y="52"/>
      <point x="375" y="84"/>
      <point x="377" y="113" type="curve" smooth="yes"/>
      <point x="378" y="147"/>
      <point x="370" y="178"/>
      <point x="335" y="208" type="curve" smooth="yes"/>
      <point x="312" y="228"/>
      <point x="275" y="246"/>
      <point x="221" y="266" type="curve" smooth="yes"/>
      <point x="173" y="283"/>
      <point x="137" y="297"/>
      <point x="112" y="315" type="curve"/>
      <point x="80" y="335"/>
      <point x="67" y="359"/>
      <point x="69" y="394" type="curve" smooth="yes"/>
      <point x="71" y="430"/>
      <point x="91" y="454"/>
      <point x="117" y="470" type="curve"/>
      <point x="145" y="485"/>
      <point x="178" y="492"/>
      <point x="208" y="492" type="curve" smooth="yes"/>
      <point x="277" y="492"/>
      <point x="323" y="460"/>
    </contour>
  </outline>
</glyph>
<glyph name="t" format="2">
  <advance width="238"/>
  <unicode hex="0074"/>
  <outline>
    <contour>
      <point x="59" y="132" type="curve" smooth="yes"/>
      <point x="59" y="481" type="line"/>
      <point x="206" y="481" type="line"/>
      <point x="215" y="499" type="line"/>
      <point x="59" y="499" type="line"/>
      <point x="59" y="698" type="line"/>
      <point x="39" y="698" type="line"/>
      <point x="39" y="132" type="line" smooth="yes"/>
      <point x="39" y="53"/>
      <point x="70" y="8"/>
      <point x="144" y="-13" type="curve"/>
      <point x="151" y="4" type="line"/>
      <point x="84" y="26"/>
      <point x="59" y="58"/>
    </contour>
  </outline>
</glyph>
<glyph name="y" format="2">
  <advance width="459"/>
  <unicode hex="0079"/>
  <outline>
    <contour>
      <point x="429" y="499" type="curve"/>
      <point x="416" y="510" type="line"/>
      <point x="392" y="485"/>
      <point x="386" y="465"/>
      <point x="386" y="418" type="curve" smooth="yes"/>
      <point x="386" y="169" type="line" smooth="yes"/>
      <point x="386" y="88"/>
      <point x="324" y="16"/>
      <point x="228" y="10" type="curve" smooth="yes"/>
      <point x="121" y="2"/>
      <point x="54" y="44"/>
      <point x="54" y="156" type="curve" smooth="yes"/>
      <point x="54" y="499" type="line"/>
      <point x="34" y="499" type="line"/>
      <point x="34" y="157" type="line" smooth="yes"/>
      <point x="34" y="1"/>
      <point x="155" y="-12"/>
      <point x="229" y="-8" type="curve" smooth="yes"/>
      <point x="291" y="-3"/>
      <point x="360" y="30"/>
      <point x="386" y="99" type="curve"/>
      <point x="386" y="-66" type="line" smooth="yes"/>
      <point x="386" y="-110"/>
      <point x="375" y="-142"/>
      <point x="354" y="-160" type="curve" smooth="yes"/>
      <point x="331" y="-178"/>
      <point x="322" y="-183"/>
      <point x="292" y="-195" type="curve"/>
      <point x="298" y="-212" type="line"/>
      <point x="328" y="-202"/>
      <point x="351" y="-190"/>
      <point x="368" y="-174" type="curve" smooth="yes"/>
      <point x="393" y="-149"/>
      <point x="403" y="-114"/>
      <point x="403" y="-67" type="curve" smooth="yes"/>
      <point x="403" y="417" type="line" smooth="yes"/>
      <point x="403" y="461"/>
      <point x="408" y="482"/>
    </contour>
  </outline>
</glyph>
<glyph name="z" format="2">
  <advance width="421"/>
  <unicode hex="007A"/>
  <outline>
    <contour>
      <point x="375" y="499" type="line"/>
      <point x="38" y="499" type="line"/>
      <point x="38" y="481" type="line"/>
      <point x="351" y="481" type="line"/>
      <point x="29" y="19" type="line"/>
      <point x="29" y="0" type="line"/>
      <point x="395" y="0" type="line"/>
      <point x="395" y="19" type="line"/>
      <point x="52" y="19" type="line"/>
      <point x="375" y="481" type="line"/>
    </contour>
  </outline>
</glyph>
<glyph name="braceleft" format="2">
  <advance width="235"/>
  <unicode hex="007B"/>
  <outline>
    <contour>
      <point x="124" y="515" type="curve" smooth="yes"/>
      <point x="124" y="628" type="line" smooth="yes"/>
      <point x="124" y="773"/>
      <point x="216" y="800"/>
      <point x="219" y="801" type="curve"/>
      <point x="216" y="820" type="line"/>
      <point x="212" y="818"/>
      <point x="106" y="789"/>
      <point x="106" y="628" type="curve" smooth="yes"/>
      <point x="106" y="515" type="line" smooth="yes"/>
      <point x="106" y="459"/>
      <point x="100" y="408"/>
      <point x="37" y="360" type="curve" smooth="yes"/>
      <point x="26" y="352" type="line"/>
      <point x="37" y="344" type="line" smooth="yes"/>
      <point x="100" y="295"/>
      <point x="106" y="245"/>
      <point x="106" y="189" type="curve" smooth="yes"/>
      <point x="106" y="76" type="line" smooth="yes"/>
      <point x="106" y="-85"/>
      <point x="212" y="-116"/>
      <point x="216" y="-117" type="curve"/>
      <point x="220" y="-98" type="line"/>
      <point x="216" y="-97"/>
      <point x="124" y="-69"/>
      <point x="124" y="76" type="curve" smooth="yes"/>
      <point x="124" y="189" type="line" smooth="yes"/>
      <point x="124" y="245"/>
      <point x="118" y="300"/>
      <point x="56" y="352" type="curve"/>
      <point x="118" y="404"/>
      <point x="124" y="459"/>
    </contour>
  </outline>
</glyph>
<glyph name="bar" format="1">
  <advance width="103"/>
  <unicode hex="007C"/>
  <outline>
    <contour>
      <point x="42" y="-113" type="line"/>
      <point x="60" y="-113" type="line"/>
      <point x="60" y="815" type="line"/>
      <point x="42" y="815" type="line"/>
    </contour>
  </outline>
</glyph>
<glyph name="braceright" format="2">
  <advance width="238"/>
  <unicode hex="007D"/>
  <outline>
    <contour>
      <point x="20" y="820" type="curve"/>
      <point x="15" y="801" type="line"/>
      <point x="19" y="800"/>
      <point x="112" y="773"/>
      <point x="112" y="628" type="curve" smooth="yes"/>
      <point x="112" y="515" type="line" smooth="yes"/>
      <point x="112" y="459"/>
      <point x="118" y="404"/>
      <point x="179" y="352" type="curve"/>
      <point x="118" y="300"/>
      <point x="112" y="245"/>
      <point x="112" y="189" type="curve" smooth="yes"/>
      <point x="112" y="76" type="line" smooth="yes"/>
      <point x="112" y="-69"/>
      <point x="19" y="-97"/>
      <point x="15" y="-98" type="curve"/>
      <point x="19" y="-117" type="line"/>
      <point x="23" y="-116"/>
      <point x="129" y="-85"/>
      <point x="129" y="76" type="curve" smooth="yes"/>
      <point x="129" y="189" type="line" smooth="yes"/>
      <point x="129" y="245"/>
      <point x="134" y="295"/>
      <point x="198" y="344" type="curve" smooth="yes"/>
      <point x="209" y="352" type="line"/>
      <point x="198" y="360" type="line" smooth="yes"/>
      <point x="134" y="408"/>
      <point x="129" y="459"/>
      <point x="129" y="515" type="curve" smooth="yes"/>
      <point x="129" y="628" type="line" smooth="yes"/>
      <point x="129" y="789"/>
      <point x="24" y="818"/>
    </contour>
  </outline>
</glyph>
<glyph name="exclamdown" format="2">
  <advance width="116"/>
  <unicode hex="00A1"/>
  <outline>
    <contour>
      <point x="73" y="18" type="curve" smooth="yes"/>
      <point x="65" y="588" type="line"/>
      <point x="50" y="588" type="line"/>
      <point x="41" y="18" type="line"/>
      <point x="41" y="7"/>
      <point x="50" y="0"/>
      <point x="58" y="0" type="curve" smooth="yes"/>
      <point x="69" y="0"/>
      <point x="73" y="7"/>
    </contour>
    <contour>
      <point x="74" y="691" type="curve" smooth="yes"/>
      <point x="74" y="701"/>
      <point x="66" y="708"/>
      <point x="58" y="708" type="curve" smooth="yes"/>
      <point x="48" y="708"/>
      <point x="40" y="701"/>
      <point x="40" y="691" type="curve" smooth="yes"/>
      <point x="40" y="682"/>
      <point x="48" y="674"/>
      <point x="58" y="674" type="curve" smooth="yes"/>
      <point x="66" y="674"/>
      <point x="74" y="682"/>
    </contour>
  </outline>
</glyph>
<glyph name="cent" format="2">
  <advance width="380"/>
  <unicode hex="00A2"/>
  <outline>
    <contour>
      <point x="341" y="457" type="curve"/>
      <point x="348" y="476" type="line"/>
      <point x="289" y="504"/>
      <point x="223" y="516"/>
      <point x="166" y="504" type="curve" smooth="yes"/>
      <point x="121" y="494"/>
      <point x="82" y="470"/>
      <point x="57" y="426" type="curve" smooth="yes"/>
      <point x="37" y="394"/>
      <point x="31" y="362"/>
      <point x="29" y="318" type="curve"/>
      <point x="29" y="173" type="line" smooth="yes"/>
      <point x="29" y="75"/>
      <point x="73" y="23"/>
      <point x="141" y="1" type="curve" smooth="yes"/>
      <point x="200" y="-18"/>
      <point x="283" y="-13"/>
      <point x="350" y="5" type="curve"/>
      <point x="345" y="25" type="line"/>
      <point x="345" y="25"/>
      <point x="231" y="-9"/>
      <point x="142" y="21" type="curve" smooth="yes"/>
      <point x="70" y="45"/>
      <point x="47" y="98"/>
      <point x="47" y="175" type="curve" smooth="yes"/>
      <point x="47" y="312" type="line" smooth="yes"/>
      <point x="47" y="355"/>
      <point x="57" y="389"/>
      <point x="74" y="416" type="curve" smooth="yes"/>
      <point x="96" y="453"/>
      <point x="131" y="476"/>
      <point x="174" y="485" type="curve" smooth="yes"/>
      <point x="223" y="496"/>
      <point x="283" y="486"/>
    </contour>
    <contour>
      <point x="198" y="-113" type="line"/>
      <point x="215" y="-113" type="line"/>
      <point x="215" y="621" type="line"/>
      <point x="198" y="621" type="line"/>
    </contour>
  </outline>
</glyph>
<glyph name="sterling" format="2">
  <advance width="424"/>
  <unicode hex="00A3"/>
  <outline>
    <contour>
      <point x="136" y="16" type="curve" smooth="yes"/>
      <point x="33" y="16" type="line"/>
      <point x="33" y="0" type="line"/>
      <point x="391" y="0" type="line"/>
      <point x="391" y="16" type="line"/>
      <point x="224" y="16" type="line"/>
      <point x="256" y="29"/>
      <point x="285" y="51"/>
      <point x="301" y="86" type="curve" smooth="yes"/>
      <point x="340" y="167"/>
      <point x="310" y="251"/>
      <point x="241" y="329" type="curve" smooth="yes"/>
      <point x="228" y="344"/>
      <point x="214" y="359"/>
      <point x="200" y="375" type="curve"/>
      <point x="391" y="375" type="line"/>
      <point x="391" y="396" type="line"/>
      <point x="181" y="396" type="line"/>
      <point x="172" y="405"/>
      <point x="166" y="414"/>
      <point x="160" y="420" type="curve"/>
      <point x="80" y="509"/>
      <point x="69" y="561"/>
      <point x="92" y="617" type="curve" smooth="yes"/>
      <point x="112" y="663"/>
      <point x="161" y="686"/>
      <point x="203" y="689" type="curve" smooth="yes"/>
      <point x="257" y="692"/>
      <point x="309" y="675"/>
      <point x="352" y="650" type="curve"/>
      <point x="358" y="667" type="line"/>
      <point x="307" y="695"/>
      <point x="247" y="712"/>
      <point x="196" y="705" type="curve"/>
      <point x="147" y="701"/>
      <point x="101" y="678"/>
      <point x="77" y="627" type="curve" smooth="yes"/>
      <point x="39" y="549"/>
      <point x="82" y="480"/>
      <point x="144" y="408" type="curve"/>
      <point x="147" y="404"/>
      <point x="152" y="400"/>
      <point x="155" y="396" type="curve"/>
      <point x="33" y="396" type="line"/>
      <point x="33" y="375" type="line"/>
      <point x="174" y="375" type="line"/>
      <point x="193" y="353"/>
      <point x="212" y="332"/>
      <point x="226" y="316" type="curve" smooth="yes"/>
      <point x="292" y="243"/>
      <point x="313" y="164"/>
      <point x="284" y="97" type="curve" smooth="yes"/>
      <point x="256" y="34"/>
      <point x="192" y="16"/>
    </contour>
  </outline>
</glyph>
<glyph name="currency" format="2">
  <advance width="443"/>
  <unicode hex="00A4"/>
  <outline>
    <contour>
      <point x="329" y="378" type="curve"/>
      <point x="410" y="459" type="line"/>
      <point x="397" y="472" type="line"/>
      <point x="317" y="392" type="line"/>
      <point x="291" y="414"/>
      <point x="257" y="428"/>
      <point x="221" y="428" type="curve" smooth="yes"/>
      <point x="183" y="428"/>
      <point x="149" y="415"/>
      <point x="124" y="392" type="curve"/>
      <point x="44" y="472" type="line"/>
      <point x="31" y="459" type="line"/>
      <point x="111" y="378" type="line"/>
      <point x="89" y="353"/>
      <point x="76" y="319"/>
      <point x="76" y="283" type="curve" smooth="yes"/>
      <point x="76" y="245"/>
      <point x="89" y="212"/>
      <point x="111" y="186" type="curve"/>
      <point x="31" y="106" type="line"/>
      <point x="44" y="92" type="line"/>
      <point x="124" y="173" type="line"/>
      <point x="150" y="151"/>
      <point x="183" y="137"/>
      <point x="221" y="137" type="curve" smooth="yes"/>
      <point x="257" y="137"/>
      <point x="290" y="151"/>
      <point x="315" y="173" type="curve"/>
      <point x="397" y="92" type="line"/>
      <point x="410" y="106" type="line"/>
      <point x="329" y="186" type="line"/>
      <point x="352" y="212"/>
      <point x="365" y="245"/>
      <point x="365" y="283" type="curve" smooth="yes"/>
      <point x="365" y="319"/>
      <point x="351" y="353"/>
    </contour>
    <contour>
      <point x="221" y="157" type="curve" smooth="yes"/>
      <point x="152" y="157"/>
      <point x="95" y="213"/>
      <point x="95" y="283" type="curve" smooth="yes"/>
      <point x="95" y="351"/>
      <point x="152" y="407"/>
      <point x="221" y="407" type="curve" smooth="yes"/>
      <point x="289" y="407"/>
      <point x="345" y="351"/>
      <point x="345" y="283" type="curve" smooth="yes"/>
      <point x="345" y="213"/>
      <point x="289" y="157"/>
    </contour>
  </outline>
</glyph>
<glyph name="dieresis" format="2">
  <advance width="266"/>
  <unicode hex="00A8"/>
  <outline>
    <contour>
      <point x="54" y="724" type="curve" smooth="yes"/>
      <point x="45" y="724"/>
      <point x="37" y="716"/>
      <point x="37" y="706" type="curve" smooth="yes"/>
      <point x="37" y="697"/>
      <point x="45" y="690"/>
      <point x="54" y="690" type="curve" smooth="yes"/>
      <point x="64" y="690"/>
      <point x="71" y="697"/>
      <point x="71" y="706" type="curve" smooth="yes"/>
      <point x="71" y="716"/>
      <point x="64" y="724"/>
    </contour>
    <contour>
      <point x="212" y="724" type="curve" smooth="yes"/>
      <point x="203" y="724"/>
      <point x="196" y="716"/>
      <point x="196" y="706" type="curve" smooth="yes"/>
      <point x="196" y="697"/>
      <point x="203" y="690"/>
      <point x="212" y="690" type="curve" smooth="yes"/>
      <point x="221" y="690"/>
      <point x="229" y="697"/>
      <point x="229" y="706" type="curve" smooth="yes"/>
      <point x="229" y="716"/>
      <point x="221" y="724"/>
    </contour>
  </outline>
</glyph>
<glyph name="copyright" format="2">
  <advance width="693"/>
  <unicode hex="00A9"/>
  <outline>
    <contour>
      <point x="661" y="191" type="curve" smooth="yes"/>
      <point x="661" y="319" type="line" smooth="yes"/>
      <point x="661" y="490"/>
      <point x="529" y="577"/>
      <point x="345" y="579" type="curve" smooth="yes"/>
      <point x="162" y="577"/>
      <point x="30" y="490"/>
      <point x="30" y="319" type="curve" smooth="yes"/>
      <point x="30" y="191" type="line" smooth="yes"/>
      <point x="30" y="20"/>
      <point x="162" y="-67"/>
      <point x="345" y="-68" type="curve" smooth="yes"/>
      <point x="529" y="-67"/>
      <point x="661" y="20"/>
    </contour>
    <contour>
      <point x="644" y="316" type="curve" smooth="yes"/>
      <point x="644" y="194" type="line" smooth="yes"/>
      <point x="644" y="33"/>
      <point x="519" y="-51"/>
      <point x="345" y="-52" type="curve" smooth="yes"/>
      <point x="171" y="-51"/>
      <point x="46" y="33"/>
      <point x="46" y="194" type="curve" smooth="yes"/>
      <point x="46" y="316" type="line" smooth="yes"/>
      <point x="46" y="477"/>
      <point x="171" y="561"/>
      <point x="345" y="561" type="curve" smooth="yes"/>
      <point x="519" y="561"/>
      <point x="644" y="477"/>
    </contour>
    <contour>
      <point x="492" y="404" type="curve"/>
      <point x="500" y="420" type="line"/>
      <point x="459" y="442"/>
      <point x="412" y="453"/>
      <point x="358" y="453" type="curve" smooth="yes"/>
      <point x="317" y="453"/>
      <point x="280" y="446"/>
      <point x="252" y="428" type="curve" smooth="yes"/>
      <point x="194" y="393"/>
      <point x="165" y="350"/>
      <point x="165" y="249" type="curve" smooth="yes"/>
      <point x="165" y="165"/>
      <point x="198" y="110"/>
      <point x="246" y="82" type="curve"/>
      <point x="295" y="58"/>
      <point x="342" y="58"/>
      <point x="363" y="58" type="curve" smooth="yes"/>
      <point x="415" y="58"/>
      <point x="469" y="68"/>
      <point x="525" y="90" type="curve"/>
      <point x="519" y="109" type="line"/>
      <point x="460" y="86"/>
      <point x="408" y="75"/>
      <point x="370" y="75" type="curve" smooth="yes"/>
      <point x="331" y="75"/>
      <point x="288" y="80"/>
      <point x="256" y="99" type="curve" smooth="yes"/>
      <point x="214" y="125"/>
      <point x="186" y="174"/>
      <point x="186" y="254" type="curve" smooth="yes"/>
      <point x="186" y="316"/>
      <point x="206" y="364"/>
      <point x="231" y="388" type="curve"/>
      <point x="255" y="414"/>
      <point x="301" y="435"/>
      <point x="362" y="435" type="curve" smooth="yes"/>
      <point x="403" y="435"/>
      <point x="445" y="425"/>
    </contour>
  </outline>
</glyph>
<glyph name="registered" format="2">
  <advance width="693"/>
  <unicode hex="00AE"/>
  <outline>
    <contour>
      <point x="661" y="191" type="curve" smooth="yes"/>
      <point x="661" y="319" type="line" smooth="yes"/>
      <point x="661" y="490"/>
      <point x="529" y="577"/>
      <point x="345" y="579" type="curve" smooth="yes"/>
      <point x="162" y="577"/>
      <point x="30" y="490"/>
      <point x="30" y="319" type="curve" smooth="yes"/>
      <point x="30" y="191" type="line" smooth="yes"/>
      <point x="30" y="20"/>
      <point x="162" y="-67"/>
      <point x="345" y="-68" type="curve" smooth="yes"/>
      <point x="529" y="-67"/>
      <point x="661" y="20"/>
    </contour>
    <contour>
      <point x="644" y="316" type="curve" smooth="yes"/>
      <point x="644" y="194" type="line" smooth="yes"/>
      <point x="644" y="33"/>
      <point x="519" y="-51"/>
      <point x="345" y="-52" type="curve" smooth="yes"/>
      <point x="171" y="-51"/>
      <point x="46" y="33"/>
      <point x="46" y="194" type="curve" smooth="yes"/>
      <point x="46" y="316" type="line" smooth="yes"/>
      <point x="46" y="477"/>
      <point x="171" y="561"/>
      <point x="345" y="561" type="curve" smooth="yes"/>
      <point x="519" y="561"/>
      <point x="644" y="477"/>
    </contour>
    <contour>
      <point x="421" y="442" type="curve" smooth="yes"/>
      <point x="186" y="442" type="line"/>
      <point x="186" y="59" type="line"/>
      <point x="206" y="59" type="line"/>
      <point x="206" y="212" type="line"/>
      <point x="419" y="212" type="line"/>
      <point x="502" y="59" type="line"/>
      <point x="522" y="59" type="line"/>
      <point x="440" y="215" type="line"/>
      <point x="495" y="219"/>
      <point x="526" y="246"/>
      <point x="526" y="328" type="curve" smooth="yes"/>
      <point x="525" y="418"/>
      <point x="484" y="442"/>
    </contour>
    <contour>
      <point x="429" y="232" type="curve" smooth="yes"/>
      <point x="206" y="232" type="line"/>
      <point x="206" y="422" type="line"/>
      <point x="429" y="422" type="line" smooth="yes"/>
      <point x="486" y="422"/>
      <point x="507" y="393"/>
      <point x="508" y="327" type="curve" smooth="yes"/>
      <point x="508" y="262"/>
      <point x="489" y="232"/>
    </contour>
  </outline>
</glyph>
<glyph name="overscore" format="2">
  <advance width="266"/>
  <unicode hex="00AF"/>
  <outline>
    <contour>
      <point x="243" y="675" type="line"/>
      <point x="23" y="675" type="line"/>
      <point x="23" y="656" type="line"/>
      <point x="243" y="656" type="line"/>
    </contour>
  </outline>
</glyph>
<glyph name="acute" format="2">
  <advance width="266"/>
  <unicode hex="00B4"/>
  <outline>
    <contour>
      <point x="199" y="686" type="line" smooth="yes"/>
      <point x="204" y="694"/>
      <point x="204" y="705"/>
      <point x="195" y="710" type="curve" smooth="yes"/>
      <point x="187" y="714"/>
      <point x="177" y="710"/>
      <point x="174" y="701" type="curve" smooth="yes"/>
      <point x="122" y="586" type="line"/>
      <point x="143" y="586" type="line"/>
    </contour>
  </outline>
</glyph>
<glyph name="mu" format="2">
  <advance width="460"/>
  <unicode hex="00B5"/>
  <outline>
    <contour>
      <point x="408" y="70" type="curve" smooth="yes"/>
      <point x="408" y="508" type="line"/>
      <point x="389" y="505" type="line"/>
      <point x="389" y="135" type="line" smooth="yes"/>
      <point x="389" y="53"/>
      <point x="337" y="5"/>
      <point x="246" y="5" type="curve" smooth="yes"/>
      <point x="135" y="5"/>
      <point x="65" y="80"/>
      <point x="57" y="90" type="curve"/>
      <point x="57" y="499" type="line"/>
      <point x="39" y="499" type="line"/>
      <point x="39" y="-200" type="line"/>
      <point x="57" y="-202" type="line"/>
      <point x="57" y="65" type="line"/>
      <point x="115" y="16"/>
      <point x="174" y="-11"/>
      <point x="246" y="-11" type="curve" smooth="yes"/>
      <point x="316" y="-11"/>
      <point x="367" y="16"/>
      <point x="389" y="59" type="curve"/>
      <point x="389" y="14"/>
      <point x="419" y="-2"/>
      <point x="419" y="-2" type="curve"/>
      <point x="430" y="10" type="line"/>
      <point x="411" y="26"/>
      <point x="408" y="41"/>
    </contour>
  </outline>
</glyph>
<glyph name="cedilla" format="2">
  <advance width="266"/>
  <unicode hex="00B8"/>
  <outline>
    <contour>
      <point x="150" y="0" type="line"/>
      <point x="129" y="0" type="line"/>
      <point x="100" y="-46" type="line"/>
      <point x="100" y="-67" type="line"/>
      <point x="121" y="-67"/>
      <point x="141" y="-67"/>
      <point x="157" y="-67" type="curve" smooth="yes"/>
      <point x="199" y="-67"/>
      <point x="229" y="-96"/>
      <point x="229" y="-136" type="curve" smooth="yes"/>
      <point x="229" y="-199"/>
      <point x="174" y="-206"/>
      <point x="157" y="-207" type="curve" smooth="yes"/>
      <point x="106" y="-210"/>
      <point x="63" y="-196"/>
      <point x="63" y="-196" type="curve"/>
      <point x="60" y="-204"/>
      <point x="59" y="-206"/>
      <point x="57" y="-213" type="curve"/>
      <point x="90" y="-221"/>
      <point x="113" y="-227"/>
      <point x="158" y="-226" type="curve" smooth="yes"/>
      <point x="201" y="-223"/>
      <point x="248" y="-198"/>
      <point x="248" y="-136" type="curve" smooth="yes"/>
      <point x="248" y="-86"/>
      <point x="209" y="-46"/>
      <point x="157" y="-46" type="curve"/>
      <point x="152" y="-46"/>
      <point x="146" y="-46"/>
      <point x="123" y="-46" type="curve"/>
    </contour>
  </outline>
</glyph>
<glyph name="guillemotright" format="2">
  <advance width="481"/>
  <unicode hex="00BB"/>
  <outline>
    <contour>
      <point x="204" y="266" type="line"/>
      <point x="32" y="96" type="line"/>
      <point x="46" y="79" type="line"/>
      <point x="233" y="266" type="line"/>
      <point x="46" y="453" type="line"/>
      <point x="31" y="440" type="line"/>
    </contour>
    <contour>
      <point x="423" y="266" type="line"/>
      <point x="251" y="96" type="line"/>
      <point x="266" y="79" type="line"/>
      <point x="452" y="266" type="line"/>
      <point x="266" y="453" type="line"/>
      <point x="250" y="440" type="line"/>
    </contour>
  </outline>
</glyph>
<glyph name="Agrave" format="2">
  <advance width="542"/>
  <unicode hex="00C0"/>
  <outline>
    <contour>
      <point x="524" y="0" type="line"/>
      <point x="279" y="698" type="line"/>
      <point x="265" y="698" type="line"/>
      <point x="20" y="0" type="line"/>
      <point x="40" y="0" type="line"/>
      <point x="138" y="280" type="line"/>
      <point x="405" y="280" type="line"/>
      <point x="503" y="0" type="line"/>
    </contour>
    <contour>
      <point x="146" y="299" type="line"/>
      <point x="272" y="658" type="line"/>
      <point x="399" y="299" type="line"/>
    </contour>
    <contour>
      <point x="202" y="840" type="curve"/>
      <point x="257" y="740" type="line"/>
      <point x="278" y="740" type="line"/>
      <point x="227" y="855" type="line" smooth="yes"/>
      <point x="223" y="864"/>
      <point x="214" y="869"/>
      <point x="205" y="864" type="curve" smooth="yes"/>
      <point x="196" y="859"/>
      <point x="196" y="849"/>
    </contour>
  </outline>
</glyph>
<glyph name="Aacute" format="2">
  <advance width="542"/>
  <unicode hex="00C1"/>
  <outline>
    <contour>
      <point x="524" y="0" type="line"/>
      <point x="279" y="698" type="line"/>
      <point x="265" y="698" type="line"/>
      <point x="20" y="0" type="line"/>
      <point x="40" y="0" type="line"/>
      <point x="138" y="280" type="line"/>
      <point x="405" y="280" type="line"/>
      <point x="503" y="0" type="line"/>
    </contour>
    <contour>
      <point x="146" y="299" type="line"/>
      <point x="272" y="658" type="line"/>
      <point x="399" y="299" type="line"/>
    </contour>
    <contour>
      <point x="322" y="871" type="curve" smooth="yes"/>
      <point x="264" y="741" type="line"/>
      <point x="288" y="741" type="line"/>
      <point x="350" y="856" type="line"/>
      <point x="356" y="865"/>
      <point x="356" y="877"/>
      <point x="346" y="882" type="curve" smooth="yes"/>
      <point x="337" y="887"/>
      <point x="326" y="881"/>
    </contour>
  </outline>
</glyph>
<glyph name="Acircumflex" format="2">
  <advance width="543"/>
  <unicode hex="00C2"/>
  <outline>
    <contour>
      <point x="524" y="0" type="line"/>
      <point x="279" y="698" type="line"/>
      <point x="265" y="698" type="line"/>
      <point x="20" y="0" type="line"/>
      <point x="40" y="0" type="line"/>
      <point x="138" y="280" type="line"/>
      <point x="406" y="280" type="line"/>
      <point x="503" y="0" type="line"/>
    </contour>
    <contour>
      <point x="146" y="299" type="line"/>
      <point x="272" y="658" type="line"/>
      <point x="399" y="299" type="line"/>
    </contour>
    <contour>
      <point x="156" y="756" type="line"/>
      <point x="170" y="741" type="line"/>
      <point x="278" y="846" type="line"/>
      <point x="384" y="741" type="line"/>
      <point x="399" y="757" type="line"/>
      <point x="278" y="875" type="line"/>
    </contour>
  </outline>
</glyph>
<glyph name="Atilde" format="2">
  <advance width="543"/>
  <unicode hex="00C3"/>
  <outline>
    <contour>
      <point x="524" y="0" type="line"/>
      <point x="279" y="698" type="line"/>
      <point x="265" y="698" type="line"/>
      <point x="20" y="0" type="line"/>
      <point x="40" y="0" type="line"/>
      <point x="138" y="280" type="line"/>
      <point x="405" y="280" type="line"/>
      <point x="503" y="0" type="line"/>
    </contour>
    <contour>
      <point x="146" y="299" type="line"/>
      <point x="272" y="658" type="line"/>
      <point x="399" y="299" type="line"/>
    </contour>
    <contour>
      <point x="394" y="787" type="curve"/>
      <point x="386" y="804" type="line"/>
      <point x="362" y="785"/>
      <point x="347" y="781"/>
      <point x="336" y="781" type="curve" smooth="yes"/>
      <point x="302" y="780"/>
      <point x="264" y="813"/>
      <point x="221" y="813" type="curve" smooth="yes"/>
      <point x="201" y="812"/>
      <point x="180" y="805"/>
      <point x="159" y="783" type="curve"/>
      <point x="170" y="766" type="line"/>
      <point x="175" y="771"/>
      <point x="193" y="790"/>
      <point x="218" y="791" type="curve" smooth="yes"/>
      <point x="257" y="791"/>
      <point x="293" y="759"/>
      <point x="335" y="759" type="curve"/>
      <point x="354" y="760"/>
      <point x="374" y="767"/>
    </contour>
  </outline>
</glyph>
<glyph name="Adieresis" format="2">
  <advance width="542"/>
  <unicode hex="00C4"/>
  <outline>
    <contour>
      <point x="524" y="0" type="line"/>
      <point x="279" y="698" type="line"/>
      <point x="265" y="698" type="line"/>
      <point x="20" y="0" type="line"/>
      <point x="40" y="0" type="line"/>
      <point x="138" y="280" type="line"/>
      <point x="405" y="280" type="line"/>
      <point x="503" y="0" type="line"/>
    </contour>
    <contour>
      <point x="146" y="299" type="line"/>
      <point x="272" y="658" type="line"/>
      <point x="399" y="299" type="line"/>
    </contour>
    <contour>
      <point x="356" y="817" type="curve" smooth="yes"/>
      <point x="347" y="817"/>
      <point x="339" y="810"/>
      <point x="339" y="801" type="curve" smooth="yes"/>
      <point x="339" y="791"/>
      <point x="347" y="783"/>
      <point x="356" y="783" type="curve" smooth="yes"/>
      <point x="366" y="783"/>
      <point x="372" y="791"/>
      <point x="372" y="801" type="curve" smooth="yes"/>
      <point x="372" y="810"/>
      <point x="366" y="817"/>
    </contour>
    <contour>
      <point x="215" y="801" type="curve" smooth="yes"/>
      <point x="215" y="810"/>
      <point x="207" y="817"/>
      <point x="199" y="817" type="curve" smooth="yes"/>
      <point x="189" y="817"/>
      <point x="181" y="810"/>
      <point x="181" y="801" type="curve" smooth="yes"/>
      <point x="181" y="791"/>
      <point x="189" y="783"/>
      <point x="199" y="783" type="curve" smooth="yes"/>
      <point x="207" y="783"/>
      <point x="215" y="791"/>
    </contour>
  </outline>
</glyph>
<glyph name="Aring" format="2">
  <advance width="544"/>
  <unicode hex="00C5"/>
  <outline>
    <contour>
      <point x="525" y="0" type="line"/>
      <point x="289" y="674" type="line"/>
      <point x="258" y="674" type="line"/>
      <point x="21" y="0" type="line"/>
      <point x="41" y="0" type="line"/>
      <point x="139" y="279" type="line"/>
      <point x="407" y="279" type="line"/>
      <point x="504" y="0" type="line"/>
    </contour>
    <contour>
      <point x="147" y="299" type="line"/>
      <point x="273" y="658" type="line"/>
      <point x="400" y="299" type="line"/>
    </contour>
    <contour>
      <point x="272" y="660" type="curve" smooth="yes"/>
      <point x="336" y="660"/>
      <point x="387" y="711"/>
      <point x="387" y="773" type="curve" smooth="yes"/>
      <point x="387" y="836"/>
      <point x="336" y="888"/>
      <point x="272" y="888" type="curve" smooth="yes"/>
      <point x="210" y="888"/>
      <point x="159" y="836"/>
      <point x="159" y="773" type="curve" smooth="yes"/>
      <point x="159" y="711"/>
      <point x="210" y="660"/>
    </contour>
    <contour>
      <point x="367" y="773" type="curve" smooth="yes"/>
      <point x="367" y="722"/>
      <point x="325" y="680"/>
      <point x="272" y="680" type="curve" smooth="yes"/>
      <point x="221" y="680"/>
      <point x="179" y="722"/>
      <point x="179" y="773" type="curve" smooth="yes"/>
      <point x="179" y="826"/>
      <point x="221" y="868"/>
      <point x="272" y="868" type="curve" smooth="yes"/>
      <point x="325" y="868"/>
      <point x="367" y="826"/>
    </contour>
  </outline>
</glyph>
<glyph name="Ccedilla" format="2">
  <advance width="421"/>
  <unicode hex="00C7"/>
  <outline>
    <contour>
      <point x="362" y="658" type="curve"/>
      <point x="370" y="675" type="line"/>
      <point x="329" y="697"/>
      <point x="282" y="708"/>
      <point x="228" y="708" type="curve" smooth="yes"/>
      <point x="186" y="708"/>
      <point x="150" y="700"/>
      <point x="121" y="683" type="curve" smooth="yes"/>
      <point x="63" y="647"/>
      <point x="34" y="603"/>
      <point x="34" y="503" type="curve" smooth="yes"/>
      <point x="34" y="183" type="line" smooth="yes"/>
      <point x="34" y="99"/>
      <point x="67" y="42"/>
      <point x="116" y="15" type="curve" smooth="yes"/>
      <point x="164" y="-10"/>
      <point x="213" y="-10"/>
      <point x="233" y="-10" type="curve" smooth="yes"/>
      <point x="284" y="-10"/>
      <point x="338" y="1"/>
      <point x="395" y="23" type="curve"/>
      <point x="389" y="41" type="line"/>
      <point x="330" y="18"/>
      <point x="278" y="7"/>
      <point x="239" y="7" type="curve" smooth="yes"/>
      <point x="200" y="7"/>
      <point x="156" y="12"/>
      <point x="126" y="32" type="curve" smooth="yes"/>
      <point x="84" y="58"/>
      <point x="52" y="106"/>
      <point x="53" y="185" type="curve" smooth="yes"/>
      <point x="53" y="512" type="line" smooth="yes"/>
      <point x="53" y="572"/>
      <point x="75" y="619"/>
      <point x="99" y="643" type="curve" smooth="yes"/>
      <point x="125" y="668"/>
      <point x="171" y="689"/>
      <point x="231" y="689" type="curve" smooth="yes"/>
      <point x="272" y="689"/>
      <point x="315" y="679"/>
    </contour>
    <contour>
      <point x="249" y="-53" type="curve" smooth="yes"/>
      <point x="244" y="-53"/>
      <point x="238" y="-53"/>
      <point x="215" y="-53" type="curve"/>
      <point x="241" y="-7" type="line"/>
      <point x="220" y="-7" type="line"/>
      <point x="192" y="-53" type="line"/>
      <point x="192" y="-73" type="line"/>
      <point x="213" y="-73"/>
      <point x="232" y="-73"/>
      <point x="249" y="-73" type="curve" smooth="yes"/>
      <point x="291" y="-73"/>
      <point x="321" y="-102"/>
      <point x="321" y="-143" type="curve" smooth="yes"/>
      <point x="321" y="-206"/>
      <point x="266" y="-212"/>
      <point x="249" y="-213" type="curve" smooth="yes"/>
      <point x="198" y="-216"/>
      <point x="155" y="-202"/>
      <point x="154" y="-202" type="curve"/>
      <point x="152" y="-210"/>
      <point x="151" y="-212"/>
      <point x="149" y="-219" type="curve"/>
      <point x="182" y="-228"/>
      <point x="205" y="-233"/>
      <point x="250" y="-231" type="curve" smooth="yes"/>
      <point x="293" y="-230"/>
      <point x="339" y="-205"/>
      <point x="339" y="-142" type="curve" smooth="yes"/>
      <point x="339" y="-91"/>
      <point x="300" y="-53"/>
    </contour>
  </outline>
</glyph>
<glyph name="Egrave" format="2">
  <advance width="402"/>
  <unicode hex="00C8"/>
  <outline>
    <contour>
      <point x="41" y="0" type="line"/>
      <point x="372" y="0" type="line"/>
      <point x="372" y="19" type="line"/>
      <point x="60" y="19" type="line"/>
      <point x="60" y="393" type="line"/>
      <point x="281" y="393" type="line"/>
      <point x="287" y="411" type="line"/>
      <point x="60" y="411" type="line"/>
      <point x="60" y="679" type="line"/>
      <point x="374" y="679" type="line"/>
      <point x="374" y="698" type="line"/>
      <point x="41" y="698" type="line"/>
    </contour>
    <contour>
      <point x="140" y="843" type="curve" smooth="yes"/>
      <point x="195" y="743" type="line"/>
      <point x="217" y="743" type="line"/>
      <point x="165" y="857" type="line"/>
      <point x="162" y="866"/>
      <point x="152" y="871"/>
      <point x="144" y="866" type="curve" smooth="yes"/>
      <point x="136" y="861"/>
      <point x="136" y="851"/>
    </contour>
  </outline>
</glyph>
<glyph name="Eacute" format="2">
  <advance width="402"/>
  <unicode hex="00C9"/>
  <outline>
    <contour>
      <point x="41" y="0" type="line"/>
      <point x="372" y="0" type="line"/>
      <point x="372" y="19" type="line"/>
      <point x="60" y="19" type="line"/>
      <point x="60" y="393" type="line"/>
      <point x="281" y="393" type="line"/>
      <point x="287" y="411" type="line"/>
      <point x="60" y="411" type="line"/>
      <point x="60" y="679" type="line"/>
      <point x="374" y="679" type="line"/>
      <point x="374" y="698" type="line"/>
      <point x="41" y="698" type="line"/>
    </contour>
    <contour>
      <point x="253" y="871" type="curve" smooth="yes"/>
      <point x="196" y="743" type="line"/>
      <point x="219" y="743" type="line"/>
      <point x="282" y="856" type="line" smooth="yes"/>
      <point x="287" y="865"/>
      <point x="287" y="877"/>
      <point x="277" y="882" type="curve" smooth="yes"/>
      <point x="268" y="887"/>
      <point x="258" y="881"/>
    </contour>
  </outline>
</glyph>
<glyph name="Ecircumflex" format="2">
  <advance width="402"/>
  <unicode hex="00CA"/>
  <outline>
    <contour>
      <point x="41" y="0" type="line"/>
      <point x="372" y="0" type="line"/>
      <point x="372" y="19" type="line"/>
      <point x="60" y="19" type="line"/>
      <point x="60" y="393" type="line"/>
      <point x="281" y="393" type="line"/>
      <point x="287" y="411" type="line"/>
      <point x="60" y="411" type="line"/>
      <point x="60" y="679" type="line"/>
      <point x="374" y="679" type="line"/>
      <point x="374" y="698" type="line"/>
      <point x="41" y="698" type="line"/>
    </contour>
    <contour>
      <point x="86" y="758" type="line"/>
      <point x="100" y="744" type="line"/>
      <point x="209" y="847" type="line"/>
      <point x="314" y="743" type="line"/>
      <point x="329" y="758" type="line"/>
      <point x="209" y="876" type="line"/>
    </contour>
  </outline>
</glyph>
<glyph name="Edieresis" format="2">
  <advance width="402"/>
  <unicode hex="00CB"/>
  <outline>
    <contour>
      <point x="41" y="0" type="line"/>
      <point x="372" y="0" type="line"/>
      <point x="372" y="19" type="line"/>
      <point x="60" y="19" type="line"/>
      <point x="60" y="393" type="line"/>
      <point x="281" y="393" type="line"/>
      <point x="287" y="411" type="line"/>
      <point x="60" y="411" type="line"/>
      <point x="60" y="679" type="line"/>
      <point x="374" y="679" type="line"/>
      <point x="374" y="698" type="line"/>
      <point x="41" y="698" type="line"/>
    </contour>
    <contour>
      <point x="304" y="802" type="curve" smooth="yes"/>
      <point x="304" y="811"/>
      <point x="296" y="818"/>
      <point x="286" y="818" type="curve" smooth="yes"/>
      <point x="277" y="818"/>
      <point x="270" y="811"/>
      <point x="270" y="802" type="curve" smooth="yes"/>
      <point x="270" y="792"/>
      <point x="277" y="784"/>
      <point x="286" y="784" type="curve" smooth="yes"/>
      <point x="296" y="784"/>
      <point x="304" y="792"/>
    </contour>
    <contour>
      <point x="146" y="802" type="curve" smooth="yes"/>
      <point x="146" y="811"/>
      <point x="138" y="818"/>
      <point x="129" y="818" type="curve" smooth="yes"/>
      <point x="119" y="818"/>
      <point x="111" y="811"/>
      <point x="111" y="802" type="curve" smooth="yes"/>
      <point x="111" y="792"/>
      <point x="119" y="784"/>
      <point x="129" y="784" type="curve" smooth="yes"/>
      <point x="138" y="784"/>
      <point x="146" y="792"/>
    </contour>
  </outline>
</glyph>
<glyph name="Iacute" format="2">
  <advance width="194"/>
  <unicode hex="00CD"/>
  <outline>
    <contour>
      <point x="15" y="679" type="line"/>
      <point x="101" y="676" type="line"/>
      <point x="101" y="0" type="line"/>
      <point x="119" y="0" type="line"/>
      <point x="119" y="698" type="line"/>
      <point x="15" y="698" type="line"/>
    </contour>
    <contour>
      <point x="150" y="855" type="curve"/>
      <point x="98" y="740" type="line"/>
      <point x="120" y="740" type="line"/>
      <point x="175" y="840" type="line" smooth="yes"/>
      <point x="180" y="849"/>
      <point x="180" y="859"/>
      <point x="172" y="864" type="curve"/>
      <point x="163" y="869"/>
      <point x="153" y="864"/>
    </contour>
  </outline>
</glyph>
<glyph name="Icircumflex" format="2">
  <advance width="253"/>
  <unicode hex="00CE"/>
  <outline>
    <contour>
      <point x="32" y="679" type="line"/>
      <point x="118" y="676" type="line"/>
      <point x="118" y="0" type="line"/>
      <point x="137" y="0" type="line"/>
      <point x="137" y="698" type="line"/>
      <point x="32" y="698" type="line"/>
    </contour>
    <contour>
      <point x="6" y="754" type="line"/>
      <point x="20" y="739" type="line"/>
      <point x="128" y="843" type="line"/>
      <point x="232" y="738" type="line"/>
      <point x="248" y="754" type="line"/>
      <point x="128" y="871" type="line"/>
    </contour>
  </outline>
</glyph>
<glyph name="Idieresis" format="2">
  <advance width="211"/>
  <unicode hex="00CF"/>
  <outline>
    <contour>
      <point x="33" y="679" type="line"/>
      <point x="119" y="676" type="line"/>
      <point x="119" y="0" type="line"/>
      <point x="138" y="0" type="line"/>
      <point x="138" y="698" type="line"/>
      <point x="33" y="698" type="line"/>
    </contour>
    <contour>
      <point x="178" y="817" type="curve" smooth="yes"/>
      <point x="169" y="817"/>
      <point x="161" y="810"/>
      <point x="161" y="800" type="curve" smooth="yes"/>
      <point x="161" y="791"/>
      <point x="169" y="783"/>
      <point x="178" y="783" type="curve" smooth="yes"/>
      <point x="187" y="783"/>
      <point x="195" y="791"/>
      <point x="195" y="800" type="curve" smooth="yes"/>
      <point x="195" y="810"/>
      <point x="187" y="817"/>
    </contour>
    <contour>
      <point x="20" y="817" type="curve" smooth="yes"/>
      <point x="10" y="817"/>
      <point x="3" y="810"/>
      <point x="3" y="800" type="curve" smooth="yes"/>
      <point x="3" y="791"/>
      <point x="10" y="783"/>
      <point x="20" y="783" type="curve" smooth="yes"/>
      <point x="29" y="783"/>
      <point x="37" y="791"/>
      <point x="37" y="800" type="curve" smooth="yes"/>
      <point x="37" y="810"/>
      <point x="29" y="817"/>
    </contour>
  </outline>
</glyph>
<glyph name="Ntilde" format="2">
  <advance width="575"/>
  <unicode hex="00D1"/>
  <outline>
    <contour>
      <point x="532" y="698" type="line"/>
      <point x="515" y="698" type="line"/>
      <point x="515" y="32" type="line"/>
      <point x="58" y="698" type="line"/>
      <point x="41" y="698" type="line"/>
      <point x="41" y="0" type="line"/>
      <point x="58" y="0" type="line"/>
      <point x="58" y="668" type="line"/>
      <point x="515" y="0" type="line"/>
      <point x="532" y="0" type="line"/>
    </contour>
    <contour>
      <point x="404" y="794" type="curve"/>
      <point x="395" y="812" type="line"/>
      <point x="372" y="793"/>
      <point x="357" y="789"/>
      <point x="346" y="789" type="curve" smooth="yes"/>
      <point x="311" y="788"/>
      <point x="273" y="822"/>
      <point x="230" y="821" type="curve" smooth="yes"/>
      <point x="210" y="820"/>
      <point x="189" y="813"/>
      <point x="168" y="791" type="curve"/>
      <point x="179" y="773" type="line"/>
      <point x="185" y="779"/>
      <point x="203" y="798"/>
      <point x="228" y="799" type="curve" smooth="yes"/>
      <point x="266" y="799"/>
      <point x="303" y="767"/>
      <point x="344" y="768" type="curve" smooth="yes"/>
      <point x="363" y="768"/>
      <point x="383" y="774"/>
    </contour>
  </outline>
</glyph>
<glyph name="Ograve" format="2">
  <advance width="486"/>
  <unicode hex="00D2"/>
  <outline>
    <contour>
      <point x="33" y="506" type="curve" smooth="yes"/>
      <point x="33" y="185" type="line" smooth="yes"/>
      <point x="33" y="56"/>
      <point x="126" y="-11"/>
      <point x="243" y="-11" type="curve" smooth="yes"/>
      <point x="368" y="-11"/>
      <point x="451" y="63"/>
      <point x="451" y="185" type="curve" smooth="yes"/>
      <point x="451" y="505" type="line" smooth="yes"/>
      <point x="451" y="635"/>
      <point x="375" y="714"/>
      <point x="245" y="714" type="curve" smooth="yes"/>
      <point x="113" y="714"/>
      <point x="33" y="642"/>
    </contour>
    <contour>
      <point x="52" y="184" type="curve" smooth="yes"/>
      <point x="52" y="506" type="line" smooth="yes"/>
      <point x="52" y="621"/>
      <point x="116" y="693"/>
      <point x="242" y="693" type="curve" smooth="yes"/>
      <point x="369" y="693"/>
      <point x="433" y="624"/>
      <point x="433" y="508" type="curve" smooth="yes"/>
      <point x="433" y="184" type="line" smooth="yes"/>
      <point x="433" y="66"/>
      <point x="350" y="8"/>
      <point x="243" y="8" type="curve" smooth="yes"/>
      <point x="136" y="8"/>
      <point x="52" y="77"/>
    </contour>
    <contour>
      <point x="177" y="851" type="curve" smooth="yes"/>
      <point x="232" y="751" type="line"/>
      <point x="253" y="751" type="line"/>
      <point x="202" y="866" type="line" smooth="yes"/>
      <point x="198" y="875"/>
      <point x="189" y="880"/>
      <point x="181" y="875" type="curve"/>
      <point x="172" y="870"/>
      <point x="172" y="860"/>
    </contour>
  </outline>
</glyph>
<glyph name="Otilde" format="2">
  <advance width="486"/>
  <unicode hex="00D5"/>
  <outline>
    <contour>
      <point x="33" y="506" type="curve" smooth="yes"/>
      <point x="33" y="185" type="line" smooth="yes"/>
      <point x="33" y="56"/>
      <point x="126" y="-11"/>
      <point x="243" y="-11" type="curve" smooth="yes"/>
      <point x="368" y="-11"/>
      <point x="451" y="63"/>
      <point x="451" y="185" type="curve" smooth="yes"/>
      <point x="451" y="505" type="line" smooth="yes"/>
      <point x="451" y="635"/>
      <point x="375" y="714"/>
      <point x="245" y="714" type="curve" smooth="yes"/>
      <point x="113" y="714"/>
      <point x="33" y="642"/>
    </contour>
    <contour>
      <point x="52" y="184" type="curve" smooth="yes"/>
      <point x="52" y="506" type="line" smooth="yes"/>
      <point x="52" y="621"/>
      <point x="116" y="693"/>
      <point x="242" y="693" type="curve" smooth="yes"/>
      <point x="369" y="693"/>
      <point x="433" y="624"/>
      <point x="433" y="508" type="curve" smooth="yes"/>
      <point x="433" y="184" type="line" smooth="yes"/>
      <point x="433" y="66"/>
      <point x="350" y="8"/>
      <point x="243" y="8" type="curve" smooth="yes"/>
      <point x="136" y="8"/>
      <point x="52" y="77"/>
    </contour>
    <contour>
      <point x="360" y="787" type="curve"/>
      <point x="351" y="804" type="line"/>
      <point x="328" y="785"/>
      <point x="313" y="781"/>
      <point x="302" y="781" type="curve" smooth="yes"/>
      <point x="268" y="780"/>
      <point x="229" y="813"/>
      <point x="186" y="812" type="curve" smooth="yes"/>
      <point x="166" y="812"/>
      <point x="146" y="805"/>
      <point x="125" y="783" type="curve"/>
      <point x="136" y="765" type="line"/>
      <point x="141" y="771"/>
      <point x="159" y="790"/>
      <point x="184" y="790" type="curve" smooth="yes"/>
      <point x="223" y="791"/>
      <point x="259" y="758"/>
      <point x="301" y="759" type="curve" smooth="yes"/>
      <point x="319" y="759"/>
      <point x="338" y="766"/>
    </contour>
  </outline>
</glyph>
<glyph name="multiply" format="2">
  <advance width="322"/>
  <unicode hex="00D7"/>
  <outline>
    <contour>
      <point x="161" y="343" type="line"/>
      <point x="44" y="484" type="line"/>
      <point x="31" y="472" type="line"/>
      <point x="148" y="329" type="line"/>
      <point x="33" y="190" type="line"/>
      <point x="47" y="179" type="line"/>
      <point x="160" y="315" type="line"/>
      <point x="271" y="179" type="line"/>
      <point x="288" y="193" type="line"/>
      <point x="174" y="330" type="line"/>
      <point x="290" y="470" type="line"/>
      <point x="276" y="483" type="line"/>
    </contour>
  </outline>
</glyph>
<glyph name="Oslash" format="2">
  <advance width="488"/>
  <unicode hex="00D8"/>
  <outline>
    <contour>
      <point x="33" y="506" type="curve" smooth="yes"/>
      <point x="33" y="185" type="line" smooth="yes"/>
      <point x="33" y="56"/>
      <point x="126" y="-11"/>
      <point x="243" y="-11" type="curve" smooth="yes"/>
      <point x="368" y="-11"/>
      <point x="451" y="63"/>
      <point x="451" y="185" type="curve" smooth="yes"/>
      <point x="451" y="505" type="line" smooth="yes"/>
      <point x="451" y="635"/>
      <point x="375" y="714"/>
      <point x="245" y="714" type="curve" smooth="yes"/>
      <point x="113" y="714"/>
      <point x="33" y="642"/>
    </contour>
    <contour>
      <point x="52" y="184" type="curve" smooth="yes"/>
      <point x="52" y="506" type="line" smooth="yes"/>
      <point x="52" y="621"/>
      <point x="116" y="693"/>
      <point x="242" y="693" type="curve" smooth="yes"/>
      <point x="369" y="693"/>
      <point x="433" y="624"/>
      <point x="433" y="508" type="curve" smooth="yes"/>
      <point x="433" y="184" type="line" smooth="yes"/>
      <point x="433" y="66"/>
      <point x="350" y="8"/>
      <point x="243" y="8" type="curve" smooth="yes"/>
      <point x="136" y="8"/>
      <point x="52" y="77"/>
    </contour>
    <contour>
      <point x="104" y="-113" type="line"/>
      <point x="124" y="-113" type="line"/>
      <point x="447" y="815" type="line"/>
      <point x="426" y="815" type="line"/>
    </contour>
  </outline>
</glyph>
<glyph name="Ugrave" format="2">
  <advance width="494"/>
  <unicode hex="00D9"/>
  <outline>
    <contour>
      <point x="455" y="185" type="curve" smooth="yes"/>
      <point x="455" y="698" type="line"/>
      <point x="436" y="698" type="line"/>
      <point x="436" y="184" type="line" smooth="yes"/>
      <point x="436" y="122"/>
      <point x="418" y="78"/>
      <point x="381" y="50" type="curve" smooth="yes"/>
      <point x="345" y="22"/>
      <point x="299" y="8"/>
      <point x="247" y="8" type="curve" smooth="yes"/>
      <point x="194" y="8"/>
      <point x="148" y="23"/>
      <point x="111" y="52" type="curve" smooth="yes"/>
      <point x="74" y="81"/>
      <point x="55" y="125"/>
      <point x="55" y="184" type="curve" smooth="yes"/>
      <point x="55" y="698" type="line"/>
      <point x="37" y="698" type="line"/>
      <point x="37" y="185" type="line" smooth="yes"/>
      <point x="37" y="118"/>
      <point x="57" y="68"/>
      <point x="98" y="36" type="curve" smooth="yes"/>
      <point x="140" y="4"/>
      <point x="189" y="-11"/>
      <point x="247" y="-11" type="curve" smooth="yes"/>
      <point x="303" y="-11"/>
      <point x="352" y="4"/>
      <point x="393" y="36" type="curve" smooth="yes"/>
      <point x="434" y="68"/>
      <point x="455" y="118"/>
    </contour>
    <contour>
      <point x="181" y="843" type="curve"/>
      <point x="236" y="743" type="line"/>
      <point x="257" y="743" type="line"/>
      <point x="206" y="857" type="line"/>
      <point x="203" y="866"/>
      <point x="193" y="871"/>
      <point x="184" y="866" type="curve"/>
      <point x="176" y="861"/>
      <point x="175" y="851"/>
    </contour>
  </outline>
</glyph>
<glyph name="Uacute" format="2">
  <advance width="494"/>
  <unicode hex="00DA"/>
  <outline>
    <contour>
      <point x="455" y="185" type="curve" smooth="yes"/>
      <point x="455" y="698" type="line"/>
      <point x="436" y="698" type="line"/>
      <point x="436" y="184" type="line" smooth="yes"/>
      <point x="436" y="122"/>
      <point x="418" y="78"/>
      <point x="381" y="50" type="curve" smooth="yes"/>
      <point x="345" y="22"/>
      <point x="299" y="8"/>
      <point x="247" y="8" type="curve" smooth="yes"/>
      <point x="194" y="8"/>
      <point x="148" y="23"/>
      <point x="111" y="52" type="curve" smooth="yes"/>
      <point x="74" y="81"/>
      <point x="55" y="125"/>
      <point x="55" y="184" type="curve" smooth="yes"/>
      <point x="55" y="698" type="line"/>
      <point x="37" y="698" type="line"/>
      <point x="37" y="185" type="line" smooth="yes"/>
      <point x="37" y="118"/>
      <point x="57" y="68"/>
      <point x="98" y="36" type="curve" smooth="yes"/>
      <point x="140" y="4"/>
      <point x="189" y="-11"/>
      <point x="247" y="-11" type="curve" smooth="yes"/>
      <point x="303" y="-11"/>
      <point x="352" y="4"/>
      <point x="393" y="36" type="curve" smooth="yes"/>
      <point x="434" y="68"/>
      <point x="455" y="118"/>
    </contour>
    <contour>
      <point x="290" y="857" type="curve"/>
      <point x="238" y="743" type="line"/>
      <point x="259" y="743" type="line"/>
      <point x="315" y="843" type="line" smooth="yes"/>
      <point x="319" y="851"/>
      <point x="319" y="861"/>
      <point x="310" y="866" type="curve"/>
      <point x="302" y="871"/>
      <point x="293" y="866"/>
    </contour>
  </outline>
</glyph>
<glyph name="Yacute" format="2">
  <advance width="512"/>
  <unicode hex="00DD"/>
  <outline>
    <contour>
      <point x="472" y="145" type="curve" smooth="yes"/>
      <point x="472" y="698" type="line"/>
      <point x="452" y="698" type="line"/>
      <point x="452" y="430" type="line" smooth="yes"/>
      <point x="452" y="381"/>
      <point x="430" y="333"/>
      <point x="392" y="304" type="curve" smooth="yes"/>
      <point x="357" y="276"/>
      <point x="312" y="263"/>
      <point x="259" y="263" type="curve" smooth="yes"/>
      <point x="189" y="263"/>
      <point x="139" y="279"/>
      <point x="104" y="311" type="curve" smooth="yes"/>
      <point x="67" y="343"/>
      <point x="49" y="393"/>
      <point x="49" y="457" type="curve" smooth="yes"/>
      <point x="49" y="698" type="line"/>
      <point x="30" y="698" type="line"/>
      <point x="30" y="452" type="line" smooth="yes"/>
      <point x="30" y="383"/>
      <point x="52" y="331"/>
      <point x="93" y="296" type="curve" smooth="yes"/>
      <point x="132" y="262"/>
      <point x="188" y="244"/>
      <point x="259" y="244" type="curve" smooth="yes"/>
      <point x="381" y="244"/>
      <point x="436" y="313"/>
      <point x="452" y="350" type="curve"/>
      <point x="452" y="152" type="line" smooth="yes"/>
      <point x="452" y="42"/>
      <point x="400" y="21"/>
      <point x="362" y="11" type="curve"/>
      <point x="368" y="-7" type="line"/>
      <point x="437" y="10"/>
      <point x="472" y="61"/>
    </contour>
    <contour>
      <point x="294" y="856" type="curve" smooth="yes"/>
      <point x="243" y="741" type="line"/>
      <point x="264" y="741" type="line"/>
      <point x="319" y="842" type="line"/>
      <point x="325" y="849"/>
      <point x="324" y="860"/>
      <point x="316" y="865" type="curve"/>
      <point x="307" y="869"/>
      <point x="298" y="864"/>
    </contour>
  </outline>
</glyph>
<glyph name="germandbls" format="2">
  <advance width="462"/>
  <unicode hex="00DF"/>
  <outline>
    <contour>
      <point x="59" y="0" type="curve"/>
      <point x="59" y="539" type="line" smooth="yes"/>
      <point x="59" y="634"/>
      <point x="95" y="680"/>
      <point x="166" y="680" type="curve" smooth="yes"/>
      <point x="230" y="680"/>
      <point x="265" y="628"/>
      <point x="267" y="582" type="curve" smooth="yes"/>
      <point x="268" y="542"/>
      <point x="243" y="505"/>
      <point x="189" y="505" type="curve"/>
      <point x="178" y="483"/>
      <point x="174" y="463"/>
      <point x="174" y="446" type="curve" smooth="yes"/>
      <point x="174" y="380"/>
      <point x="240" y="339"/>
      <point x="304" y="294" type="curve" smooth="yes"/>
      <point x="361" y="253"/>
      <point x="417" y="220"/>
      <point x="417" y="137" type="curve" smooth="yes"/>
      <point x="417" y="85"/>
      <point x="391" y="9"/>
      <point x="275" y="9" type="curve" smooth="yes"/>
      <point x="197" y="9"/>
      <point x="148" y="55"/>
      <point x="148" y="55" type="curve"/>
      <point x="143" y="50"/>
      <point x="138" y="43"/>
      <point x="133" y="36" type="curve"/>
      <point x="133" y="36"/>
      <point x="181" y="-11"/>
      <point x="282" y="-11" type="curve" smooth="yes"/>
      <point x="382" y="-11"/>
      <point x="438" y="58"/>
      <point x="437" y="135" type="curve" smooth="yes"/>
      <point x="436" y="183"/>
      <point x="414" y="233"/>
      <point x="367" y="272" type="curve"/>
      <point x="285" y="333"/>
      <point x="196" y="377"/>
      <point x="192" y="443" type="curve" smooth="yes"/>
      <point x="191" y="458"/>
      <point x="194" y="474"/>
      <point x="203" y="492" type="curve"/>
      <point x="206" y="492"/>
      <point x="210" y="492"/>
      <point x="214" y="492" type="curve"/>
      <point x="262" y="499"/>
      <point x="284" y="540"/>
      <point x="284" y="583" type="curve" smooth="yes"/>
      <point x="284" y="636"/>
      <point x="238" y="698"/>
      <point x="165" y="698" type="curve" smooth="yes"/>
      <point x="105" y="698"/>
      <point x="39" y="665"/>
      <point x="39" y="541" type="curve" smooth="yes"/>
      <point x="39" y="343"/>
      <point x="39" y="170"/>
      <point x="39" y="0" type="curve"/>
      <point x="45" y="0"/>
      <point x="52" y="0"/>
    </contour>
  </outline>
</glyph>
<glyph name="aacute" format="2">
  <advance width="440"/>
  <unicode hex="00E1"/>
  <outline>
    <contour>
      <point x="389" y="345" type="curve"/>
      <point x="329" y="374"/>
      <point x="258" y="403"/>
      <point x="185" y="403" type="curve" smooth="yes"/>
      <point x="51" y="403"/>
      <point x="24" y="315"/>
      <point x="24" y="251" type="curve"/>
      <point x="24" y="251"/>
      <point x="24" y="168"/>
      <point x="24" y="168" type="curve"/>
      <point x="24" y="50"/>
      <point x="83" y="-10"/>
      <point x="228" y="-10" type="curve" smooth="yes"/>
      <point x="269" y="-10"/>
      <point x="408" y="0"/>
      <point x="408" y="0" type="curve"/>
      <point x="408" y="0"/>
      <point x="408" y="212"/>
      <point x="408" y="335" type="curve" smooth="yes"/>
      <point x="408" y="395"/>
      <point x="388" y="441"/>
      <point x="347" y="470" type="curve" smooth="yes"/>
      <point x="313" y="495"/>
      <point x="265" y="507"/>
      <point x="200" y="507" type="curve"/>
      <point x="199" y="488" type="line"/>
      <point x="267" y="488"/>
      <point x="304" y="477"/>
      <point x="334" y="457" type="curve" smooth="yes"/>
      <point x="370" y="431"/>
      <point x="389" y="392"/>
    </contour>
    <contour>
      <point x="389" y="322" type="curve"/>
      <point x="389" y="322"/>
      <point x="389" y="18"/>
      <point x="389" y="18" type="curve"/>
      <point x="389" y="18"/>
      <point x="274" y="8"/>
      <point x="228" y="8" type="curve" smooth="yes"/>
      <point x="72" y="4"/>
      <point x="42" y="90"/>
      <point x="42" y="162" type="curve" smooth="yes"/>
      <point x="42" y="185"/>
      <point x="42" y="221"/>
      <point x="42" y="249" type="curve" smooth="yes"/>
      <point x="42" y="323"/>
      <point x="81" y="383"/>
      <point x="184" y="383" type="curve" smooth="yes"/>
      <point x="257" y="383"/>
      <point x="318" y="358"/>
    </contour>
    <contour>
      <point x="255" y="662" type="curve" smooth="yes"/>
      <point x="204" y="548" type="line"/>
      <point x="225" y="548" type="line"/>
      <point x="280" y="648" type="line"/>
      <point x="285" y="656"/>
      <point x="285" y="667"/>
      <point x="277" y="671" type="curve" smooth="yes"/>
      <point x="268" y="675"/>
      <point x="259" y="670"/>
    </contour>
  </outline>
</glyph>
<glyph name="acircumflex" format="2">
  <advance width="443"/>
  <unicode hex="00E2"/>
  <outline>
    <contour>
      <point x="391" y="345" type="curve"/>
      <point x="332" y="374"/>
      <point x="260" y="403"/>
      <point x="187" y="403" type="curve" smooth="yes"/>
      <point x="53" y="403"/>
      <point x="26" y="315"/>
      <point x="26" y="251" type="curve"/>
      <point x="26" y="251"/>
      <point x="26" y="168"/>
      <point x="26" y="168" type="curve"/>
      <point x="26" y="50"/>
      <point x="85" y="-10"/>
      <point x="230" y="-10" type="curve" smooth="yes"/>
      <point x="271" y="-10"/>
      <point x="410" y="0"/>
      <point x="410" y="0" type="curve"/>
      <point x="410" y="0"/>
      <point x="410" y="212"/>
      <point x="410" y="335" type="curve" smooth="yes"/>
      <point x="410" y="395"/>
      <point x="390" y="441"/>
      <point x="349" y="470" type="curve" smooth="yes"/>
      <point x="315" y="495"/>
      <point x="267" y="507"/>
      <point x="202" y="507" type="curve"/>
      <point x="201" y="488" type="line"/>
      <point x="269" y="488"/>
      <point x="306" y="477"/>
      <point x="336" y="457" type="curve" smooth="yes"/>
      <point x="372" y="431"/>
      <point x="391" y="392"/>
    </contour>
    <contour>
      <point x="391" y="322" type="curve"/>
      <point x="391" y="322"/>
      <point x="391" y="18"/>
      <point x="391" y="18" type="curve"/>
      <point x="391" y="18"/>
      <point x="277" y="8"/>
      <point x="230" y="8" type="curve" smooth="yes"/>
      <point x="74" y="4"/>
      <point x="45" y="90"/>
      <point x="45" y="162" type="curve" smooth="yes"/>
      <point x="45" y="185"/>
      <point x="45" y="221"/>
      <point x="45" y="249" type="curve" smooth="yes"/>
      <point x="45" y="323"/>
      <point x="83" y="383"/>
      <point x="186" y="383" type="curve" smooth="yes"/>
      <point x="259" y="383"/>
      <point x="321" y="358"/>
    </contour>
    <contour>
      <point x="96" y="561" type="line"/>
      <point x="111" y="547" type="line"/>
      <point x="219" y="650" type="line"/>
      <point x="324" y="546" type="line"/>
      <point x="339" y="561" type="line"/>
      <point x="219" y="679" type="line"/>
    </contour>
  </outline>
</glyph>
<glyph name="atilde" format="2">
  <advance width="445"/>
  <unicode hex="00E3"/>
  <outline>
    <contour>
      <point x="391" y="345" type="curve"/>
      <point x="331" y="374"/>
      <point x="260" y="403"/>
      <point x="187" y="403" type="curve" smooth="yes"/>
      <point x="53" y="403"/>
      <point x="26" y="315"/>
      <point x="26" y="251" type="curve"/>
      <point x="26" y="251"/>
      <point x="26" y="168"/>
      <point x="26" y="168" type="curve"/>
      <point x="26" y="50"/>
      <point x="85" y="-10"/>
      <point x="230" y="-10" type="curve" smooth="yes"/>
      <point x="271" y="-10"/>
      <point x="410" y="0"/>
      <point x="410" y="0" type="curve"/>
      <point x="410" y="0"/>
      <point x="410" y="212"/>
      <point x="410" y="335" type="curve" smooth="yes"/>
      <point x="410" y="395"/>
      <point x="390" y="441"/>
      <point x="349" y="470" type="curve" smooth="yes"/>
      <point x="315" y="495"/>
      <point x="267" y="507"/>
      <point x="202" y="507" type="curve"/>
      <point x="201" y="488" type="line"/>
      <point x="269" y="488"/>
      <point x="306" y="477"/>
      <point x="336" y="457" type="curve" smooth="yes"/>
      <point x="372" y="431"/>
      <point x="391" y="392"/>
    </contour>
    <contour>
      <point x="391" y="322" type="curve"/>
      <point x="391" y="322"/>
      <point x="391" y="18"/>
      <point x="391" y="18" type="curve"/>
      <point x="391" y="18"/>
      <point x="276" y="8"/>
      <point x="230" y="8" type="curve" smooth="yes"/>
      <point x="74" y="4"/>
      <point x="44" y="90"/>
      <point x="44" y="162" type="curve" smooth="yes"/>
      <point x="44" y="185"/>
      <point x="44" y="221"/>
      <point x="44" y="249" type="curve" smooth="yes"/>
      <point x="44" y="323"/>
      <point x="83" y="383"/>
      <point x="186" y="383" type="curve" smooth="yes"/>
      <point x="259" y="383"/>
      <point x="320" y="358"/>
    </contour>
    <contour>
      <point x="336" y="595" type="curve"/>
      <point x="326" y="613" type="line"/>
      <point x="304" y="594"/>
      <point x="287" y="590"/>
      <point x="278" y="590" type="curve"/>
      <point x="244" y="588"/>
      <point x="204" y="623"/>
      <point x="162" y="621" type="curve" smooth="yes"/>
      <point x="141" y="620"/>
      <point x="120" y="614"/>
      <point x="100" y="592" type="curve"/>
      <point x="112" y="574" type="line"/>
      <point x="116" y="580"/>
      <point x="135" y="598"/>
      <point x="160" y="599" type="curve" smooth="yes"/>
      <point x="198" y="599"/>
      <point x="235" y="568"/>
      <point x="275" y="568" type="curve"/>
      <point x="294" y="569"/>
      <point x="314" y="575"/>
    </contour>
  </outline>
</glyph>
<glyph name="aring" format="2">
  <advance width="444"/>
  <unicode hex="00E5"/>
  <outline>
    <contour>
      <point x="392" y="345" type="curve"/>
      <point x="333" y="374"/>
      <point x="261" y="403"/>
      <point x="189" y="403" type="curve" smooth="yes"/>
      <point x="54" y="403"/>
      <point x="27" y="315"/>
      <point x="27" y="251" type="curve"/>
      <point x="27" y="251"/>
      <point x="27" y="168"/>
      <point x="27" y="168" type="curve"/>
      <point x="27" y="50"/>
      <point x="86" y="-10"/>
      <point x="232" y="-10" type="curve" smooth="yes"/>
      <point x="272" y="-10"/>
      <point x="411" y="0"/>
      <point x="411" y="0" type="curve"/>
      <point x="411" y="0"/>
      <point x="411" y="212"/>
      <point x="411" y="335" type="curve" smooth="yes"/>
      <point x="411" y="395"/>
      <point x="391" y="441"/>
      <point x="350" y="470" type="curve" smooth="yes"/>
      <point x="316" y="495"/>
      <point x="268" y="507"/>
      <point x="203" y="507" type="curve"/>
      <point x="202" y="488" type="line"/>
      <point x="270" y="488"/>
      <point x="307" y="477"/>
      <point x="337" y="457" type="curve" smooth="yes"/>
      <point x="373" y="431"/>
      <point x="392" y="392"/>
    </contour>
    <contour>
      <point x="392" y="322" type="curve"/>
      <point x="392" y="322"/>
      <point x="392" y="18"/>
      <point x="392" y="18" type="curve"/>
      <point x="392" y="18"/>
      <point x="278" y="8"/>
      <point x="232" y="8" type="curve" smooth="yes"/>
      <point x="75" y="4"/>
      <point x="46" y="90"/>
      <point x="46" y="162" type="curve" smooth="yes"/>
      <point x="46" y="185"/>
      <point x="46" y="221"/>
      <point x="46" y="249" type="curve" smooth="yes"/>
      <point x="46" y="323"/>
      <point x="84" y="383"/>
      <point x="187" y="383" type="curve" smooth="yes"/>
      <point x="260" y="383"/>
      <point x="322" y="358"/>
    </contour>
    <contour>
      <point x="206" y="490" type="curve" smooth="yes"/>
      <point x="269" y="490"/>
      <point x="319" y="540"/>
      <point x="319" y="603" type="curve" smooth="yes"/>
      <point x="319" y="665"/>
      <point x="269" y="716"/>
      <point x="206" y="716" type="curve" smooth="yes"/>
      <point x="144" y="716"/>
      <point x="93" y="665"/>
      <point x="93" y="603" type="curve" smooth="yes"/>
      <point x="93" y="540"/>
      <point x="144" y="490"/>
    </contour>
    <contour>
      <point x="301" y="603" type="curve" smooth="yes"/>
      <point x="301" y="551"/>
      <point x="258" y="509"/>
      <point x="206" y="509" type="curve" smooth="yes"/>
      <point x="154" y="509"/>
      <point x="112" y="551"/>
      <point x="112" y="603" type="curve" smooth="yes"/>
      <point x="112" y="654"/>
      <point x="154" y="697"/>
      <point x="206" y="697" type="curve" smooth="yes"/>
      <point x="258" y="697"/>
      <point x="301" y="654"/>
    </contour>
  </outline>
</glyph>
<glyph name="ccedilla" format="2">
  <advance width="377"/>
  <unicode hex="00E7"/>
  <outline>
    <contour>
      <point x="340" y="457" type="curve"/>
      <point x="347" y="476" type="line"/>
      <point x="289" y="504"/>
      <point x="223" y="516"/>
      <point x="165" y="504" type="curve" smooth="yes"/>
      <point x="120" y="494"/>
      <point x="82" y="470"/>
      <point x="55" y="426" type="curve" smooth="yes"/>
      <point x="37" y="394"/>
      <point x="30" y="362"/>
      <point x="28" y="318" type="curve"/>
      <point x="28" y="173" type="line" smooth="yes"/>
      <point x="28" y="75"/>
      <point x="72" y="23"/>
      <point x="140" y="1" type="curve" smooth="yes"/>
      <point x="200" y="-18"/>
      <point x="282" y="-13"/>
      <point x="349" y="5" type="curve"/>
      <point x="345" y="25" type="line"/>
      <point x="345" y="25"/>
      <point x="230" y="-9"/>
      <point x="141" y="21" type="curve" smooth="yes"/>
      <point x="70" y="45"/>
      <point x="47" y="98"/>
      <point x="47" y="175" type="curve" smooth="yes"/>
      <point x="47" y="312" type="line" smooth="yes"/>
      <point x="47" y="355"/>
      <point x="56" y="389"/>
      <point x="73" y="416" type="curve" smooth="yes"/>
      <point x="95" y="453"/>
      <point x="130" y="476"/>
      <point x="172" y="485" type="curve" smooth="yes"/>
      <point x="223" y="496"/>
      <point x="282" y="486"/>
    </contour>
    <contour>
      <point x="198" y="-47" type="curve" smooth="yes"/>
      <point x="194" y="-47"/>
      <point x="190" y="-47"/>
      <point x="164" y="-47" type="curve"/>
      <point x="191" y="0" type="line"/>
      <point x="170" y="0" type="line"/>
      <point x="141" y="-47" type="line"/>
      <point x="141" y="-67" type="line"/>
      <point x="162" y="-67"/>
      <point x="182" y="-67"/>
      <point x="198" y="-67" type="curve" smooth="yes"/>
      <point x="240" y="-67"/>
      <point x="270" y="-96"/>
      <point x="270" y="-136" type="curve" smooth="yes"/>
      <point x="270" y="-199"/>
      <point x="216" y="-207"/>
      <point x="198" y="-207" type="curve"/>
      <point x="148" y="-210"/>
      <point x="105" y="-196"/>
      <point x="104" y="-196" type="curve"/>
      <point x="102" y="-204"/>
      <point x="100" y="-206"/>
      <point x="98" y="-213" type="curve"/>
      <point x="131" y="-221"/>
      <point x="154" y="-227"/>
      <point x="200" y="-226" type="curve" smooth="yes"/>
      <point x="242" y="-223"/>
      <point x="289" y="-198"/>
      <point x="289" y="-136" type="curve" smooth="yes"/>
      <point x="289" y="-86"/>
      <point x="250" y="-47"/>
    </contour>
  </outline>
</glyph>
<glyph name="eacute" format="2">
  <advance width="417"/>
  <unicode hex="00E9"/>
  <outline>
    <contour>
      <point x="47" y="132" type="curve" smooth="yes"/>
      <point x="47" y="229" type="line"/>
      <point x="388" y="246" type="line"/>
      <point x="388" y="341" type="line" smooth="yes"/>
      <point x="388" y="402"/>
      <point x="366" y="448"/>
      <point x="327" y="476" type="curve" smooth="yes"/>
      <point x="297" y="497"/>
      <point x="259" y="508"/>
      <point x="212" y="508" type="curve" smooth="yes"/>
      <point x="157" y="508"/>
      <point x="111" y="493"/>
      <point x="79" y="463" type="curve" smooth="yes"/>
      <point x="47" y="435"/>
      <point x="28" y="392"/>
      <point x="28" y="338" type="curve" smooth="yes"/>
      <point x="28" y="133" type="line" smooth="yes"/>
      <point x="28" y="80"/>
      <point x="46" y="42"/>
      <point x="80" y="19" type="curve" smooth="yes"/>
      <point x="108" y="-2"/>
      <point x="149" y="-12"/>
      <point x="202" y="-12" type="curve" smooth="yes"/>
      <point x="258" y="-12"/>
      <point x="312" y="4"/>
      <point x="362" y="35" type="curve"/>
      <point x="354" y="52" type="line"/>
      <point x="296" y="20"/>
      <point x="254" y="7"/>
      <point x="200" y="7" type="curve" smooth="yes"/>
      <point x="154" y="7"/>
      <point x="119" y="14"/>
      <point x="90" y="35" type="curve" smooth="yes"/>
      <point x="61" y="56"/>
      <point x="47" y="88"/>
    </contour>
    <contour>
      <point x="368" y="342" type="curve" smooth="yes"/>
      <point x="368" y="322"/>
      <point x="368" y="282"/>
      <point x="368" y="264" type="curve"/>
      <point x="47" y="248" type="line"/>
      <point x="47" y="268"/>
      <point x="47" y="311"/>
      <point x="47" y="332" type="curve" smooth="yes"/>
      <point x="47" y="391"/>
      <point x="65" y="428"/>
      <point x="92" y="452" type="curve" smooth="yes"/>
      <point x="125" y="482"/>
      <point x="171" y="491"/>
      <point x="208" y="491" type="curve" smooth="yes"/>
      <point x="245" y="491"/>
      <point x="284" y="484"/>
      <point x="315" y="461" type="curve" smooth="yes"/>
      <point x="346" y="439"/>
      <point x="368" y="402"/>
    </contour>
    <contour>
      <point x="249" y="662" type="curve"/>
      <point x="197" y="548" type="line"/>
      <point x="219" y="548" type="line"/>
      <point x="274" y="648" type="line"/>
      <point x="279" y="656"/>
      <point x="279" y="667"/>
      <point x="270" y="671" type="curve" smooth="yes"/>
      <point x="262" y="675"/>
      <point x="252" y="670"/>
    </contour>
  </outline>
</glyph>
<glyph name="ecircumflex" format="2">
  <advance width="418"/>
  <unicode hex="00EA"/>
  <outline>
    <contour>
      <point x="48" y="132" type="curve" smooth="yes"/>
      <point x="48" y="229" type="line"/>
      <point x="389" y="246" type="line"/>
      <point x="389" y="341" type="line" smooth="yes"/>
      <point x="389" y="402"/>
      <point x="367" y="448"/>
      <point x="328" y="476" type="curve" smooth="yes"/>
      <point x="299" y="497"/>
      <point x="260" y="508"/>
      <point x="213" y="508" type="curve" smooth="yes"/>
      <point x="158" y="508"/>
      <point x="112" y="493"/>
      <point x="80" y="463" type="curve" smooth="yes"/>
      <point x="48" y="435"/>
      <point x="29" y="392"/>
      <point x="29" y="338" type="curve" smooth="yes"/>
      <point x="29" y="133" type="line" smooth="yes"/>
      <point x="29" y="80"/>
      <point x="47" y="42"/>
      <point x="81" y="19" type="curve" smooth="yes"/>
      <point x="109" y="-2"/>
      <point x="150" y="-12"/>
      <point x="203" y="-12" type="curve" smooth="yes"/>
      <point x="259" y="-12"/>
      <point x="313" y="4"/>
      <point x="363" y="35" type="curve"/>
      <point x="355" y="52" type="line"/>
      <point x="297" y="20"/>
      <point x="255" y="7"/>
      <point x="201" y="7" type="curve" smooth="yes"/>
      <point x="156" y="7"/>
      <point x="120" y="14"/>
      <point x="91" y="35" type="curve" smooth="yes"/>
      <point x="62" y="56"/>
      <point x="48" y="88"/>
    </contour>
    <contour>
      <point x="369" y="342" type="curve" smooth="yes"/>
      <point x="369" y="322"/>
      <point x="369" y="282"/>
      <point x="369" y="264" type="curve"/>
      <point x="48" y="248" type="line"/>
      <point x="48" y="268"/>
      <point x="48" y="311"/>
      <point x="48" y="332" type="curve" smooth="yes"/>
      <point x="48" y="391"/>
      <point x="67" y="428"/>
      <point x="93" y="452" type="curve" smooth="yes"/>
      <point x="126" y="482"/>
      <point x="172" y="491"/>
      <point x="210" y="491" type="curve" smooth="yes"/>
      <point x="246" y="491"/>
      <point x="285" y="484"/>
      <point x="316" y="461" type="curve" smooth="yes"/>
      <point x="347" y="439"/>
      <point x="369" y="402"/>
    </contour>
    <contour>
      <point x="86" y="562" type="line"/>
      <point x="101" y="548" type="line"/>
      <point x="210" y="652" type="line"/>
      <point x="314" y="548" type="line"/>
      <point x="329" y="563" type="line"/>
      <point x="210" y="681" type="line"/>
    </contour>
  </outline>
</glyph>
<glyph name="igrave" format="2">
  <advance width="146"/>
  <unicode hex="00EC"/>
  <outline>
    <contour>
      <point x="88" y="0" type="line"/>
      <point x="108" y="0" type="line"/>
      <point x="108" y="499" type="line"/>
      <point x="88" y="499" type="line"/>
    </contour>
    <contour>
      <point x="25" y="645" type="curve"/>
      <point x="80" y="543" type="line"/>
      <point x="100" y="543" type="line"/>
      <point x="50" y="658" type="line"/>
      <point x="47" y="667"/>
      <point x="37" y="672"/>
      <point x="28" y="668" type="curve"/>
      <point x="20" y="662"/>
      <point x="19" y="652"/>
    </contour>
  </outline>
</glyph>
<glyph name="icircumflex" format="2">
  <advance width="275"/>
  <unicode hex="00EE"/>
  <outline>
    <contour>
      <point x="126" y="0" type="line"/>
      <point x="144" y="0" type="line"/>
      <point x="144" y="499" type="line"/>
      <point x="126" y="499" type="line"/>
    </contour>
    <contour>
      <point x="13" y="559" type="line"/>
      <point x="28" y="544" type="line"/>
      <point x="136" y="648" type="line"/>
      <point x="241" y="543" type="line"/>
      <point x="257" y="559" type="line"/>
      <point x="136" y="676" type="line"/>
    </contour>
  </outline>
</glyph>
<glyph name="idieresis" format="2">
  <advance width="226"/>
  <unicode hex="00EF"/>
  <outline>
    <contour>
      <point x="102" y="0" type="line"/>
      <point x="120" y="0" type="line"/>
      <point x="120" y="499" type="line"/>
      <point x="102" y="499" type="line"/>
    </contour>
    <contour>
      <point x="207" y="603" type="curve" smooth="yes"/>
      <point x="207" y="612"/>
      <point x="200" y="619"/>
      <point x="190" y="619" type="curve" smooth="yes"/>
      <point x="181" y="619"/>
      <point x="173" y="612"/>
      <point x="173" y="603" type="curve" smooth="yes"/>
      <point x="173" y="593"/>
      <point x="181" y="585"/>
      <point x="190" y="585" type="curve" smooth="yes"/>
      <point x="200" y="585"/>
      <point x="207" y="593"/>
    </contour>
    <contour>
      <point x="49" y="603" type="curve" smooth="yes"/>
      <point x="49" y="612"/>
      <point x="41" y="619"/>
      <point x="32" y="619" type="curve" smooth="yes"/>
      <point x="22" y="619"/>
      <point x="15" y="612"/>
      <point x="15" y="603" type="curve" smooth="yes"/>
      <point x="15" y="593"/>
      <point x="22" y="585"/>
      <point x="32" y="585" type="curve" smooth="yes"/>
      <point x="41" y="585"/>
      <point x="49" y="593"/>
    </contour>
  </outline>
</glyph>
<glyph name="ntilde" format="2">
  <advance width="440"/>
  <unicode hex="00F1"/>
  <outline>
    <contour>
      <point x="384" y="346" type="curve" smooth="yes"/>
      <point x="384" y="0" type="line"/>
      <point x="404" y="0" type="line"/>
      <point x="404" y="345" type="line" smooth="yes"/>
      <point x="404" y="501"/>
      <point x="288" y="514"/>
      <point x="201" y="508" type="curve" smooth="yes"/>
      <point x="149" y="505"/>
      <point x="87" y="486"/>
      <point x="54" y="471" type="curve"/>
      <point x="54" y="499" type="line"/>
      <point x="36" y="499" type="line"/>
      <point x="36" y="0" type="line"/>
      <point x="54" y="0" type="line"/>
      <point x="54" y="453" type="line"/>
      <point x="91" y="471"/>
      <point x="156" y="490"/>
      <point x="214" y="493" type="curve" smooth="yes"/>
      <point x="322" y="498"/>
      <point x="384" y="459"/>
    </contour>
    <contour>
      <point x="337" y="593" type="curve"/>
      <point x="328" y="610" type="line"/>
      <point x="305" y="592"/>
      <point x="290" y="587"/>
      <point x="279" y="587" type="curve" smooth="yes"/>
      <point x="245" y="586"/>
      <point x="206" y="619"/>
      <point x="164" y="618" type="curve" smooth="yes"/>
      <point x="144" y="618"/>
      <point x="123" y="612"/>
      <point x="102" y="590" type="curve"/>
      <point x="113" y="571" type="line"/>
      <point x="118" y="577"/>
      <point x="136" y="596"/>
      <point x="161" y="596" type="curve" smooth="yes"/>
      <point x="200" y="597"/>
      <point x="236" y="564"/>
      <point x="278" y="565" type="curve" smooth="yes"/>
      <point x="296" y="565"/>
      <point x="316" y="572"/>
    </contour>
  </outline>
</glyph>
<glyph name="ograve" format="2">
  <advance width="424"/>
  <unicode hex="00F2"/>
  <outline>
    <contour>
      <point x="395" y="184" type="curve" smooth="yes"/>
      <point x="395" y="315" type="line" smooth="yes"/>
      <point x="395" y="436"/>
      <point x="332" y="510"/>
      <point x="213" y="510" type="curve" smooth="yes"/>
      <point x="95" y="510"/>
      <point x="27" y="442"/>
      <point x="27" y="315" type="curve" smooth="yes"/>
      <point x="27" y="184" type="line" smooth="yes"/>
      <point x="27" y="77"/>
      <point x="86" y="-10"/>
      <point x="213" y="-10" type="curve" smooth="yes"/>
      <point x="337" y="-10"/>
      <point x="395" y="71"/>
    </contour>
    <contour>
      <point x="377" y="319" type="curve" smooth="yes"/>
      <point x="377" y="184" type="line" smooth="yes"/>
      <point x="377" y="84"/>
      <point x="328" y="8"/>
      <point x="213" y="8" type="curve" smooth="yes"/>
      <point x="103" y="8"/>
      <point x="46" y="85"/>
      <point x="46" y="184" type="curve" smooth="yes"/>
      <point x="46" y="319" type="line" smooth="yes"/>
      <point x="46" y="442"/>
      <point x="117" y="492"/>
      <point x="213" y="492" type="curve" smooth="yes"/>
      <point x="308" y="492"/>
      <point x="377" y="433"/>
    </contour>
    <contour>
      <point x="142" y="648" type="curve"/>
      <point x="197" y="548" type="line"/>
      <point x="218" y="548" type="line"/>
      <point x="168" y="662" type="line"/>
      <point x="164" y="670"/>
      <point x="154" y="675"/>
      <point x="146" y="671" type="curve" smooth="yes"/>
      <point x="138" y="667"/>
      <point x="137" y="656"/>
    </contour>
  </outline>
</glyph>
<glyph name="ocircumflex" format="2">
  <advance width="428"/>
  <unicode hex="00F4"/>
  <outline>
    <contour>
      <point x="397" y="184" type="curve" smooth="yes"/>
      <point x="397" y="315" type="line" smooth="yes"/>
      <point x="397" y="436"/>
      <point x="333" y="510"/>
      <point x="214" y="510" type="curve" smooth="yes"/>
      <point x="96" y="510"/>
      <point x="28" y="442"/>
      <point x="28" y="315" type="curve" smooth="yes"/>
      <point x="28" y="184" type="line" smooth="yes"/>
      <point x="28" y="77"/>
      <point x="87" y="-10"/>
      <point x="214" y="-10" type="curve" smooth="yes"/>
      <point x="338" y="-10"/>
      <point x="397" y="71"/>
    </contour>
    <contour>
      <point x="378" y="319" type="curve" smooth="yes"/>
      <point x="378" y="184" type="line" smooth="yes"/>
      <point x="378" y="84"/>
      <point x="329" y="8"/>
      <point x="214" y="8" type="curve" smooth="yes"/>
      <point x="104" y="8"/>
      <point x="47" y="85"/>
      <point x="47" y="184" type="curve" smooth="yes"/>
      <point x="47" y="319" type="line" smooth="yes"/>
      <point x="47" y="442"/>
      <point x="118" y="492"/>
      <point x="214" y="492" type="curve" smooth="yes"/>
      <point x="310" y="492"/>
      <point x="378" y="433"/>
    </contour>
    <contour>
      <point x="69" y="577" type="line"/>
      <point x="85" y="561" type="line"/>
      <point x="216" y="687" type="line"/>
      <point x="341" y="561" type="line"/>
      <point x="358" y="577" type="line"/>
      <point x="216" y="718" type="line"/>
    </contour>
  </outline>
</glyph>
<glyph name="otilde" format="2">
  <advance width="427"/>
  <unicode hex="00F5"/>
  <outline>
    <contour>
      <point x="396" y="184" type="curve" smooth="yes"/>
      <point x="396" y="315" type="line" smooth="yes"/>
      <point x="396" y="436"/>
      <point x="333" y="510"/>
      <point x="214" y="510" type="curve" smooth="yes"/>
      <point x="96" y="510"/>
      <point x="28" y="442"/>
      <point x="28" y="315" type="curve" smooth="yes"/>
      <point x="28" y="184" type="line" smooth="yes"/>
      <point x="28" y="77"/>
      <point x="87" y="-10"/>
      <point x="214" y="-10" type="curve" smooth="yes"/>
      <point x="338" y="-10"/>
      <point x="396" y="71"/>
    </contour>
    <contour>
      <point x="378" y="319" type="curve" smooth="yes"/>
      <point x="378" y="184" type="line" smooth="yes"/>
      <point x="378" y="84"/>
      <point x="329" y="8"/>
      <point x="214" y="8" type="curve" smooth="yes"/>
      <point x="104" y="8"/>
      <point x="47" y="85"/>
      <point x="47" y="184" type="curve" smooth="yes"/>
      <point x="47" y="319" type="line" smooth="yes"/>
      <point x="47" y="442"/>
      <point x="118" y="492"/>
      <point x="214" y="492" type="curve" smooth="yes"/>
      <point x="309" y="492"/>
      <point x="378" y="433"/>
    </contour>
    <contour>
      <point x="330" y="593" type="curve"/>
      <point x="322" y="610" type="line"/>
      <point x="298" y="592"/>
      <point x="282" y="587"/>
      <point x="272" y="587" type="curve" smooth="yes"/>
      <point x="238" y="586"/>
      <point x="198" y="619"/>
      <point x="157" y="619" type="curve" smooth="yes"/>
      <point x="136" y="618"/>
      <point x="115" y="612"/>
      <point x="95" y="590" type="curve"/>
      <point x="106" y="572" type="line"/>
      <point x="112" y="577"/>
      <point x="129" y="596"/>
      <point x="154" y="597" type="curve" smooth="yes"/>
      <point x="193" y="597"/>
      <point x="229" y="565"/>
      <point x="270" y="565" type="curve"/>
      <point x="289" y="566"/>
      <point x="308" y="572"/>
    </contour>
  </outline>
</glyph>
<glyph name="odieresis" format="2">
  <advance width="426"/>
  <unicode hex="00F6"/>
  <outline>
    <contour>
      <point x="396" y="184" type="curve" smooth="yes"/>
      <point x="396" y="315" type="line" smooth="yes"/>
      <point x="396" y="436"/>
      <point x="333" y="510"/>
      <point x="214" y="510" type="curve" smooth="yes"/>
      <point x="96" y="510"/>
      <point x="28" y="442"/>
      <point x="28" y="315" type="curve" smooth="yes"/>
      <point x="28" y="184" type="line" smooth="yes"/>
      <point x="28" y="77"/>
      <point x="87" y="-10"/>
      <point x="214" y="-10" type="curve" smooth="yes"/>
      <point x="338" y="-10"/>
      <point x="396" y="71"/>
    </contour>
    <contour>
      <point x="378" y="319" type="curve" smooth="yes"/>
      <point x="378" y="184" type="line" smooth="yes"/>
      <point x="378" y="84"/>
      <point x="329" y="8"/>
      <point x="214" y="8" type="curve" smooth="yes"/>
      <point x="104" y="8"/>
      <point x="47" y="85"/>
      <point x="47" y="184" type="curve" smooth="yes"/>
      <point x="47" y="319" type="line" smooth="yes"/>
      <point x="47" y="442"/>
      <point x="118" y="492"/>
      <point x="214" y="492" type="curve" smooth="yes"/>
      <point x="309" y="492"/>
      <point x="378" y="433"/>
    </contour>
    <contour>
      <point x="287" y="623" type="curve" smooth="yes"/>
      <point x="278" y="623"/>
      <point x="271" y="615"/>
      <point x="271" y="606" type="curve" smooth="yes"/>
      <point x="271" y="596"/>
      <point x="278" y="588"/>
      <point x="287" y="588" type="curve" smooth="yes"/>
      <point x="296" y="588"/>
      <point x="304" y="596"/>
      <point x="304" y="606" type="curve" smooth="yes"/>
      <point x="304" y="615"/>
      <point x="296" y="623"/>
    </contour>
    <contour>
      <point x="147" y="606" type="curve" smooth="yes"/>
      <point x="147" y="615"/>
      <point x="139" y="623"/>
      <point x="129" y="623" type="curve" smooth="yes"/>
      <point x="120" y="623"/>
      <point x="113" y="615"/>
      <point x="113" y="606" type="curve" smooth="yes"/>
      <point x="113" y="596"/>
      <point x="120" y="588"/>
      <point x="129" y="588" type="curve" smooth="yes"/>
      <point x="139" y="588"/>
      <point x="147" y="596"/>
    </contour>
  </outline>
</glyph>
<glyph name="ugrave" format="2">
  <advance width="436"/>
  <unicode hex="00F9"/>
  <outline>
    <contour>
      <point x="381" y="97" type="curve"/>
      <point x="381" y="0" type="line"/>
      <point x="402" y="0" type="line"/>
      <point x="402" y="499" type="line"/>
      <point x="381" y="499" type="line"/>
      <point x="381" y="168" type="line" smooth="yes"/>
      <point x="381" y="87"/>
      <point x="322" y="15"/>
      <point x="226" y="9" type="curve" smooth="yes"/>
      <point x="118" y="1"/>
      <point x="52" y="43"/>
      <point x="52" y="155" type="curve" smooth="yes"/>
      <point x="52" y="499" type="line"/>
      <point x="32" y="499" type="line"/>
      <point x="32" y="156" type="line" smooth="yes"/>
      <point x="32" y="0"/>
      <point x="152" y="-13"/>
      <point x="226" y="-9" type="curve" smooth="yes"/>
      <point x="287" y="-4"/>
      <point x="355" y="29"/>
    </contour>
    <contour>
      <point x="145" y="643" type="curve"/>
      <point x="200" y="543" type="line"/>
      <point x="222" y="543" type="line"/>
      <point x="170" y="657" type="line" smooth="yes"/>
      <point x="166" y="665"/>
      <point x="157" y="671"/>
      <point x="149" y="667" type="curve" smooth="yes"/>
      <point x="140" y="662"/>
      <point x="140" y="651"/>
    </contour>
  </outline>
</glyph>
<glyph name="uacute" format="2">
  <advance width="436"/>
  <unicode hex="00FA"/>
  <outline>
    <contour>
      <point x="380" y="97" type="curve"/>
      <point x="380" y="0" type="line"/>
      <point x="401" y="0" type="line"/>
      <point x="401" y="499" type="line"/>
      <point x="380" y="499" type="line"/>
      <point x="380" y="168" type="line" smooth="yes"/>
      <point x="380" y="87"/>
      <point x="320" y="15"/>
      <point x="225" y="9" type="curve" smooth="yes"/>
      <point x="117" y="1"/>
      <point x="51" y="43"/>
      <point x="51" y="155" type="curve" smooth="yes"/>
      <point x="51" y="499" type="line"/>
      <point x="31" y="499" type="line"/>
      <point x="31" y="156" type="line" smooth="yes"/>
      <point x="31" y="0"/>
      <point x="151" y="-13"/>
      <point x="225" y="-9" type="curve" smooth="yes"/>
      <point x="286" y="-4"/>
      <point x="353" y="29"/>
    </contour>
    <contour>
      <point x="262" y="657" type="curve" smooth="yes"/>
      <point x="211" y="542" type="line"/>
      <point x="233" y="542" type="line"/>
      <point x="287" y="642" type="line"/>
      <point x="292" y="650"/>
      <point x="292" y="661"/>
      <point x="283" y="665" type="curve"/>
      <point x="275" y="670"/>
      <point x="266" y="665"/>
    </contour>
  </outline>
</glyph>
<glyph name="yacute" format="2">
  <advance width="456"/>
  <unicode hex="00FD"/>
  <outline>
    <contour>
      <point x="426" y="499" type="curve"/>
      <point x="413" y="510" type="line"/>
      <point x="389" y="485"/>
      <point x="383" y="465"/>
      <point x="383" y="418" type="curve" smooth="yes"/>
      <point x="383" y="169" type="line" smooth="yes"/>
      <point x="383" y="88"/>
      <point x="320" y="16"/>
      <point x="225" y="10" type="curve" smooth="yes"/>
      <point x="118" y="2"/>
      <point x="51" y="44"/>
      <point x="51" y="156" type="curve" smooth="yes"/>
      <point x="51" y="499" type="line"/>
      <point x="31" y="499" type="line"/>
      <point x="31" y="157" type="line" smooth="yes"/>
      <point x="31" y="1"/>
      <point x="152" y="-12"/>
      <point x="226" y="-8" type="curve" smooth="yes"/>
      <point x="287" y="-3"/>
      <point x="357" y="30"/>
      <point x="383" y="99" type="curve"/>
      <point x="383" y="-66" type="line" smooth="yes"/>
      <point x="383" y="-110"/>
      <point x="372" y="-142"/>
      <point x="351" y="-160" type="curve" smooth="yes"/>
      <point x="328" y="-178"/>
      <point x="319" y="-183"/>
      <point x="289" y="-195" type="curve"/>
      <point x="295" y="-212" type="line"/>
      <point x="325" y="-202"/>
      <point x="348" y="-190"/>
      <point x="364" y="-174" type="curve" smooth="yes"/>
      <point x="390" y="-149"/>
      <point x="400" y="-114"/>
      <point x="400" y="-67" type="curve" smooth="yes"/>
      <point x="400" y="417" type="line" smooth="yes"/>
      <point x="400" y="461"/>
      <point x="405" y="482"/>
    </contour>
    <contour>
      <point x="279" y="657" type="curve"/>
      <point x="227" y="543" type="line"/>
      <point x="248" y="543" type="line"/>
      <point x="304" y="643" type="line" smooth="yes"/>
      <point x="308" y="651"/>
      <point x="308" y="662"/>
      <point x="300" y="667" type="curve"/>
      <point x="291" y="671"/>
      <point x="282" y="665"/>
    </contour>
  </outline>
</glyph>
<glyph name="ydieresis" format="2">
  <advance width="458"/>
  <unicode hex="00FF"/>
  <outline>
    <contour>
      <point x="428" y="499" type="curve"/>
      <point x="415" y="510" type="line"/>
      <point x="391" y="485"/>
      <point x="385" y="465"/>
      <point x="385" y="418" type="curve" smooth="yes"/>
      <point x="385" y="169" type="line" smooth="yes"/>
      <point x="385" y="88"/>
      <point x="323" y="16"/>
      <point x="227" y="10" type="curve" smooth="yes"/>
      <point x="120" y="2"/>
      <point x="53" y="44"/>
      <point x="53" y="156" type="curve" smooth="yes"/>
      <point x="53" y="499" type="line"/>
      <point x="33" y="499" type="line"/>
      <point x="33" y="157" type="line" smooth="yes"/>
      <point x="33" y="1"/>
      <point x="154" y="-12"/>
      <point x="228" y="-8" type="curve" smooth="yes"/>
      <point x="290" y="-3"/>
      <point x="359" y="30"/>
      <point x="385" y="99" type="curve"/>
      <point x="385" y="-66" type="line" smooth="yes"/>
      <point x="385" y="-110"/>
      <point x="374" y="-142"/>
      <point x="353" y="-160" type="curve" smooth="yes"/>
      <point x="330" y="-178"/>
      <point x="321" y="-183"/>
      <point x="291" y="-195" type="curve"/>
      <point x="297" y="-212" type="line"/>
      <point x="327" y="-202"/>
      <point x="350" y="-190"/>
      <point x="367" y="-174" type="curve" smooth="yes"/>
      <point x="392" y="-149"/>
      <point x="402" y="-114"/>
      <point x="402" y="-67" type="curve" smooth="yes"/>
      <point x="402" y="417" type="line" smooth="yes"/>
      <point x="402" y="461"/>
      <point x="407" y="482"/>
    </contour>
    <contour>
      <point x="310" y="619" type="curve" smooth="yes"/>
      <point x="302" y="619"/>
      <point x="294" y="612"/>
      <point x="294" y="602" type="curve" smooth="yes"/>
      <point x="294" y="593"/>
      <point x="302" y="585"/>
      <point x="310" y="585" type="curve" smooth="yes"/>
      <point x="320" y="585"/>
      <point x="328" y="593"/>
      <point x="328" y="602" type="curve" smooth="yes"/>
      <point x="328" y="612"/>
      <point x="320" y="619"/>
    </contour>
    <contour>
      <point x="153" y="619" type="curve" smooth="yes"/>
      <point x="143" y="619"/>
      <point x="136" y="612"/>
      <point x="136" y="602" type="curve" smooth="yes"/>
      <point x="136" y="593"/>
      <point x="143" y="585"/>
      <point x="153" y="585" type="curve" smooth="yes"/>
      <point x="162" y="585"/>
      <point x="170" y="593"/>
      <point x="170" y="602" type="curve" smooth="yes"/>
      <point x="170" y="612"/>
      <point x="162" y="619"/>
    </contour>
  </outline>
</glyph>
<glyph name="Amacron" format="2">
  <advance width="543"/>
  <unicode hex="0100"/>
  <outline>
    <contour>
      <point x="524" y="0" type="line"/>
      <point x="279" y="698" type="line"/>
      <point x="265" y="698" type="line"/>
      <point x="20" y="0" type="line"/>
      <point x="40" y="0" type="line"/>
      <point x="138" y="280" type="line"/>
      <point x="405" y="280" type="line"/>
      <point x="503" y="0" type="line"/>
    </contour>
    <contour>
      <point x="146" y="299" type="line"/>
      <point x="272" y="658" type="line"/>
      <point x="399" y="299" type="line"/>
    </contour>
    <contour>
      <point x="169" y="780" type="line"/>
      <point x="389" y="780" type="line"/>
      <point x="389" y="799" type="line"/>
      <point x="169" y="799" type="line"/>
    </contour>
  </outline>
</glyph>
<glyph name="Abreve" format="2">
  <advance width="542"/>
  <unicode hex="0102"/>
  <outline>
    <contour>
      <point x="524" y="0" type="line"/>
      <point x="279" y="698" type="line"/>
      <point x="265" y="698" type="line"/>
      <point x="20" y="0" type="line"/>
      <point x="40" y="0" type="line"/>
      <point x="138" y="280" type="line"/>
      <point x="405" y="280" type="line"/>
      <point x="503" y="0" type="line"/>
    </contour>
    <contour>
      <point x="146" y="299" type="line"/>
      <point x="272" y="658" type="line"/>
      <point x="399" y="299" type="line"/>
    </contour>
    <contour>
      <point x="183" y="855" type="curve" smooth="yes"/>
      <point x="183" y="861" type="line"/>
      <point x="160" y="861" type="line"/>
      <point x="160" y="855" type="line" smooth="yes"/>
      <point x="160" y="792"/>
      <point x="211" y="741"/>
      <point x="273" y="741" type="curve" smooth="yes"/>
      <point x="336" y="741"/>
      <point x="387" y="792"/>
      <point x="387" y="855" type="curve" smooth="yes"/>
      <point x="387" y="861" type="line"/>
      <point x="365" y="861" type="line"/>
      <point x="365" y="855" type="line" smooth="yes"/>
      <point x="365" y="804"/>
      <point x="324" y="763"/>
      <point x="273" y="763" type="curve" smooth="yes"/>
      <point x="224" y="763"/>
      <point x="183" y="804"/>
    </contour>
  </outline>
</glyph>
<glyph name="abreve" format="2">
  <advance width="443"/>
  <unicode hex="0103"/>
  <outline>
    <contour>
      <point x="391" y="345" type="curve"/>
      <point x="332" y="374"/>
      <point x="260" y="403"/>
      <point x="187" y="403" type="curve" smooth="yes"/>
      <point x="53" y="403"/>
      <point x="26" y="315"/>
      <point x="26" y="251" type="curve"/>
      <point x="26" y="251"/>
      <point x="26" y="168"/>
      <point x="26" y="168" type="curve"/>
      <point x="26" y="50"/>
      <point x="85" y="-10"/>
      <point x="230" y="-10" type="curve" smooth="yes"/>
      <point x="271" y="-10"/>
      <point x="410" y="0"/>
      <point x="410" y="0" type="curve"/>
      <point x="410" y="0"/>
      <point x="410" y="212"/>
      <point x="410" y="335" type="curve" smooth="yes"/>
      <point x="410" y="395"/>
      <point x="390" y="441"/>
      <point x="349" y="470" type="curve" smooth="yes"/>
      <point x="315" y="495"/>
      <point x="267" y="507"/>
      <point x="202" y="507" type="curve"/>
      <point x="201" y="488" type="line"/>
      <point x="269" y="488"/>
      <point x="306" y="477"/>
      <point x="336" y="457" type="curve" smooth="yes"/>
      <point x="372" y="431"/>
      <point x="391" y="392"/>
    </contour>
    <contour>
      <point x="391" y="322" type="curve"/>
      <point x="391" y="322"/>
      <point x="391" y="18"/>
      <point x="391" y="18" type="curve"/>
      <point x="391" y="18"/>
      <point x="277" y="8"/>
      <point x="230" y="8" type="curve" smooth="yes"/>
      <point x="74" y="4"/>
      <point x="45" y="90"/>
      <point x="45" y="162" type="curve" smooth="yes"/>
      <point x="45" y="185"/>
      <point x="45" y="221"/>
      <point x="45" y="249" type="curve" smooth="yes"/>
      <point x="45" y="323"/>
      <point x="83" y="383"/>
      <point x="186" y="383" type="curve" smooth="yes"/>
      <point x="259" y="383"/>
      <point x="321" y="358"/>
    </contour>
    <contour>
      <point x="332" y="661" type="curve" smooth="yes"/>
      <point x="332" y="668" type="line"/>
      <point x="310" y="668" type="line"/>
      <point x="310" y="661" type="line" smooth="yes"/>
      <point x="310" y="610"/>
      <point x="269" y="570"/>
      <point x="218" y="570" type="curve" smooth="yes"/>
      <point x="168" y="570"/>
      <point x="127" y="610"/>
      <point x="127" y="661" type="curve" smooth="yes"/>
      <point x="127" y="668" type="line"/>
      <point x="105" y="668" type="line"/>
      <point x="105" y="661" type="line" smooth="yes"/>
      <point x="105" y="598"/>
      <point x="156" y="548"/>
      <point x="218" y="548" type="curve" smooth="yes"/>
      <point x="280" y="548"/>
      <point x="332" y="598"/>
    </contour>
  </outline>
</glyph>
<glyph name="Aogonek" format="2">
  <advance width="594"/>
  <unicode hex="0104"/>
  <outline>
    <contour>
      <point x="524" y="0" type="line"/>
      <point x="279" y="698" type="line"/>
      <point x="265" y="698" type="line"/>
      <point x="20" y="0" type="line"/>
      <point x="40" y="0" type="line"/>
      <point x="138" y="280" type="line"/>
      <point x="405" y="280" type="line"/>
      <point x="503" y="0" type="line"/>
    </contour>
    <contour>
      <point x="146" y="299" type="line"/>
      <point x="272" y="658" type="line"/>
      <point x="399" y="299" type="line"/>
    </contour>
    <contour>
      <point x="447" y="-128" type="curve" smooth="yes"/>
      <point x="521" y="-2" type="line"/>
      <point x="521" y="7" type="line"/>
      <point x="504" y="4" type="line"/>
      <point x="504" y="-1" type="line"/>
      <point x="432" y="-119" type="line" smooth="yes"/>
      <point x="396" y="-182"/>
      <point x="442" y="-243"/>
      <point x="514" y="-232" type="curve" smooth="yes"/>
      <point x="528" y="-230"/>
      <point x="604" y="-202"/>
      <point x="604" y="-202" type="curve"/>
      <point x="598" y="-184" type="line"/>
      <point x="598" y="-184"/>
      <point x="560" y="-197"/>
      <point x="526" y="-208" type="curve" smooth="yes"/>
      <point x="462" y="-230"/>
      <point x="416" y="-183"/>
    </contour>
  </outline>
</glyph>
<glyph name="aogonek" format="2">
  <advance width="492"/>
  <unicode hex="0105"/>
  <outline>
    <contour>
      <point x="390" y="345" type="curve"/>
      <point x="330" y="374"/>
      <point x="259" y="403"/>
      <point x="186" y="403" type="curve" smooth="yes"/>
      <point x="52" y="403"/>
      <point x="25" y="315"/>
      <point x="25" y="251" type="curve"/>
      <point x="25" y="251"/>
      <point x="25" y="168"/>
      <point x="25" y="168" type="curve"/>
      <point x="25" y="50"/>
      <point x="84" y="-10"/>
      <point x="229" y="-10" type="curve" smooth="yes"/>
      <point x="270" y="-10"/>
      <point x="409" y="0"/>
      <point x="409" y="0" type="curve"/>
      <point x="409" y="0"/>
      <point x="409" y="212"/>
      <point x="409" y="335" type="curve" smooth="yes"/>
      <point x="409" y="395"/>
      <point x="389" y="441"/>
      <point x="348" y="470" type="curve" smooth="yes"/>
      <point x="314" y="495"/>
      <point x="266" y="507"/>
      <point x="201" y="507" type="curve"/>
      <point x="200" y="488" type="line"/>
      <point x="268" y="488"/>
      <point x="305" y="477"/>
      <point x="335" y="457" type="curve" smooth="yes"/>
      <point x="371" y="431"/>
      <point x="390" y="392"/>
    </contour>
    <contour>
      <point x="390" y="322" type="curve"/>
      <point x="390" y="322"/>
      <point x="390" y="18"/>
      <point x="390" y="18" type="curve"/>
      <point x="390" y="18"/>
      <point x="275" y="8"/>
      <point x="229" y="8" type="curve" smooth="yes"/>
      <point x="73" y="4"/>
      <point x="43" y="90"/>
      <point x="43" y="162" type="curve" smooth="yes"/>
      <point x="43" y="185"/>
      <point x="43" y="221"/>
      <point x="43" y="249" type="curve" smooth="yes"/>
      <point x="43" y="323"/>
      <point x="82" y="383"/>
      <point x="185" y="383" type="curve" smooth="yes"/>
      <point x="258" y="383"/>
      <point x="319" y="358"/>
    </contour>
    <contour>
      <point x="334" y="-132" type="curve" smooth="yes"/>
      <point x="349" y="-107"/>
      <point x="405" y="-8"/>
      <point x="406" y="-7" type="curve"/>
      <point x="406" y="2" type="line"/>
      <point x="406" y="2"/>
      <point x="394" y="1"/>
      <point x="390" y="1" type="curve"/>
      <point x="390" y="-1"/>
      <point x="390" y="-3"/>
      <point x="390" y="-6" type="curve"/>
      <point x="317" y="-123" type="line"/>
      <point x="282" y="-186"/>
      <point x="327" y="-248"/>
      <point x="400" y="-235" type="curve" smooth="yes"/>
      <point x="414" y="-233"/>
      <point x="491" y="-207"/>
      <point x="491" y="-207" type="curve"/>
      <point x="485" y="-187" type="line"/>
      <point x="485" y="-187"/>
      <point x="446" y="-200"/>
      <point x="413" y="-212" type="curve" smooth="yes"/>
      <point x="347" y="-233"/>
      <point x="303" y="-186"/>
    </contour>
  </outline>
</glyph>
<glyph name="Cacute" format="2">
  <advance width="419"/>
  <unicode hex="0106"/>
  <outline>
    <contour>
      <point x="361" y="658" type="curve"/>
      <point x="369" y="675" type="line"/>
      <point x="328" y="697"/>
      <point x="281" y="708"/>
      <point x="227" y="708" type="curve" smooth="yes"/>
      <point x="185" y="708"/>
      <point x="149" y="700"/>
      <point x="120" y="683" type="curve" smooth="yes"/>
      <point x="62" y="647"/>
      <point x="33" y="603"/>
      <point x="33" y="503" type="curve" smooth="yes"/>
      <point x="33" y="183" type="line" smooth="yes"/>
      <point x="33" y="99"/>
      <point x="66" y="42"/>
      <point x="115" y="15" type="curve" smooth="yes"/>
      <point x="163" y="-10"/>
      <point x="212" y="-10"/>
      <point x="232" y="-10" type="curve" smooth="yes"/>
      <point x="283" y="-10"/>
      <point x="337" y="1"/>
      <point x="394" y="23" type="curve"/>
      <point x="388" y="41" type="line"/>
      <point x="329" y="18"/>
      <point x="277" y="7"/>
      <point x="238" y="7" type="curve" smooth="yes"/>
      <point x="199" y="7"/>
      <point x="155" y="12"/>
      <point x="125" y="32" type="curve" smooth="yes"/>
      <point x="83" y="58"/>
      <point x="51" y="106"/>
      <point x="52" y="185" type="curve" smooth="yes"/>
      <point x="52" y="512" type="line" smooth="yes"/>
      <point x="52" y="572"/>
      <point x="74" y="619"/>
      <point x="98" y="643" type="curve" smooth="yes"/>
      <point x="124" y="668"/>
      <point x="170" y="689"/>
      <point x="230" y="689" type="curve" smooth="yes"/>
      <point x="271" y="689"/>
      <point x="314" y="679"/>
    </contour>
    <contour>
      <point x="265" y="856" type="curve"/>
      <point x="215" y="741" type="line"/>
      <point x="236" y="741" type="line"/>
      <point x="291" y="842" type="line"/>
      <point x="296" y="849"/>
      <point x="296" y="860"/>
      <point x="287" y="865" type="curve" smooth="yes"/>
      <point x="279" y="869"/>
      <point x="270" y="864"/>
    </contour>
  </outline>
</glyph>
<glyph name="cacute" format="2">
  <advance width="376"/>
  <unicode hex="0107"/>
  <outline>
    <contour>
      <point x="338" y="457" type="curve"/>
      <point x="345" y="476" type="line"/>
      <point x="287" y="504"/>
      <point x="221" y="516"/>
      <point x="163" y="504" type="curve" smooth="yes"/>
      <point x="118" y="494"/>
      <point x="80" y="470"/>
      <point x="54" y="426" type="curve" smooth="yes"/>
      <point x="35" y="394"/>
      <point x="28" y="362"/>
      <point x="26" y="318" type="curve"/>
      <point x="26" y="173" type="line" smooth="yes"/>
      <point x="26" y="75"/>
      <point x="70" y="23"/>
      <point x="138" y="1" type="curve" smooth="yes"/>
      <point x="198" y="-18"/>
      <point x="280" y="-13"/>
      <point x="347" y="5" type="curve"/>
      <point x="343" y="25" type="line"/>
      <point x="343" y="25"/>
      <point x="228" y="-9"/>
      <point x="139" y="21" type="curve" smooth="yes"/>
      <point x="68" y="45"/>
      <point x="45" y="98"/>
      <point x="45" y="175" type="curve" smooth="yes"/>
      <point x="45" y="312" type="line" smooth="yes"/>
      <point x="45" y="355"/>
      <point x="54" y="389"/>
      <point x="71" y="416" type="curve" smooth="yes"/>
      <point x="93" y="453"/>
      <point x="128" y="476"/>
      <point x="171" y="485" type="curve" smooth="yes"/>
      <point x="221" y="496"/>
      <point x="280" y="486"/>
    </contour>
    <contour>
      <point x="248" y="662" type="curve"/>
      <point x="196" y="548" type="line"/>
      <point x="217" y="548" type="line"/>
      <point x="273" y="648" type="line" smooth="yes"/>
      <point x="278" y="656"/>
      <point x="278" y="667"/>
      <point x="269" y="671" type="curve" smooth="yes"/>
      <point x="261" y="675"/>
      <point x="251" y="670"/>
    </contour>
  </outline>
</glyph>
<glyph name="Ccircumflex" format="2">
  <advance width="420"/>
  <unicode hex="0108"/>
  <outline>
    <contour>
      <point x="362" y="658" type="curve"/>
      <point x="370" y="675" type="line"/>
      <point x="329" y="697"/>
      <point x="282" y="708"/>
      <point x="228" y="708" type="curve" smooth="yes"/>
      <point x="186" y="708"/>
      <point x="150" y="700"/>
      <point x="121" y="683" type="curve" smooth="yes"/>
      <point x="63" y="647"/>
      <point x="34" y="603"/>
      <point x="34" y="503" type="curve" smooth="yes"/>
      <point x="34" y="183" type="line" smooth="yes"/>
      <point x="34" y="99"/>
      <point x="67" y="42"/>
      <point x="116" y="15" type="curve" smooth="yes"/>
      <point x="164" y="-10"/>
      <point x="213" y="-10"/>
      <point x="234" y="-10" type="curve" smooth="yes"/>
      <point x="284" y="-10"/>
      <point x="338" y="1"/>
      <point x="395" y="23" type="curve"/>
      <point x="389" y="41" type="line"/>
      <point x="330" y="18"/>
      <point x="279" y="7"/>
      <point x="239" y="7" type="curve" smooth="yes"/>
      <point x="201" y="7"/>
      <point x="156" y="12"/>
      <point x="126" y="32" type="curve" smooth="yes"/>
      <point x="84" y="58"/>
      <point x="52" y="106"/>
      <point x="53" y="185" type="curve" smooth="yes"/>
      <point x="53" y="512" type="line" smooth="yes"/>
      <point x="53" y="572"/>
      <point x="75" y="619"/>
      <point x="99" y="643" type="curve" smooth="yes"/>
      <point x="125" y="668"/>
      <point x="171" y="689"/>
      <point x="231" y="689" type="curve" smooth="yes"/>
      <point x="272" y="689"/>
      <point x="315" y="679"/>
    </contour>
    <contour>
      <point x="94" y="756" type="line"/>
      <point x="108" y="741" type="line"/>
      <point x="216" y="846" type="line"/>
      <point x="320" y="741" type="line"/>
      <point x="336" y="757" type="line"/>
      <point x="216" y="875" type="line"/>
    </contour>
  </outline>
</glyph>
<glyph name="ccircumflex" format="2">
  <advance width="378"/>
  <unicode hex="0109"/>
  <outline>
    <contour>
      <point x="339" y="457" type="curve"/>
      <point x="346" y="476" type="line"/>
      <point x="288" y="504"/>
      <point x="222" y="516"/>
      <point x="164" y="504" type="curve" smooth="yes"/>
      <point x="119" y="494"/>
      <point x="81" y="470"/>
      <point x="55" y="426" type="curve" smooth="yes"/>
      <point x="36" y="394"/>
      <point x="29" y="362"/>
      <point x="27" y="318" type="curve"/>
      <point x="27" y="173" type="line" smooth="yes"/>
      <point x="27" y="75"/>
      <point x="71" y="23"/>
      <point x="139" y="1" type="curve" smooth="yes"/>
      <point x="199" y="-18"/>
      <point x="281" y="-13"/>
      <point x="348" y="5" type="curve"/>
      <point x="344" y="25" type="line"/>
      <point x="344" y="25"/>
      <point x="229" y="-9"/>
      <point x="140" y="21" type="curve" smooth="yes"/>
      <point x="69" y="45"/>
      <point x="46" y="98"/>
      <point x="46" y="175" type="curve" smooth="yes"/>
      <point x="46" y="312" type="line" smooth="yes"/>
      <point x="46" y="355"/>
      <point x="55" y="389"/>
      <point x="72" y="416" type="curve" smooth="yes"/>
      <point x="94" y="453"/>
      <point x="129" y="476"/>
      <point x="172" y="485" type="curve" smooth="yes"/>
      <point x="222" y="496"/>
      <point x="281" y="486"/>
    </contour>
    <contour>
      <point x="97" y="562" type="line"/>
      <point x="112" y="548" type="line"/>
      <point x="219" y="651" type="line"/>
      <point x="324" y="547" type="line"/>
      <point x="339" y="562" type="line"/>
      <point x="219" y="680" type="line"/>
    </contour>
  </outline>
</glyph>
<glyph name="Cdotaccent" format="2">
  <advance width="420"/>
  <unicode hex="010A"/>
  <outline>
    <contour>
      <point x="362" y="658" type="curve"/>
      <point x="370" y="675" type="line"/>
      <point x="329" y="697"/>
      <point x="282" y="708"/>
      <point x="228" y="708" type="curve" smooth="yes"/>
      <point x="186" y="708"/>
      <point x="150" y="700"/>
      <point x="121" y="683" type="curve" smooth="yes"/>
      <point x="63" y="647"/>
      <point x="34" y="603"/>
      <point x="34" y="503" type="curve" smooth="yes"/>
      <point x="34" y="183" type="line" smooth="yes"/>
      <point x="34" y="99"/>
      <point x="67" y="42"/>
      <point x="116" y="15" type="curve" smooth="yes"/>
      <point x="164" y="-10"/>
      <point x="213" y="-10"/>
      <point x="233" y="-10" type="curve" smooth="yes"/>
      <point x="284" y="-10"/>
      <point x="338" y="1"/>
      <point x="395" y="23" type="curve"/>
      <point x="389" y="41" type="line"/>
      <point x="330" y="18"/>
      <point x="278" y="7"/>
      <point x="239" y="7" type="curve" smooth="yes"/>
      <point x="200" y="7"/>
      <point x="156" y="12"/>
      <point x="126" y="32" type="curve" smooth="yes"/>
      <point x="84" y="58"/>
      <point x="52" y="106"/>
      <point x="53" y="185" type="curve" smooth="yes"/>
      <point x="53" y="512" type="line" smooth="yes"/>
      <point x="53" y="572"/>
      <point x="75" y="619"/>
      <point x="99" y="643" type="curve" smooth="yes"/>
      <point x="125" y="668"/>
      <point x="171" y="689"/>
      <point x="231" y="689" type="curve" smooth="yes"/>
      <point x="272" y="689"/>
      <point x="315" y="679"/>
    </contour>
    <contour>
      <point x="218" y="818" type="curve" smooth="yes"/>
      <point x="208" y="818"/>
      <point x="200" y="811"/>
      <point x="200" y="801" type="curve" smooth="yes"/>
      <point x="200" y="792"/>
      <point x="208" y="784"/>
      <point x="218" y="784" type="curve" smooth="yes"/>
      <point x="227" y="784"/>
      <point x="235" y="792"/>
      <point x="235" y="801" type="curve" smooth="yes"/>
      <point x="235" y="811"/>
      <point x="227" y="818"/>
    </contour>
  </outline>
</glyph>
<glyph name="Dcaron" format="2">
  <advance width="494"/>
  <unicode hex="010E"/>
  <outline>
    <contour>
      <point x="229" y="698" type="curve" smooth="yes"/>
      <point x="41" y="698" type="line"/>
      <point x="41" y="0" type="line"/>
      <point x="249" y="0" type="line" smooth="yes"/>
      <point x="390" y="0"/>
      <point x="460" y="67"/>
      <point x="460" y="199" type="curve" smooth="yes"/>
      <point x="460" y="473" type="line" smooth="yes"/>
      <point x="460" y="609"/>
      <point x="379" y="698"/>
    </contour>
    <contour>
      <point x="239" y="20" type="curve" smooth="yes"/>
      <point x="60" y="20" type="line"/>
      <point x="60" y="678" type="line"/>
      <point x="239" y="678" type="line" smooth="yes"/>
      <point x="374" y="678"/>
      <point x="441" y="592"/>
      <point x="441" y="466" type="curve" smooth="yes"/>
      <point x="441" y="213" type="line" smooth="yes"/>
      <point x="441" y="63"/>
      <point x="367" y="20"/>
    </contour>
    <contour>
      <point x="216" y="772" type="line"/>
      <point x="111" y="876" type="line"/>
      <point x="96" y="861" type="line"/>
      <point x="216" y="743" type="line"/>
      <point x="339" y="861" type="line"/>
      <point x="324" y="876" type="line"/>
    </contour>
  </outline>
</glyph>
<glyph name="dcaron" format="2">
  <advance width="524"/>
  <unicode hex="010F"/>
  <outline>
    <contour>
      <point x="412" y="-1" type="curve"/>
      <point x="412" y="698" type="line"/>
      <point x="393" y="698" type="line"/>
      <point x="393" y="470" type="line"/>
      <point x="341" y="492"/>
      <point x="279" y="508"/>
      <point x="206" y="508" type="curve" smooth="yes"/>
      <point x="72" y="508"/>
      <point x="28" y="421"/>
      <point x="28" y="358" type="curve"/>
      <point x="28" y="358"/>
      <point x="28" y="169"/>
      <point x="28" y="168" type="curve" smooth="yes"/>
      <point x="28" y="50"/>
      <point x="87" y="-11"/>
      <point x="233" y="-11" type="curve" smooth="yes"/>
      <point x="273" y="-11"/>
      <point x="412" y="-1"/>
    </contour>
    <contour>
      <point x="393" y="450" type="curve"/>
      <point x="393" y="450"/>
      <point x="393" y="18"/>
      <point x="393" y="18" type="curve"/>
      <point x="393" y="18"/>
      <point x="280" y="8"/>
      <point x="233" y="7" type="curve" smooth="yes"/>
      <point x="76" y="4"/>
      <point x="47" y="89"/>
      <point x="47" y="161" type="curve" smooth="yes"/>
      <point x="47" y="182"/>
      <point x="47" y="330"/>
      <point x="47" y="354" type="curve" smooth="yes"/>
      <point x="47" y="429"/>
      <point x="102" y="491"/>
      <point x="205" y="491" type="curve" smooth="yes"/>
      <point x="279" y="491"/>
      <point x="340" y="474"/>
    </contour>
    <contour>
      <point x="458" y="577" type="curve"/>
      <point x="467" y="571" type="line"/>
      <point x="467" y="571"/>
      <point x="505" y="595"/>
      <point x="505" y="648" type="curve" smooth="yes"/>
      <point x="505" y="658"/>
      <point x="499" y="665"/>
      <point x="489" y="665" type="curve" smooth="yes"/>
      <point x="480" y="665"/>
      <point x="472" y="658"/>
      <point x="472" y="648" type="curve" smooth="yes"/>
      <point x="472" y="640"/>
      <point x="477" y="635"/>
      <point x="483" y="632" type="curve"/>
      <point x="482" y="618"/>
      <point x="478" y="596"/>
    </contour>
  </outline>
</glyph>
<glyph name="dslash" format="2">
  <advance width="485"/>
  <unicode hex="0111"/>
  <outline>
    <contour>
      <point x="412" y="-1" type="curve"/>
      <point x="412" y="595" type="line"/>
      <point x="459" y="595" type="line"/>
      <point x="459" y="615" type="line"/>
      <point x="412" y="615" type="line"/>
      <point x="412" y="698" type="line"/>
      <point x="393" y="698" type="line"/>
      <point x="393" y="615" type="line"/>
      <point x="223" y="615" type="line"/>
      <point x="223" y="595" type="line"/>
      <point x="393" y="595" type="line"/>
      <point x="393" y="470" type="line"/>
      <point x="341" y="492"/>
      <point x="279" y="508"/>
      <point x="206" y="508" type="curve" smooth="yes"/>
      <point x="72" y="508"/>
      <point x="28" y="421"/>
      <point x="28" y="358" type="curve" smooth="yes"/>
      <point x="28" y="168" type="line" smooth="yes"/>
      <point x="28" y="50"/>
      <point x="87" y="-11"/>
      <point x="233" y="-11" type="curve" smooth="yes"/>
      <point x="273" y="-11"/>
      <point x="412" y="-1"/>
    </contour>
    <contour>
      <point x="393" y="450" type="curve"/>
      <point x="393" y="18" type="line"/>
      <point x="393" y="18"/>
      <point x="280" y="8"/>
      <point x="233" y="7" type="curve" smooth="yes"/>
      <point x="76" y="4"/>
      <point x="47" y="89"/>
      <point x="47" y="161" type="curve" smooth="yes"/>
      <point x="47" y="354" type="line" smooth="yes"/>
      <point x="47" y="429"/>
      <point x="102" y="491"/>
      <point x="205" y="491" type="curve" smooth="yes"/>
      <point x="279" y="491"/>
      <point x="340" y="474"/>
    </contour>
  </outline>
</glyph>
<glyph name="emacron" format="2">
  <advance width="421"/>
  <unicode hex="0113"/>
  <outline>
    <contour>
      <point x="50" y="132" type="curve" smooth="yes"/>
      <point x="50" y="229" type="line"/>
      <point x="391" y="246" type="line"/>
      <point x="391" y="341" type="line" smooth="yes"/>
      <point x="391" y="402"/>
      <point x="369" y="448"/>
      <point x="330" y="476" type="curve" smooth="yes"/>
      <point x="301" y="497"/>
      <point x="262" y="508"/>
      <point x="215" y="508" type="curve" smooth="yes"/>
      <point x="160" y="508"/>
      <point x="114" y="493"/>
      <point x="82" y="463" type="curve" smooth="yes"/>
      <point x="50" y="435"/>
      <point x="31" y="392"/>
      <point x="31" y="338" type="curve" smooth="yes"/>
      <point x="31" y="133" type="line" smooth="yes"/>
      <point x="31" y="80"/>
      <point x="49" y="42"/>
      <point x="83" y="19" type="curve" smooth="yes"/>
      <point x="111" y="-2"/>
      <point x="152" y="-12"/>
      <point x="205" y="-12" type="curve" smooth="yes"/>
      <point x="261" y="-12"/>
      <point x="315" y="4"/>
      <point x="365" y="35" type="curve"/>
      <point x="357" y="52" type="line"/>
      <point x="299" y="20"/>
      <point x="257" y="7"/>
      <point x="203" y="7" type="curve" smooth="yes"/>
      <point x="158" y="7"/>
      <point x="122" y="14"/>
      <point x="93" y="35" type="curve" smooth="yes"/>
      <point x="64" y="56"/>
      <point x="50" y="88"/>
    </contour>
    <contour>
      <point x="371" y="342" type="curve" smooth="yes"/>
      <point x="371" y="322"/>
      <point x="371" y="282"/>
      <point x="371" y="264" type="curve"/>
      <point x="50" y="248" type="line"/>
      <point x="50" y="268"/>
      <point x="50" y="311"/>
      <point x="50" y="332" type="curve" smooth="yes"/>
      <point x="50" y="391"/>
      <point x="69" y="428"/>
      <point x="95" y="452" type="curve" smooth="yes"/>
      <point x="128" y="482"/>
      <point x="174" y="491"/>
      <point x="212" y="491" type="curve" smooth="yes"/>
      <point x="248" y="491"/>
      <point x="287" y="484"/>
      <point x="318" y="461" type="curve" smooth="yes"/>
      <point x="349" y="439"/>
      <point x="371" y="402"/>
    </contour>
    <contour>
      <point x="100" y="586" type="line"/>
      <point x="321" y="586" type="line"/>
      <point x="321" y="605" type="line"/>
      <point x="100" y="605" type="line"/>
    </contour>
  </outline>
</glyph>
<glyph name="Edotaccent" format="2">
  <advance width="402"/>
  <unicode hex="0116"/>
  <outline>
    <contour>
      <point x="41" y="0" type="line"/>
      <point x="372" y="0" type="line"/>
      <point x="372" y="19" type="line"/>
      <point x="60" y="19" type="line"/>
      <point x="60" y="393" type="line"/>
      <point x="281" y="393" type="line"/>
      <point x="287" y="411" type="line"/>
      <point x="60" y="411" type="line"/>
      <point x="60" y="679" type="line"/>
      <point x="374" y="679" type="line"/>
      <point x="374" y="698" type="line"/>
      <point x="41" y="698" type="line"/>
    </contour>
    <contour>
      <point x="219" y="820" type="curve" smooth="yes"/>
      <point x="210" y="820"/>
      <point x="203" y="812"/>
      <point x="203" y="802" type="curve" smooth="yes"/>
      <point x="203" y="793"/>
      <point x="210" y="785"/>
      <point x="219" y="785" type="curve" smooth="yes"/>
      <point x="229" y="785"/>
      <point x="237" y="793"/>
      <point x="237" y="802" type="curve" smooth="yes"/>
      <point x="237" y="812"/>
      <point x="229" y="820"/>
    </contour>
  </outline>
</glyph>
<glyph name="edotaccent" format="2">
  <advance width="417"/>
  <unicode hex="0117"/>
  <outline>
    <contour>
      <point x="47" y="132" type="curve" smooth="yes"/>
      <point x="47" y="229" type="line"/>
      <point x="388" y="246" type="line"/>
      <point x="388" y="341" type="line" smooth="yes"/>
      <point x="388" y="402"/>
      <point x="366" y="448"/>
      <point x="327" y="476" type="curve" smooth="yes"/>
      <point x="297" y="497"/>
      <point x="259" y="508"/>
      <point x="212" y="508" type="curve" smooth="yes"/>
      <point x="157" y="508"/>
      <point x="111" y="493"/>
      <point x="79" y="463" type="curve" smooth="yes"/>
      <point x="47" y="435"/>
      <point x="28" y="392"/>
      <point x="28" y="338" type="curve" smooth="yes"/>
      <point x="28" y="133" type="line" smooth="yes"/>
      <point x="28" y="80"/>
      <point x="46" y="42"/>
      <point x="80" y="19" type="curve" smooth="yes"/>
      <point x="108" y="-2"/>
      <point x="149" y="-12"/>
      <point x="202" y="-12" type="curve" smooth="yes"/>
      <point x="258" y="-12"/>
      <point x="312" y="4"/>
      <point x="362" y="35" type="curve"/>
      <point x="354" y="52" type="line"/>
      <point x="296" y="20"/>
      <point x="254" y="7"/>
      <point x="200" y="7" type="curve" smooth="yes"/>
      <point x="154" y="7"/>
      <point x="119" y="14"/>
      <point x="90" y="35" type="curve" smooth="yes"/>
      <point x="61" y="56"/>
      <point x="47" y="88"/>
    </contour>
    <contour>
      <point x="368" y="342" type="curve" smooth="yes"/>
      <point x="368" y="322"/>
      <point x="368" y="282"/>
      <point x="368" y="264" type="curve"/>
      <point x="47" y="248" type="line"/>
      <point x="47" y="268"/>
      <point x="47" y="311"/>
      <point x="47" y="332" type="curve" smooth="yes"/>
      <point x="47" y="391"/>
      <point x="65" y="428"/>
      <point x="92" y="452" type="curve" smooth="yes"/>
      <point x="125" y="482"/>
      <point x="171" y="491"/>
      <point x="208" y="491" type="curve" smooth="yes"/>
      <point x="245" y="491"/>
      <point x="284" y="484"/>
      <point x="315" y="461" type="curve" smooth="yes"/>
      <point x="346" y="439"/>
      <point x="368" y="402"/>
    </contour>
    <contour>
      <point x="230" y="609" type="curve" smooth="yes"/>
      <point x="230" y="619"/>
      <point x="223" y="626"/>
      <point x="214" y="626" type="curve" smooth="yes"/>
      <point x="205" y="626"/>
      <point x="197" y="619"/>
      <point x="197" y="609" type="curve" smooth="yes"/>
      <point x="197" y="601"/>
      <point x="205" y="593"/>
      <point x="214" y="593" type="curve" smooth="yes"/>
      <point x="223" y="593"/>
      <point x="230" y="601"/>
    </contour>
  </outline>
</glyph>
<glyph name="Eogonek" format="2">
  <advance width="447"/>
  <unicode hex="0118"/>
  <outline>
    <contour>
      <point x="41" y="0" type="line"/>
      <point x="372" y="0" type="line"/>
      <point x="372" y="19" type="line"/>
      <point x="60" y="19" type="line"/>
      <point x="60" y="393" type="line"/>
      <point x="281" y="393" type="line"/>
      <point x="287" y="411" type="line"/>
      <point x="60" y="411" type="line"/>
      <point x="60" y="679" type="line"/>
      <point x="374" y="679" type="line"/>
      <point x="374" y="698" type="line"/>
      <point x="41" y="698" type="line"/>
    </contour>
    <contour>
      <point x="294" y="-127" type="curve" smooth="yes"/>
      <point x="367" y="-1" type="line"/>
      <point x="367" y="8" type="line"/>
      <point x="350" y="7" type="line"/>
      <point x="350" y="0" type="line"/>
      <point x="279" y="-118" type="line" smooth="yes"/>
      <point x="242" y="-180"/>
      <point x="288" y="-242"/>
      <point x="361" y="-230" type="curve" smooth="yes"/>
      <point x="374" y="-228"/>
      <point x="451" y="-201"/>
      <point x="451" y="-201" type="curve"/>
      <point x="445" y="-182" type="line"/>
      <point x="445" y="-182"/>
      <point x="407" y="-196"/>
      <point x="373" y="-207" type="curve" smooth="yes"/>
      <point x="308" y="-229"/>
      <point x="263" y="-180"/>
    </contour>
  </outline>
</glyph>
<glyph name="eogonek" format="2">
  <advance width="419"/>
  <unicode hex="0119"/>
  <outline>
    <contour>
      <point x="49" y="132" type="curve" smooth="yes"/>
      <point x="49" y="229" type="line"/>
      <point x="390" y="246" type="line"/>
      <point x="390" y="341" type="line" smooth="yes"/>
      <point x="390" y="402"/>
      <point x="368" y="448"/>
      <point x="329" y="476" type="curve" smooth="yes"/>
      <point x="299" y="497"/>
      <point x="261" y="508"/>
      <point x="214" y="508" type="curve" smooth="yes"/>
      <point x="159" y="508"/>
      <point x="113" y="493"/>
      <point x="81" y="463" type="curve" smooth="yes"/>
      <point x="49" y="435"/>
      <point x="30" y="392"/>
      <point x="30" y="338" type="curve" smooth="yes"/>
      <point x="30" y="133" type="line" smooth="yes"/>
      <point x="30" y="80"/>
      <point x="48" y="42"/>
      <point x="82" y="19" type="curve" smooth="yes"/>
      <point x="110" y="-2"/>
      <point x="151" y="-12"/>
      <point x="204" y="-12" type="curve" smooth="yes"/>
      <point x="260" y="-12"/>
      <point x="314" y="4"/>
      <point x="364" y="35" type="curve"/>
      <point x="356" y="52" type="line"/>
      <point x="298" y="20"/>
      <point x="256" y="7"/>
      <point x="202" y="7" type="curve" smooth="yes"/>
      <point x="156" y="7"/>
      <point x="121" y="14"/>
      <point x="92" y="35" type="curve" smooth="yes"/>
      <point x="63" y="56"/>
      <point x="49" y="88"/>
    </contour>
    <contour>
      <point x="370" y="342" type="curve" smooth="yes"/>
      <point x="370" y="322"/>
      <point x="370" y="282"/>
      <point x="370" y="264" type="curve"/>
      <point x="49" y="248" type="line"/>
      <point x="49" y="268"/>
      <point x="49" y="311"/>
      <point x="49" y="332" type="curve" smooth="yes"/>
      <point x="49" y="391"/>
      <point x="67" y="428"/>
      <point x="94" y="452" type="curve" smooth="yes"/>
      <point x="127" y="482"/>
      <point x="173" y="491"/>
      <point x="210" y="491" type="curve" smooth="yes"/>
      <point x="247" y="491"/>
      <point x="286" y="484"/>
      <point x="317" y="461" type="curve" smooth="yes"/>
      <point x="348" y="439"/>
      <point x="370" y="402"/>
    </contour>
    <contour>
      <point x="146" y="-142" type="curve" smooth="yes"/>
      <point x="219" y="-15" type="line"/>
      <point x="219" y="-8" type="line"/>
      <point x="203" y="-9" type="line"/>
      <point x="203" y="-15" type="line"/>
      <point x="130" y="-132" type="line"/>
      <point x="95" y="-195"/>
      <point x="140" y="-256"/>
      <point x="213" y="-245" type="curve" smooth="yes"/>
      <point x="226" y="-243"/>
      <point x="304" y="-217"/>
      <point x="304" y="-217" type="curve"/>
      <point x="296" y="-197" type="line"/>
      <point x="296" y="-197"/>
      <point x="259" y="-210"/>
      <point x="226" y="-221" type="curve" smooth="yes"/>
      <point x="160" y="-243"/>
      <point x="115" y="-196"/>
    </contour>
  </outline>
</glyph>
<glyph name="Ecaron" format="2">
  <advance width="402"/>
  <unicode hex="011A"/>
  <outline>
    <contour>
      <point x="41" y="0" type="line"/>
      <point x="372" y="0" type="line"/>
      <point x="372" y="19" type="line"/>
      <point x="60" y="19" type="line"/>
      <point x="60" y="393" type="line"/>
      <point x="281" y="393" type="line"/>
      <point x="287" y="411" type="line"/>
      <point x="60" y="411" type="line"/>
      <point x="60" y="679" type="line"/>
      <point x="374" y="679" type="line"/>
      <point x="374" y="698" type="line"/>
      <point x="41" y="698" type="line"/>
    </contour>
    <contour>
      <point x="204" y="774" type="line"/>
      <point x="99" y="879" type="line"/>
      <point x="84" y="864" type="line"/>
      <point x="204" y="746" type="line"/>
      <point x="326" y="864" type="line"/>
      <point x="312" y="878" type="line"/>
    </contour>
  </outline>
</glyph>
<glyph name="ecaron" format="2">
  <advance width="420"/>
  <unicode hex="011B"/>
  <outline>
    <contour>
      <point x="49" y="132" type="curve" smooth="yes"/>
      <point x="49" y="229" type="line"/>
      <point x="390" y="246" type="line"/>
      <point x="390" y="341" type="line" smooth="yes"/>
      <point x="390" y="402"/>
      <point x="368" y="448"/>
      <point x="329" y="476" type="curve" smooth="yes"/>
      <point x="300" y="497"/>
      <point x="261" y="508"/>
      <point x="214" y="508" type="curve" smooth="yes"/>
      <point x="159" y="508"/>
      <point x="113" y="493"/>
      <point x="81" y="463" type="curve" smooth="yes"/>
      <point x="49" y="435"/>
      <point x="30" y="392"/>
      <point x="30" y="338" type="curve" smooth="yes"/>
      <point x="30" y="133" type="line" smooth="yes"/>
      <point x="30" y="80"/>
      <point x="48" y="42"/>
      <point x="82" y="19" type="curve" smooth="yes"/>
      <point x="110" y="-2"/>
      <point x="151" y="-12"/>
      <point x="204" y="-12" type="curve" smooth="yes"/>
      <point x="260" y="-12"/>
      <point x="314" y="4"/>
      <point x="364" y="35" type="curve"/>
      <point x="356" y="52" type="line"/>
      <point x="298" y="20"/>
      <point x="256" y="7"/>
      <point x="202" y="7" type="curve" smooth="yes"/>
      <point x="157" y="7"/>
      <point x="121" y="14"/>
      <point x="92" y="35" type="curve" smooth="yes"/>
      <point x="63" y="56"/>
      <point x="49" y="88"/>
    </contour>
    <contour>
      <point x="370" y="342" type="curve" smooth="yes"/>
      <point x="370" y="322"/>
      <point x="370" y="282"/>
      <point x="370" y="264" type="curve"/>
      <point x="49" y="248" type="line"/>
      <point x="49" y="268"/>
      <point x="49" y="311"/>
      <point x="49" y="332" type="curve" smooth="yes"/>
      <point x="49" y="391"/>
      <point x="68" y="428"/>
      <point x="94" y="452" type="curve" smooth="yes"/>
      <point x="127" y="482"/>
      <point x="173" y="491"/>
      <point x="211" y="491" type="curve" smooth="yes"/>
      <point x="247" y="491"/>
      <point x="286" y="484"/>
      <point x="317" y="461" type="curve" smooth="yes"/>
      <point x="348" y="439"/>
      <point x="370" y="402"/>
    </contour>
    <contour>
      <point x="207" y="576" type="line"/>
      <point x="103" y="681" type="line"/>
      <point x="87" y="665" type="line"/>
      <point x="207" y="548" type="line"/>
      <point x="330" y="665" type="line"/>
      <point x="316" y="680" type="line"/>
    </contour>
  </outline>
</glyph>
<glyph name="gcircumflex" format="2">
  <advance width="434"/>
  <unicode hex="011D"/>
  <outline>
    <contour>
      <point x="398" y="-64" type="curve" smooth="yes"/>
      <point x="398" y="498" type="line"/>
      <point x="377" y="498" type="line"/>
      <point x="377" y="451" type="line"/>
      <point x="327" y="487"/>
      <point x="251" y="506"/>
      <point x="203" y="508" type="curve" smooth="yes"/>
      <point x="93" y="513"/>
      <point x="28" y="450"/>
      <point x="28" y="344" type="curve" smooth="yes"/>
      <point x="28" y="175" type="line" smooth="yes"/>
      <point x="28" y="53"/>
      <point x="92" y="-12"/>
      <point x="203" y="-12" type="curve" smooth="yes"/>
      <point x="263" y="-12"/>
      <point x="354" y="22"/>
      <point x="377" y="80" type="curve"/>
      <point x="377" y="-63" type="line" smooth="yes"/>
      <point x="377" y="-163"/>
      <point x="314" y="-180"/>
      <point x="283" y="-193" type="curve"/>
      <point x="290" y="-210" type="line"/>
      <point x="366" y="-186"/>
      <point x="398" y="-144"/>
    </contour>
    <contour>
      <point x="377" y="426" type="curve"/>
      <point x="377" y="147" type="line" smooth="yes"/>
      <point x="377" y="50"/>
      <point x="277" y="2"/>
      <point x="189" y="8" type="curve" smooth="yes"/>
      <point x="102" y="12"/>
      <point x="48" y="67"/>
      <point x="48" y="168" type="curve" smooth="yes"/>
      <point x="48" y="346" type="line" smooth="yes"/>
      <point x="48" y="450"/>
      <point x="116" y="486"/>
      <point x="189" y="488" type="curve" smooth="yes"/>
      <point x="244" y="491"/>
      <point x="334" y="470"/>
    </contour>
    <contour>
      <point x="98" y="562" type="line"/>
      <point x="114" y="548" type="line"/>
      <point x="222" y="652" type="line"/>
      <point x="326" y="548" type="line"/>
      <point x="341" y="563" type="line"/>
      <point x="222" y="681" type="line"/>
    </contour>
  </outline>
</glyph>
<glyph name="Gbreve" format="2">
  <advance width="475"/>
  <unicode hex="011E"/>
  <outline>
    <contour>
      <point x="362" y="657" type="curve"/>
      <point x="369" y="674" type="line"/>
      <point x="326" y="696"/>
      <point x="277" y="707"/>
      <point x="227" y="707" type="curve" smooth="yes"/>
      <point x="186" y="707"/>
      <point x="150" y="698"/>
      <point x="120" y="682" type="curve"/>
      <point x="63" y="647"/>
      <point x="33" y="586"/>
      <point x="33" y="502" type="curve" smooth="yes"/>
      <point x="33" y="188" type="line" smooth="yes"/>
      <point x="33" y="122"/>
      <point x="53" y="73"/>
      <point x="95" y="40" type="curve" smooth="yes"/>
      <point x="136" y="7"/>
      <point x="185" y="-10"/>
      <point x="245" y="-10" type="curve" smooth="yes"/>
      <point x="334" y="-10"/>
      <point x="394" y="23"/>
      <point x="425" y="88" type="curve"/>
      <point x="425" y="0" type="line"/>
      <point x="444" y="0" type="line"/>
      <point x="444" y="299" type="line"/>
      <point x="242" y="299" type="line"/>
      <point x="250" y="280" type="line"/>
      <point x="425" y="280" type="line"/>
      <point x="425" y="182" type="line" smooth="yes"/>
      <point x="425" y="133"/>
      <point x="411" y="91"/>
      <point x="383" y="58" type="curve" smooth="yes"/>
      <point x="354" y="26"/>
      <point x="309" y="9"/>
      <point x="248" y="9" type="curve" smooth="yes"/>
      <point x="126" y="9"/>
      <point x="53" y="82"/>
      <point x="53" y="186" type="curve" smooth="yes"/>
      <point x="53" y="495" type="line" smooth="yes"/>
      <point x="53" y="564"/>
      <point x="75" y="617"/>
      <point x="101" y="645" type="curve"/>
      <point x="132" y="674"/>
      <point x="175" y="689"/>
      <point x="230" y="689" type="curve" smooth="yes"/>
      <point x="269" y="689"/>
      <point x="313" y="678"/>
    </contour>
    <contour>
      <point x="358" y="854" type="curve" smooth="yes"/>
      <point x="358" y="860" type="line"/>
      <point x="336" y="860" type="line"/>
      <point x="336" y="854" type="line" smooth="yes"/>
      <point x="336" y="803"/>
      <point x="295" y="762"/>
      <point x="245" y="762" type="curve" smooth="yes"/>
      <point x="195" y="762"/>
      <point x="153" y="803"/>
      <point x="153" y="854" type="curve" smooth="yes"/>
      <point x="153" y="860" type="line"/>
      <point x="131" y="860" type="line"/>
      <point x="131" y="854" type="line" smooth="yes"/>
      <point x="131" y="791"/>
      <point x="182" y="740"/>
      <point x="245" y="740" type="curve" smooth="yes"/>
      <point x="307" y="740"/>
      <point x="358" y="791"/>
    </contour>
  </outline>
</glyph>
<glyph name="gbreve" format="2">
  <advance width="435"/>
  <unicode hex="011F"/>
  <outline>
    <contour>
      <point x="399" y="-64" type="curve" smooth="yes"/>
      <point x="399" y="498" type="line"/>
      <point x="378" y="498" type="line"/>
      <point x="378" y="451" type="line"/>
      <point x="328" y="487"/>
      <point x="252" y="506"/>
      <point x="204" y="508" type="curve" smooth="yes"/>
      <point x="94" y="513"/>
      <point x="29" y="450"/>
      <point x="29" y="344" type="curve" smooth="yes"/>
      <point x="29" y="175" type="line" smooth="yes"/>
      <point x="29" y="53"/>
      <point x="93" y="-12"/>
      <point x="204" y="-12" type="curve" smooth="yes"/>
      <point x="265" y="-12"/>
      <point x="355" y="22"/>
      <point x="378" y="80" type="curve"/>
      <point x="378" y="-63" type="line" smooth="yes"/>
      <point x="378" y="-163"/>
      <point x="315" y="-180"/>
      <point x="284" y="-193" type="curve"/>
      <point x="291" y="-210" type="line"/>
      <point x="367" y="-186"/>
      <point x="399" y="-144"/>
    </contour>
    <contour>
      <point x="378" y="426" type="curve"/>
      <point x="378" y="147" type="line" smooth="yes"/>
      <point x="378" y="50"/>
      <point x="278" y="2"/>
      <point x="190" y="8" type="curve" smooth="yes"/>
      <point x="103" y="12"/>
      <point x="49" y="67"/>
      <point x="49" y="168" type="curve" smooth="yes"/>
      <point x="49" y="346" type="line" smooth="yes"/>
      <point x="49" y="450"/>
      <point x="117" y="486"/>
      <point x="190" y="488" type="curve" smooth="yes"/>
      <point x="245" y="491"/>
      <point x="335" y="470"/>
    </contour>
    <contour>
      <point x="327" y="661" type="curve" smooth="yes"/>
      <point x="327" y="668" type="line"/>
      <point x="305" y="668" type="line"/>
      <point x="305" y="661" type="line" smooth="yes"/>
      <point x="305" y="610"/>
      <point x="265" y="570"/>
      <point x="215" y="570" type="curve" smooth="yes"/>
      <point x="164" y="570"/>
      <point x="124" y="610"/>
      <point x="124" y="661" type="curve" smooth="yes"/>
      <point x="124" y="668" type="line"/>
      <point x="101" y="668" type="line"/>
      <point x="101" y="661" type="line" smooth="yes"/>
      <point x="101" y="598"/>
      <point x="151" y="548"/>
      <point x="214" y="548" type="curve" smooth="yes"/>
      <point x="277" y="548"/>
      <point x="327" y="598"/>
    </contour>
  </outline>
</glyph>
